<svg width="20" height="20" viewBox="0 0 20 20" fill="none" xmlns="http://www.w3.org/2000/svg">
    <path fill-rule="evenodd" clip-rule="evenodd" d="M2.5 1.667a.833.833 0 00-.833.833v15c0 .46.373.834.833.834H5c.46 0 .833-.373.833-.834V5.834h3.334V7.5h-.834c-.92 0-1.666.747-1.666 1.667v5c0 .92.746 1.667 1.666 1.667h8.334c.92 0 1.666-.746 1.666-1.667v-5c0-.92-.746-1.667-1.666-1.667h-.834V5.834H17.5c.46 0 .833-.373.833-.834V2.5a.833.833 0 00-.833-.833h-15zm12.5 2.5h1.667v-.833H3.333v13.333h.834V5c0-.46.373-.833.833-.833h10zm-.833 1.667V7.5h-3.334V5.834h3.334zM10 14.167h6.667v-5H8.333v5H10z" fill="#1C294D" fill-opacity=".5"/>
</svg>
