<svg width="20" height="20" viewBox="0 0 20 20" fill="none" xmlns="http://www.w3.org/2000/svg">
    <path fill-rule="evenodd" clip-rule="evenodd" d="M3.333 5.833c0-.46.373-.833.834-.833h11.666a.833.833 0 010 1.667H4.167a.833.833 0 01-.834-.834zm0 4.167c0-.46.373-.833.834-.833h7.5a.833.833 0 110 1.666h-7.5A.833.833 0 013.333 10zm.834 3.333a.833.833 0 000 1.667h11.666a.833.833 0 000-1.667H4.167z" fill="#1C294D"/>
    <path fill-rule="evenodd" clip-rule="evenodd" d="M3.334 10c0-.46.373-.833.833-.833h7.5a.833.833 0 110 1.667h-7.5A.833.833 0 013.334 10z" fill="#FC6E1D"/>
</svg>
