<svg width="20" height="20" viewBox="0 0 20 20" fill="none" xmlns="http://www.w3.org/2000/svg">
    <path fill-rule="evenodd" clip-rule="evenodd" d="M13.821 1.667H6.178a2.5 2.5 0 00-1.767.732L2.399 4.411a2.5 2.5 0 00-.732 1.768v9.655a2.5 2.5 0 002.5 2.5h11.666a2.5 2.5 0 002.5-2.5V6.179a2.5 2.5 0 00-.732-1.768L15.59 2.4a2.5 2.5 0 00-1.768-.732zM15.833 5l-1.422-1.422a.833.833 0 00-.59-.244H6.178a.833.833 0 00-.589.244L4.167 5h11.666zm-12.5 2.5v8.334c0 .46.373.833.834.833h11.666c.46 0 .834-.373.834-.833V7.5a.833.833 0 00-.834-.833H4.167a.833.833 0 00-.834.833zM5 14.167c0-.46.373-.833.833-.833H7.5A.833.833 0 117.5 15H5.833A.833.833 0 015 14.167zm.833-3.333a.833.833 0 000 1.666h3.334a.833.833 0 000-1.666H5.833z" fill="#1C294D" fill-opacity=".5"/>
</svg>
