<svg width="20" height="20" viewBox="0 0 20 20" fill="none" xmlns="http://www.w3.org/2000/svg">
    <path fill-rule="evenodd" clip-rule="evenodd" d="M1.918 1.919a.859.859 0 011.215 0l2.93 2.93c.245-.111.51-.186.788-.217l2.858-.317a2.577 2.577 0 012.106.74l5.764 5.763a2.577 2.577 0 010 3.644l-3.118 3.117a2.577 2.577 0 01-3.644 0l-5.99-5.99a2.576 2.576 0 01-.71-2.299l.486-2.574c.045-.238.122-.463.226-.672l-2.91-2.91a.859.859 0 010-1.215zM7.04 8.254l-.824-.823-.41 2.178a.859.859 0 00.237.766l5.989 5.99a.859.859 0 001.215 0l3.117-3.118a.859.859 0 000-1.214L10.6 6.269a.859.859 0 00-.702-.247l-2.395.266.771.772A1.822 1.822 0 117.04 8.254z" fill="#FF283D"/>
</svg>
