<svg width="20" height="20" viewBox="0 0 20 20" fill="none" xmlns="http://www.w3.org/2000/svg">
    <path fill-rule="evenodd" clip-rule="evenodd" d="M6.667 4.182c0-.463.373-.838.833-.838h5c.46 0 .833.375.833.838v12.052a.416.416 0 01-.695.311l-2.08-1.883a.83.83 0 00-1.115 0l-2.08 1.883a.416.416 0 01-.696-.311V4.182zM7.5 1.667h5c1.38 0 2.5 1.126 2.5 2.515v12.052c0 1.814-2.136 2.771-3.477 1.558L10 16.412l-1.523 1.38C7.137 19.005 5 18.048 5 16.234V4.182a2.507 2.507 0 012.5-2.515z" fill="#1C294D" fill-opacity=".5"/>
</svg>
