<svg width="40" height="40" viewBox="0 0 40 40" fill="none" xmlns="http://www.w3.org/2000/svg">
    <path d="M39.5 20c0 10.77-8.73 19.5-19.5 19.5S.5 30.77.5 20 9.23.5 20 .5 39.5 9.23 39.5 20z" stroke="#282F36" stroke-opacity=".15"/>
    <path fill-rule="evenodd" clip-rule="evenodd" d="M19.997 10.006c-2.715 0-3.056.011-4.122.06-1.064.048-1.79.218-2.427.465a4.9 4.9 0 00-1.77 1.153 4.9 4.9 0 00-1.153 1.77c-.247.636-.416 1.363-.465 2.427-.049 1.066-.06 1.407-.06 4.122s.011 3.055.06 4.121c.049 1.064.218 1.791.465 2.427a4.9 4.9 0 001.153 1.77 4.9 4.9 0 001.77 1.154c.636.247 1.363.416 2.427.464 1.066.049 1.407.06 4.122.06s3.055-.011 4.122-.06c1.064-.048 1.79-.217 2.426-.464a4.9 4.9 0 001.77-1.153 4.9 4.9 0 001.154-1.771c.247-.636.416-1.363.464-2.427.05-1.066.06-1.406.06-4.121 0-2.715-.01-3.056-.06-4.122-.048-1.064-.217-1.79-.464-2.427a4.9 4.9 0 00-1.153-1.77 4.9 4.9 0 00-1.77-1.153c-.637-.247-1.363-.417-2.427-.465-1.067-.049-1.407-.06-4.122-.06zm0 1.801c2.67 0 2.985.01 4.04.058.974.045 1.503.208 1.856.345.466.18.8.398 1.15.747.349.35.566.683.747 1.15.137.352.3.881.344 1.856.048 1.054.058 1.37.058 4.04 0 2.669-.01 2.985-.058 4.04-.044.974-.207 1.503-.344 1.856-.181.466-.398.8-.748 1.149-.35.35-.683.567-1.15.748-.352.137-.88.3-1.856.344-1.053.048-1.37.058-4.04.058-2.669 0-2.985-.01-4.039-.058-.974-.044-1.504-.207-1.856-.344a3.097 3.097 0 01-1.15-.748 3.098 3.098 0 01-.747-1.15c-.137-.352-.3-.881-.345-1.856-.048-1.054-.058-1.37-.058-4.04 0-2.669.01-2.985.059-4.039.044-.975.207-1.504.344-1.856.181-.467.398-.8.747-1.15.35-.35.683-.566 1.15-.747.352-.137.882-.3 1.856-.345 1.054-.048 1.37-.058 4.04-.058z" fill="#282F36" fill-opacity=".3"/>
    <path fill-rule="evenodd" clip-rule="evenodd" d="M19.997 23.336a3.332 3.332 0 110-6.665 3.332 3.332 0 010 6.665zm0-8.466a5.134 5.134 0 100 10.267 5.134 5.134 0 000-10.267zM26.533 14.666a1.2 1.2 0 11-2.4 0 1.2 1.2 0 012.4 0z" fill="#282F36" fill-opacity=".3"/>
</svg>
