<svg width="15" height="15" viewBox="0 0 15 15" fill="none" xmlns="http://www.w3.org/2000/svg">
    <path fill-rule="evenodd" clip-rule="evenodd" d="M8.16 1.875c-.9 0-1.605.722-1.65 1.583-.02.374-.052.773-.103 1.085-.019.114-.08.284-.193.5a6.01 6.01 0 01-.386.63 9.78 9.78 0 01-.423.567l-.895.26c-.21-.157-.47-.25-.752-.25H2.504c-.693 0-1.254.56-1.254 1.25v4.375c0 .69.561 1.25 1.254 1.25h1.254c.383 0 .725-.171.955-.44.599.29 1.255.44 1.92.44h4.764c.933 0 1.726-.683 1.86-1.603l.473-3.215a1.877 1.877 0 00-1.861-2.146h-1.42V4.157A2.286 2.286 0 008.16 1.875zm-3.148 9.564l.25.121c.427.207.896.315 1.37.315h4.765a.626.626 0 00.62-.534l.472-3.215a.626.626 0 00-.62-.715H9.823a.626.626 0 01-.627-.625V4.157c0-.57-.464-1.032-1.036-1.032a.412.412 0 00-.398.399c-.02.388-.056.84-.118 1.22-.05.303-.179.61-.316.874-.14.27-.309.536-.467.764a11.04 11.04 0 01-.602.791l-.011.014-.003.003-.001.002-.477-.406.476.406a.627.627 0 01-.3.194l-.931.27v3.783zM3.758 7.5H2.504v4.375h1.254V7.5z" fill="#7986CB"/>
</svg>
