<svg width="20" height="20" viewBox="0 0 20 20" fill="none" xmlns="http://www.w3.org/2000/svg">
    <path fill-rule="evenodd" clip-rule="evenodd" d="M13.584 9.88L10 15.792 6.416 9.88C4.677 7.012 6.697 3.31 10 3.31s5.323 3.702 3.584 6.57zm-8.536.864C2.646 6.782 5.437 1.667 10 1.667s7.354 5.115 4.952 9.077l-4.416 7.285a.623.623 0 01-1.072 0l-4.416-7.285zM10 5.773c-.888 0-1.608.735-1.608 1.642 0 .908.72 1.643 1.608 1.643.889 0 1.609-.735 1.609-1.643 0-.907-.72-1.642-1.609-1.642z" fill="#1C294D" fill-opacity=".5"/>
</svg>
