<svg width="20" height="20" viewBox="0 0 20 20" fill="none" xmlns="http://www.w3.org/2000/svg">
    <path fill-rule="evenodd" clip-rule="evenodd" d="M4.273 3C3.018 3 2 4.12 2 5.5v8.333c0 1.381 1.018 2.5 2.273 2.5h10.606c1.255 0 2.272-1.119 2.272-2.5V5.5c0-1.38-1.017-2.5-2.272-2.5H4.273zm-.689 2.152c.12-.287.383-.485.689-.485h10.606c.305 0 .568.198.688.485L10.041 9.88a.704.704 0 01-.93 0L3.584 5.152zm-.069 2.052v4.85l2.737-2.509-2.737-2.341zm.063 6.962c.117.295.384.5.695.5h10.606c.31 0 .578-.205.695-.5l-3.899-3.573-.704.602c-.82.702-1.97.702-2.79 0l-.705-.602-3.898 3.573zm12.058-2.112v-4.85L12.9 9.545l2.736 2.51z" fill="#1C294D" fill-opacity=".5"/>
</svg>
