<svg width="98" height="101" viewBox="0 0 98 101" fill="none" xmlns="http://www.w3.org/2000/svg">
    <path fill-rule="evenodd" clip-rule="evenodd" d="M97.778 59.293V59.746c0 .075-.003.149-.005.223 0 .04 0 .08-.004.119-.003.04 0 .074-.003.111 0 .064-.004.127-.007.19v.047l-.013.277-.004.072-.011.187-.01.172a28.854 28.854 0 01-.167 1.76l-.029.224a40.875 40.875 0 01-.197 1.319l-.038.217a34.268 34.268 0 01-.208 1.065l-.091.42-.143.618a38.19 38.19 0 01-.593 2.174 38.373 38.373 0 01-.54 1.652 42.97 42.97 0 01-.754 1.995l-.126.307-.063.151a49.681 49.681 0 01-.434 1l-.122.267a40.877 40.877 0 01-.683 1.42c-.053.104-.104.206-.155.303a8.028 8.028 0 01-.098.19l-.048.092-.093.176c-.047.085-.089.166-.131.243l-.082.15c-.04.072-.078.143-.114.204a13.31 13.31 0 01-.219.383l-.048.083-.022.038-.04.067c-.06.101-.096.153-.096.153-4.921 7.42-12.645 14.086-21.873 18.343-.944.436-1.903.845-2.876 1.229a51.804 51.804 0 01-12.84 3.259 48.576 48.576 0 01-5.296.352 47.428 47.428 0 01-14.799-2.21c-7.031-2.223-14.068-6.218-20.766-12.42l-.226-.211-.316-.3-.057-.055-.294-.285-.004-.004-.105-.104c-.048-.044-.09-.088-.134-.132a11.59 11.59 0 01-.11-.11l-.174-.175-.104-.106-.243-.248-.251-.264-.065-.068-.09-.095-.179-.19-.074-.08-.16-.174-.01-.011-.015-.018a33.839 33.839 0 01-.176-.19l-.069-.077c-.07-.079-.143-.157-.21-.238l-.053-.06-.068-.077a40.49 40.49 0 01-.473-.552l-.034-.04-.022-.025-.055-.066a9.614 9.614 0 01-.114-.135l-.025-.032-.052-.062-.207-.25-.169-.21-.148-.184-.084-.107-.078-.099-.005-.006c-.058-.073-.115-.143-.17-.218a56.825 56.825 0 01-.305-.397l-.052-.07a24.138 24.138 0 01-.128-.17l-.042-.056-.016-.02a43.078 43.078 0 01-.228-.312l-.003-.004-.02-.028c-.071-.095-.14-.193-.21-.29l-.047-.07-.175-.248-.048-.07-.048-.069-.122-.176-.025-.037c-.065-.095-.131-.19-.196-.289l-.108-.16-.087-.132-.02-.03-.023-.035-.085-.13-.05-.078-.05-.076-.027-.042-.185-.29a46.518 46.518 0 01-.206-.327l-.022-.035-.112-.183-.093-.15a52.825 52.825 0 01-.37-.62l-.003-.007-.184-.317c0-.003-.003-.005-.004-.007-.048-.082-.095-.164-.14-.246l-.048-.088a35.305 35.305 0 01-.128-.23c-.015-.027-.03-.055-.047-.082a21.058 21.058 0 01-.076-.143l-.13-.238-.034-.063-.089-.169-.042-.08-.005-.008-.087-.166a14.426 14.426 0 01-.086-.169c0-.006-.006-.011-.01-.017l-.03-.059-.047-.095-.086-.17-.028-.055-.143-.285-.166-.342a52.958 52.958 0 01-.158-.334l-.032-.068-.053-.113c-.017-.038-.03-.063-.043-.096l-.036-.078-.147-.322-.02-.047-.08-.177-.063-.143c-.04-.09-.08-.181-.118-.273l-.034-.079c-.02-.043-.037-.087-.056-.13l-.088-.21a12.917 12.917 0 01-.086-.21l-.052-.127-.033-.084-.12-.298c-.02-.047-.039-.098-.058-.148l-.073-.187-.064-.167a23.961 23.961 0 01-.133-.353c-.023-.063-.048-.125-.068-.186a44.719 44.719 0 01-.128-.357c-.041-.116-.083-.233-.122-.35l-.028-.077a21.683 21.683 0 01-.095-.277l-.032-.096-.018-.052-.035-.104-.033-.103c-.026-.075-.048-.15-.073-.225l-.043-.132v-.006l-.024-.076v-.004c-.025-.08-.048-.16-.074-.238-.005-.011-.008-.023-.011-.034l-.05-.166-.055-.176a.238.238 0 00-.007-.025l-.062-.208-.065-.224-.08-.28a1.1 1.1 0 00-.012-.042l-.027-.098a6.142 6.142 0 01-.06-.22l-.054-.2a19.001 19.001 0 01-.047-.177l-.021-.078c-.024-.09-.048-.18-.07-.27a147.415 147.415 0 01-.144-.583c0-.007-.004-.014-.006-.021l-.052-.217-.008-.036-.056-.244c-.016-.069-.031-.139-.048-.208a5.73 5.73 0 01-.047-.224c-.02-.084-.037-.17-.055-.255l-.022-.105a32.41 32.41 0 01-.107-.525l-.01-.051a23.926 23.926 0 01-.095-.494 31.2 31.2 0 01-.056-.306c-.048-.272-.096-.543-.138-.816l-.009-.05-.01-.062a54.683 54.683 0 01-.091-.606l-.062-.435c-.04-.29-.076-.581-.11-.872a39.832 39.832 0 01-.136-1.31 46.07 46.07 0 01-.132-1.92l-.013-.274a49.2 49.2 0 01.054-5.438 51.782 51.782 0 01.256-2.83l.047-.402.03-.226a52.608 52.608 0 01.686-4.06 54.482 54.482 0 011.584-5.92 55.332 55.332 0 015.055-11.098c.16-.267.323-.533.487-.797C15.575 13.196 27.307 4.568 41.534 3.596c21.147-1.444 26.579 5.905 31.211 15.172l.159.32c.211.426.421.854.63 1.286 1.156 2.38 2.314 4.864 3.715 7.333a49.938 49.938 0 001.394 2.31l.131.204c.143.222.292.443.442.667l.227.33c.109.157.219.313.33.47.052.072.104.142.157.218A38.076 38.076 0 0081.569 34c.048.054.091.107.137.161a28.602 28.602 0 00.56.64 36.923 36.923 0 00.885.95l.308.312a32.787 32.787 0 00.635.622 34.349 34.349 0 003.397 2.841 29.133 29.133 0 011.077.826l.173.14.17.14.17.142c.23.194.456.39.676.585l.138.125.157.142.155.143.154.143.151.143.15.143.148.143.145.146c.051.05.096.095.143.146.048.051.096.095.143.147.095.095.188.196.28.294.047.048.092.099.136.148l.136.149c.185.205.366.411.541.619.052.06.102.121.153.182.094.112.186.225.276.34l.102.127.027.034.143.183.012.016.014.018.01.013.13.17.04.055a.103.103 0 01.007.008l.04.054.076.103.051.07.048.064.071.098.048.07.028.04.082.117.016.023.123.179.073.107.056.084.044.066.079.12.032.047.016.025c.024.038.048.077.074.115l.007.01.056.09c.033.05.064.1.096.151l.043.071c.015.023.035.055.05.082l.073.119.014.022.1.169.032.055.105.181v.004l.02.037.006.01.105.186.017.031.114.206.047.089.048.088.02.04.012.022a10.904 10.904 0 01.21.41l.025.048c.028.055.056.111.082.168l.029.058.01.021c0 .003.003.006.004.009l.005.01.075.158.014.029c.01.025.022.047.034.074l.026.056.026.057a5.596 5.596 0 00.046.1l.043.096c.01.02.019.042.027.062l.023.052.017.038.063.146.03.073.007.015a28.921 28.921 0 01.107.256l.045.113.041.102a2.492 2.492 0 00.064.159l.028.074a.156.156 0 01.01.026c.01.024.019.047.028.075l.023.061c.017.044.033.088.048.133l.02.056a4.032 4.032 0 01.051.141l.01.03a24.037 24.037 0 01.074.212l.028.08.03.093.023.065.012.038.01.029v.004l.039.122v.008a.432.432 0 01.01.028l.004.016a13.928 13.928 0 01.076.242l.012.039.055.184.02.069.055.19.014.048a28.624 28.624 0 01.117.433l.054.214v.005l.038.155v.004l.014.065.01.039.012.052c.014.064.03.127.043.19a6.8 6.8 0 01.028.13l.022.102.003.017.021.101.02.1a8.686 8.686 0 01.039.193l.016.082c.01.047.018.095.027.142l.013.068c.01.05.018.102.027.152l.014.084c0 .013.005.026.007.039a.569.569 0 01.005.034c.006.028.01.057.015.085l.02.122.007.047.024.16a6.795 6.795 0 01.034.23c0 .016.005.032.007.047a31.278 31.278 0 01.059.456l.007.063c.01.076.017.153.026.229l.02.203v.015l.004.03v.02c.013.122.023.244.033.366l.012.146c0 .028.004.056.006.083l.007.088.01.152v.005c0 .022.003.043.004.065l.005.093.007.123v.034c.004.076.008.151.01.227l.005.113v.06a.48.48 0 00.003.072c0 .055.004.11.005.166 0 .055.003.099.004.148l.003.152V59.038c.01.09.01.173.01.255z" fill="#F6F2FF"/>
    <path fill-rule="evenodd" clip-rule="evenodd" d="M97.778 59.293V59.746c0 .075-.003.149-.005.223 0 .04 0 .08-.004.119-.003.04 0 .074-.003.111 0 .063-.004.127-.007.19v.047l-.013.277-.004.071-.011.188-.01.172a29.486 29.486 0 01-.167 1.76l-.029.224a40.938 40.938 0 01-.197 1.319l-.038.217a46.043 46.043 0 01-.208 1.065c-.03.143-.06.28-.091.419l-.143.619a37.802 37.802 0 01-.593 2.174 38.373 38.373 0 01-.54 1.652 43.018 43.018 0 01-.754 1.995l-.126.306c-.02.051-.042.101-.063.152a49.184 49.184 0 01-.434 1l-.122.267a41.263 41.263 0 01-.683 1.42c-.053.104-.104.206-.155.303a7.84 7.84 0 01-.098.19l-.048.092-.093.175-.131.244a15.95 15.95 0 00-.082.15c-.04.072-.078.143-.114.204a12.156 12.156 0 01-.219.382l-.048.084-.022.038-.04.067c-.06.1-.096.153-.096.153-4.921 7.42-12.645 14.086-21.873 18.343a55.29 55.29 0 01-2.876 1.229 51.81 51.81 0 01-12.84 3.259 48.576 48.576 0 01-5.296.352 47.42 47.42 0 01-14.799-2.21c-7.031-2.223-14.068-6.218-20.766-12.42l-.226-.212c-.106-.099-.212-.2-.316-.3l-.057-.054c-.099-.095-.197-.19-.294-.286l-.004-.003-.105-.104c-.048-.044-.09-.088-.134-.132a11.59 11.59 0 01-.11-.111c-.06-.058-.116-.117-.174-.174l-.104-.106-.243-.248-.251-.264-.065-.068-.09-.095-.179-.19-.074-.08-.16-.175-.01-.01-.19-.21-.07-.078c-.07-.078-.142-.157-.21-.238l-.052-.059-.068-.077a40.49 40.49 0 01-.53-.617l-.054-.066a9.621 9.621 0 01-.114-.136l-.026-.031-.051-.062-.208-.251-.169-.21-.148-.184-.084-.107-.078-.098-.005-.007c-.057-.072-.114-.143-.17-.218a56.167 56.167 0 01-.305-.397l-.052-.07a20.462 20.462 0 01-.128-.17l-.042-.056-.015-.02a43.397 43.397 0 01-.229-.311l-.023-.032c-.07-.095-.14-.193-.209-.29l-.047-.07c-.06-.083-.117-.166-.176-.25l-.048-.068-.047-.07-.123-.176-.002-.005-.022-.031c-.066-.096-.132-.191-.197-.29l-.107-.16-.088-.132-.02-.03c-.005-.01-.015-.023-.022-.035l-.086-.13-.05-.077a3.206 3.206 0 01-.037-.058l-.013-.019-.027-.042a48.528 48.528 0 01-.39-.617l-.022-.035-.113-.182-.092-.151a52.955 52.955 0 01-.37-.62l-.004-.006-.184-.318c0-.003-.003-.005-.003-.007a10.727 10.727 0 01-.14-.246l-.048-.088a37.628 37.628 0 01-.128-.23c-.016-.027-.031-.055-.048-.082l-.076-.143c-.044-.079-.087-.159-.129-.238l-.034-.063-.09-.169-.042-.08-.004-.007c-.03-.055-.058-.111-.087-.167a15.113 15.113 0 01-.087-.168c0-.006-.006-.012-.009-.018l-.03-.059c-.017-.03-.032-.062-.048-.095l-.086-.17-.027-.054-.143-.286-.166-.342a55.724 55.724 0 01-.159-.333c0-.003-.003-.006-.004-.01l-.028-.059-.052-.113-.044-.095c-.014-.033-.024-.052-.036-.078-.047-.108-.098-.215-.146-.322l-.021-.048-.079-.176-.063-.143c-.04-.091-.08-.182-.118-.273l-.035-.08-.055-.13-.088-.21v-.002l-.086-.208-.052-.127-.034-.084-.12-.297-.058-.148-.072-.188-.064-.167-.018-.044-.047-.124c-.024-.062-.048-.124-.07-.185-.022-.062-.047-.124-.068-.186a47.093 47.093 0 01-.128-.356l-.122-.35-.028-.078a19.464 19.464 0 01-.072-.214l-.055-.16-.017-.053-.024-.071a8.725 8.725 0 01-.118-.36l-.042-.133v-.005c-.008-.026-.017-.051-.024-.077v-.004c-.025-.079-.048-.159-.075-.238l-.01-.033-.051-.166-.054-.177a.238.238 0 00-.008-.024l-.061-.209-.066-.223-.064-.225c-.01-.033-.018-.065-.028-.095-.01-.03-.018-.065-.027-.098a6.11 6.11 0 01-.06-.22l-.053-.2a19.001 19.001 0 01-.048-.177l-.02-.078a30.387 30.387 0 01-.057-.219l-.013-.05a147.415 147.415 0 01-.144-.584c0-.007-.004-.014-.006-.021l-.052-.217-.008-.036-.056-.244c-.016-.069-.031-.139-.048-.208a5.77 5.77 0 01-.047-.224c-.02-.084-.037-.17-.055-.255l-.022-.105-.038-.178c-.024-.116-.048-.232-.07-.347l-.01-.051a10.994 10.994 0 01-.042-.22l-.02-.109a31.2 31.2 0 01-.088-.471c-.042-.234-.082-.47-.12-.704-.007-.037-.012-.074-.018-.112l-.009-.05-.01-.062a54.683 54.683 0 01-.091-.606l-.062-.435a54.457 54.457 0 01-.245-2.183 49.571 49.571 0 01-.133-1.919L.05 55.74a48.978 48.978 0 01.009-4.628 51.208 51.208 0 01.172-2.429c.039-.404.081-.807.129-1.21l.047-.403.03-.226a52.622 52.622 0 01.686-4.06 54.482 54.482 0 011.584-5.92 55.332 55.332 0 015.055-11.098c.16-.267.323-.533.487-.797 17.302-2.148 32.605 9.634 48.015 10.288 19.827.84 16.508-16.31 16.47-16.5l.158.317c.211.426.421.855.63 1.286 1.156 2.38 2.314 4.864 3.715 7.333a50.028 50.028 0 001.394 2.31l.131.204a39.567 39.567 0 001 1.466c.05.073.103.143.157.219l.203.278a37.77 37.77 0 001.434 1.816c.048.054.091.107.137.161a29.535 29.535 0 00.56.64 29.521 29.521 0 00.885.95l.308.312a32.781 32.781 0 00.635.622 34.334 34.334 0 003.397 2.841 29.133 29.133 0 011.078.826l.172.14.17.14c.058.047.114.095.17.142.23.194.457.39.677.585l.137.125a22.036 22.036 0 01.313.285l.153.143.151.143.15.143.148.143.146.146c.05.05.095.095.142.146.048.051.096.095.143.147.096.095.188.196.28.294.047.048.092.099.136.148l.136.149c.185.205.366.411.542.619l.152.182c.094.112.186.225.277.34l.101.127.027.034.143.183.026.034.01.013.13.171.04.054a.103.103 0 01.007.008l.04.054.038.053.038.048.052.07c.015.022.03.043.047.064l.071.098c.017.023.033.048.048.07l.028.04.082.116.016.024.123.179.073.106.056.084.044.067.079.12.032.047.016.024c.025.039.048.077.075.116l.006.01.056.089c.033.05.064.101.096.152l.043.07c.015.024.035.056.05.083l.073.119.014.022.1.169.032.055.105.18v.005l.02.037.006.01.105.186.017.03.114.207.022.043.092.173a.464.464 0 01.012.022l.104.2.102.202c0 .003.003.005.004.009l.025.047.082.168.028.058.011.022c0 .003.003.006.004.008l.005.01.075.159.014.029.033.073.016.035.037.078.042.093c0 .003.002.005.004.008l.042.095c.01.021.02.042.028.063l.023.052.017.038.095.219.006.015.092.22.015.036.072.18.014.035.016.04.072.187v.005a.12.12 0 01.01.026c.01.025.02.048.029.075.01.027.016.04.023.062.016.044.033.088.047.133.007.018.015.037.021.056a5.052 5.052 0 01.05.14l.01.03a30.078 30.078 0 01.134.386l.022.064.012.039.01.028a1.872 1.872 0 01.031.103c.003.008.006.016.007.024a.02.02 0 010 .007l.01.029.005.016a14.394 14.394 0 01.076.242l.011.038c.02.062.038.124.056.185l.02.068c.018.065.036.128.055.19l.014.048a36.311 36.311 0 01.116.433l.055.215a13.715 13.715 0 01.038.16v.004l.014.065.01.039.012.052c.014.063.03.127.043.19a6.971 6.971 0 01.027.13l.023.102.003.017a7.3 7.3 0 01.021.101l.02.099a45.536 45.536 0 01.055.274l.028.143.012.068c.01.05.018.101.027.152l.015.084c0 .013.004.026.006.039a.569.569 0 01.006.033l.034.208.007.047.024.16c.006.03.01.06.014.09l.02.14c0 .016.005.032.007.047a31.278 31.278 0 01.059.456l.007.063c.01.076.018.153.026.228l.021.204v.014l.004.03v.02c.012.123.022.245.032.367l.012.146c0 .027.004.056.007.083l.006.087.01.153v.005c0 .022.003.043.004.065l.012.216v.023c.005.08.009.158.012.238l.007.174a.487.487 0 00.003.072c0 .055.004.11.005.165 0 .022 0 .043.002.064v.084l.003.153V59.02c.022.107.023.19.022.273z" fill="#EDE4FF"/>
    <path fill-rule="evenodd" clip-rule="evenodd" d="M97.78 59.293V59.746c0 .075-.004.149-.006.223v.119c0 .036 0 .074-.003.111 0 .064-.005.127-.008.19v.047c-.003.093-.008.185-.013.277l-.003.071-.012.188-.01.172a28.854 28.854 0 01-.167 1.76l-.028.224a41.651 41.651 0 01-.198 1.319l-.038.217a43.51 43.51 0 01-.208 1.065l-.09.419-.143.62a38.584 38.584 0 01-.949 3.288 42.97 42.97 0 01-.938 2.532l-.126.306-.064.152c-.04.1-.083.198-.125.295-.104.243-.207.478-.309.705l-.121.267a40.877 40.877 0 01-.684 1.42c-.052.104-.103.206-.154.303a8.426 8.426 0 01-.099.19l-.047.092-.093.175c-.048.086-.09.167-.132.244l-.082.15c-.04.072-.078.143-.114.204a12.707 12.707 0 01-.219.383l-.047.083-.023.038-.04.067c-.06.101-.095.153-.095.153-4.922 7.42-12.646 14.086-21.873 18.343-.944.435-1.903.845-2.877 1.229a51.804 51.804 0 01-12.84 3.259 48.636 48.636 0 01-5.299.352 47.423 47.423 0 01-14.799-2.21c-7.031-2.223-14.067-6.218-20.766-12.42l-.226-.211-.316-.3-.057-.055-.294-.285-.109-.108c-.047-.044-.09-.088-.134-.132a11.59 11.59 0 01-.11-.11l-.174-.175-.104-.106-.243-.248-.251-.264-.065-.068-.09-.095-.179-.19c-.024-.027-.047-.053-.074-.08l-.16-.174-.01-.011-.015-.018-.245-.27c-.07-.078-.142-.157-.21-.237l-.052-.06-.069-.077a40.49 40.49 0 01-.473-.552l-.034-.04c-.064-.075-.128-.151-.19-.227-.01-.01-.018-.02-.026-.031l-.052-.062-.207-.251-.169-.21-.148-.184-.084-.107-.078-.098-.005-.007c-.058-.072-.114-.143-.17-.218a56.825 56.825 0 01-.305-.397l-.052-.07a20.243 20.243 0 01-.128-.17l-.042-.056-.016-.02a71.615 71.615 0 01-.228-.311l-.003-.004a44.066 44.066 0 01-.229-.318l-.048-.07-.175-.249-.048-.07c-.058-.082-.116-.165-.173-.25l-.219-.32-.107-.161-.107-.162-.023-.035-.173-.265-.013-.019-.027-.042a48.528 48.528 0 01-.39-.617l-.022-.035-.113-.182-.092-.151a63.646 63.646 0 01-.37-.619l-.004-.007-.184-.318c0-.003-.002-.005-.003-.007l-.19-.333a32.884 32.884 0 01-.25-.454l-.13-.238a39.14 39.14 0 01-.123-.232l-.043-.08-.004-.007-.174-.334c0-.005-.005-.01-.009-.017a11.504 11.504 0 01-.163-.322l-.028-.054-.143-.286-.166-.342-.162-.343-.028-.059-.053-.113c-.026-.057-.052-.115-.08-.172-.047-.108-.097-.214-.146-.322l-.02-.048-.144-.321c-.04-.091-.08-.182-.118-.273l-.034-.08-.143-.34a66.773 66.773 0 01-.138-.337l-.033-.083-.12-.297-.13-.334a17.131 17.131 0 01-.064-.167l-.064-.168c-.022-.056-.048-.124-.07-.186-.022-.062-.047-.124-.068-.185a46.211 46.211 0 01-.127-.357c-.042-.116-.083-.232-.123-.35a18.331 18.331 0 01-.1-.291l-.022-.063c-.01-.033-.022-.065-.033-.095l-.017-.053-.024-.072-.011-.032-.034-.103-.045-.14a2.505 2.505 0 01-.028-.085l-.042-.132v-.006c-.008-.026-.017-.05-.024-.076v-.004c-.025-.08-.048-.159-.075-.238-.004-.01-.007-.023-.01-.034l-.051-.165-.054-.177a.24.24 0 00-.007-.025l-.062-.208-.066-.224-.063-.224c-.006-.019-.01-.037-.017-.055-.005-.018-.007-.029-.012-.043-.008-.033-.018-.065-.027-.098l-.012-.044a6.087 6.087 0 01-.048-.176l-.053-.2-.048-.177-.02-.078a31.062 31.062 0 01-.057-.219l-.013-.05a119.96 119.96 0 01-.145-.584c0-.007-.003-.014-.005-.021l-.052-.217-.008-.036c-.02-.081-.038-.162-.056-.243l-.048-.209a5.692 5.692 0 01-.048-.223l-.055-.256-.022-.104-.037-.179c-.024-.116-.048-.231-.07-.347l-.01-.051-.043-.22-.02-.109-.032-.165a32.3 32.3 0 01-.176-1.01l-.018-.112-.018-.112a53.998 53.998 0 01-.092-.606c12.267-19.065 38.348-9.795 54.96-3.483 14.917 5.666 30.25-6.677 36.875-13.072l.153.182c.093.112.185.225.276.34l.101.127.028.035.142.182.013.016c.004.007.01.013.014.018.004.006.006.01.01.013l.13.171.04.054.085.115.037.048.052.07c.016.022.03.043.047.064l.071.098.048.07.028.04.082.116c.005.009.011.017.017.024l.122.179.13.19.043.066.079.12c.01.017.022.033.032.048.006.008.01.016.017.024.024.038.047.077.074.116l.007.01.056.089.095.151.044.072.05.082.073.118.013.023.1.168.032.056.105.18v.005l.021.037.006.01.104.186.018.03.113.207.023.043.024.045c.016.029.031.059.048.088l.02.04.012.022.104.2.028.053c.025.047.047.099.074.148 0 .003.003.006.004.01l.025.047.082.168.029.058.01.022.004.008.005.01.075.159.014.028c.01.025.022.048.034.074l.015.034.01.022.027.057.042.092c0 .003.002.006.004.009l.043.095.027.063.023.052.017.038.063.145.03.074.007.014.092.22.015.037.045.112c.01.022.018.045.026.067l.015.035.016.041c.015.04.03.079.048.118.009.023.017.048.026.069v.005a.068.068 0 01.004.01.11.11 0 01.006.016c.01.025.019.048.028.075.01.027.016.04.023.062l.048.132.02.057a4.032 4.032 0 01.051.14l.01.03a22.874 22.874 0 01.074.212l.028.08.03.093.035.104.01.028v.005l.031.098.008.023a.02.02 0 010 .008.383.383 0 01.01.029l.004.016a17.41 17.41 0 01.076.242l.012.038.055.184.02.07.055.19.014.047a26.962 26.962 0 01.117.433l.054.214v.005l.037.156v.004l.025.103.012.053c.014.063.03.127.043.19a6.36 6.36 0 01.028.13l.022.102.003.016.021.102.02.099a9.856 9.856 0 01.039.193l.016.082.027.143.013.068c.01.05.018.1.027.151l.014.085c0 .012.005.025.007.038a.569.569 0 01.005.034l.015.085.02.122.007.048.024.16a6.913 6.913 0 01.034.23c0 .015.005.032.007.047a32.035 32.035 0 01.059.456l.007.063c.01.076.017.152.026.228l.021.203v.015l.003.03v.02c.013.123.023.244.033.366l.012.147c0 .027.004.055.006.082l.007.088.01.152v.006c0 .021.003.043.004.065l.005.092.007.123v.035c.004.075.008.15.01.226l.005.114c0 .04.004.083.005.124v.008c0 .055.004.11.005.165V58.612c0 .051.003.102.004.153V59.048c.01.08.01.163.01.245z" fill="#E4DBFA"/>
    <path fill-rule="evenodd" clip-rule="evenodd" d="M97.779 59.292V59.746c0 .074-.003.148-.006.222v.119c0 .037 0 .074-.003.111 0 .064-.004.127-.007.19v.048l-.013.276-.004.072-.011.187-.01.173a28.863 28.863 0 01-.167 1.76l-.029.223a41.716 41.716 0 01-.197 1.319l-.038.217c-.026.143-.052.286-.08.429-.04.214-.083.426-.128.636l-.091.42-.143.618a38.198 38.198 0 01-.593 2.174 38.57 38.57 0 01-.54 1.652 43.018 43.018 0 01-.754 1.996l-.126.306-.063.151a49.704 49.704 0 01-.434 1l-.122.267a40.897 40.897 0 01-.683 1.42l-.155.304a7.845 7.845 0 01-.098.19l-.048.091-.093.176c-.047.085-.089.166-.131.244l-.082.15c-.04.071-.078.142-.114.203a12.386 12.386 0 01-.22.383l-.047.084-.022.038-.04.066c-.061.101-.096.154-.096.154-4.922 7.42-12.645 14.085-21.873 18.343-.944.435-1.903.844-2.877 1.228-4.064 1.6-8.377 2.729-12.84 3.259a48.387 48.387 0 01-5.298.352 47.437 47.437 0 01-14.799-2.21c-7.032-2.223-14.068-6.217-20.766-12.42l-.226-.211-.317-.3-.056-.054-.295-.286-.108-.108c-.048-.044-.09-.088-.134-.132a12.958 12.958 0 01-.111-.11l-.173-.175-.105-.106-.242-.248-.252-.263c-.021-.023-.043-.048-.064-.069l-.09-.095-.18-.19c-.024-.026-.047-.053-.073-.08l-.16-.174-.01-.011-.016-.018-.244-.27c-.07-.078-.143-.156-.21-.237l-.053-.06-.068-.077a37.241 37.241 0 01-.474-.552l-.034-.04a28.573 28.573 0 01-.19-.227l-.026-.03-.051-.063-.208-.25-.168-.21-.149-.185-.084-.106-.078-.099-.005-.007c-.057-.072-.114-.142-.17-.218a61.626 61.626 0 01-.305-.397l-.052-.07a24.138 24.138 0 01-.127-.17l-.043-.055-.015-.02a72.426 72.426 0 01-.229-.312l-.002-.004a44.066 44.066 0 01-.23-.318l-.047-.07c-.06-.083-.117-.165-.176-.249l-.047-.069-.174-.25-.218-.321-.107-.161-.108-.162-.022-.034-.174-.266-.013-.019L7 78.118l-.185-.29a46.869 46.869 0 01-.206-.327l-.022-.035-.112-.183-.092-.15a62.468 62.468 0 01-.37-.62l-.004-.007-.184-.317c0-.003-.003-.005-.004-.008l-.19-.333a34.865 34.865 0 01-.25-.453l-.13-.238-.123-.232-.042-.08-.004-.008-.174-.333c0-.006-.006-.012-.01-.018-.025-.05-.05-.101-.077-.152l-.086-.17-.027-.054-.143-.286-.166-.342-.163-.343-.028-.059-.052-.113-.08-.172c-.047-.107-.098-.214-.146-.322a1.428 1.428 0 00-.021-.047l-.143-.322c-.04-.091-.08-.182-.118-.273l-.034-.08c-.048-.112-.096-.225-.143-.34a70.944 70.944 0 01-.138-.337l-.034-.083-.12-.297-.13-.334a17.371 17.371 0 01-.064-.167c-.02-.056-.042-.111-.064-.168l-.07-.185c-.021-.062-.047-.124-.068-.186a46.67 46.67 0 01-.127-.356c-.041-.117-.083-.233-.123-.35a18.344 18.344 0 01-.1-.292l-.022-.063-.032-.095-.018-.053-.023-.072-.012-.032-.033-.103-.046-.14a2.604 2.604 0 01-.027-.085l-.043-.132v-.006l-.024-.076v-.004c-.025-.08-.047-.159-.074-.238l-.011-.034-.05-.165-.055-.177a.23.23 0 00-.007-.024l-.061-.209c-.02-.07-.045-.149-.066-.224l-.064-.224-.016-.055-.012-.042-.027-.099a6.017 6.017 0 01-.06-.22l-.054-.2a19.316 19.316 0 01-.047-.177l-.021-.078a30.387 30.387 0 01-.056-.218l-.014-.051c13.173-.91 28.187 7.09 42.776 11.993 7.405 2.489 14.7 4.18 21.59 3.504 2.453-.24 4.857-.781 7.193-1.692 19.878-7.753 24.727-20.59 24.764-20.69V58.626l.003.152V59.06c-.004.066-.003.15-.004.232z" fill="#BEB2DA"/>
    <path d="M50.94 1.003C66.202.786 72.05 14.444 72.05 14.444M48.506 1.324s-5.309.154-7.309.62" stroke="#E4DBFA" stroke-width=".152" stroke-linecap="round"/>
    <path fill-rule="evenodd" clip-rule="evenodd" d="M15.954 74.297s.333 4.548 1.508 5.084c1.174.537 2.759-.587 2.606-1.481-.153-.895-2.095-5.596-3.194-4.804-1.098.792-.92 1.201-.92 1.201z" fill="#FED194"/>
    <path fill-rule="evenodd" clip-rule="evenodd" d="M16.139 75.886s.598.744.922 1.034c.323.29.596.545.698.46.103-.085.536-1.572.017-1.96-.519-.387-1.754-.425-1.754-.425l.117.891z" fill="#F59D4E"/>
    <path fill-rule="evenodd" clip-rule="evenodd" d="M70.506 96.167c-.944.435-1.903.845-2.877 1.228-4.064 1.6-8.377 2.729-12.84 3.259-.308-1.068-3.38-11.659-4.038-10.567-.362.605-.86 5.966-1.25 10.909a47.415 47.415 0 01-14.8-2.212c-.38-6.002-.744-13.253-.963-17.814-.13-2.7-.209-4.456-.209-4.456l.561.044 10.132.783 21.013 1.625.576 1.879 3.653 11.922v.003l.17.554a.042.042 0 01.003.01l.137.449.732 2.384z" fill="#663E36"/>
    <path fill-rule="evenodd" clip-rule="evenodd" d="M70.505 96.167a55.13 55.13 0 01-2.876 1.228c-5.29-13.852-13.502-11.754-19.79-11.754-6.965 0-14.101-4.671-14.101-4.671-.13-2.7-.209-4.456-.209-4.456l.561.044 10.132.783 21.013 1.625.576 1.879 3.653 11.922v.003l.17.555a.041.041 0 01.003.01l.137.448.731 2.384z" fill="#59302A"/>
    <path fill-rule="evenodd" clip-rule="evenodd" d="M65.234 78.965l4.23 13.805c-2.127-6.494-8.079-9.44-16.974-9.81-9.142-.383-16.611-3.277-16.611-3.277s-.929-1.06-1.79-3.124l31.145 2.406z" fill="#42211D"/>
    <path fill-rule="evenodd" clip-rule="evenodd" d="M35.879 79.68s16.729 4.29 29.865.948l-1.088-3.594-28.777 2.647z" fill="#27140E"/>
    <path fill-rule="evenodd" clip-rule="evenodd" d="M32.022 76.597v2.682s16.428 2.07 28.386.46c0 0 4.54-.404 5.336-1.007l-.584-3.975-33.138 1.84z" fill="#fff"/>
    <path fill-rule="evenodd" clip-rule="evenodd" d="M53.458 24.462s-1.703 1.497-1.148 2.571c.556 1.074-3.545-.941-2.44-2.45 1.104-1.51 5.057-5.164 5.214-3.243.157 1.922-1.626 3.122-1.626 3.122z" fill="#72120C"/>
    <path fill-rule="evenodd" clip-rule="evenodd" d="M41.88 14.498s-1.096 2.65-1.1 5.149c-.006 2.5.13 5.166 1.298 6.619 1.168 1.453 3.131 1.69 3.131 1.69s.006 3.1-.49 3.866c-.496.765 1.035 4.837 2.147 4.576 1.112-.261 2.498-.663 3.306-2.804.808-2.14 1.271-1.036 1.271-1.036s-.86-5.043-.443-5.884c.417-.841 1.907-2.96 2.2-4.18 0 0 1.143.066 1.887-.596.744-.663 1-2.717-.139-2.849 0 0 .908-3.36.358-4.513-.55-1.152-5.988-3.512-6.939-3.585-.95-.073-6.487 3.547-6.487 3.547z" fill="#FED194"/>
    <path fill-rule="evenodd" clip-rule="evenodd" d="M44.67 35.463s-1.482 1.428-.255 3.662c1.226 2.234.032 5.79 3.729 3.372s5.417-3.168 4.003-4.837c-1.143-1.35-3.088-3.004-4.292-2.947l-.476.869-.449-.839c-.636-.088-2.26.72-2.26.72z" fill="#BBC3C4"/>
    <path fill-rule="evenodd" clip-rule="evenodd" d="M65.584 76.865s-14.832 3.028-31.311.575c0 0-.945-.128-3.398-.18l2.453-41.035s1.876-.88 4.017-1.732c1.68-.666 3.523-1.317 4.746-1.508 2.785-.435 1.993 3.449 1.993 3.449s1.265 3.832 3.296 3.526c2.031-.306 3.372-3.735 3.372-3.735s2.606-3.432 3.833-3.394c0 0 1.303.19 2.99.498 1.686.308 4.406 1.19 4.866 1.762L63.61 49.33l.095 1.169s2.721 19.967 1.879 26.367z" fill="#6D378F"/>
    <path fill-rule="evenodd" clip-rule="evenodd" d="M65.584 76.865s-11.585 2.365-25.652 1.221a85.578 85.578 0 01-5.66-.646s-.944-.128-3.397-.18l1.652-27.636.801-13.399s1.876-.88 4.017-1.732c0 0 3.757 19.8 11.878 22.29 8.122 2.491 13.333-7.243 13.333-7.243s.401-.104 1.055-.21l.095 1.169s.135.987.333 2.593c.474 3.8 1.314 11.066 1.603 16.908.14 2.79.153 5.256-.058 6.865z" fill="#582279"/>
    <path fill-rule="evenodd" clip-rule="evenodd" d="M65.641 69.998c-5.527 2.255-15.97 6.194-25.713 8.086a85.512 85.512 0 01-5.66-.647s-.944-.127-3.397-.179l1.652-27.636c.486-.511.926-.788 1.285-.774 3.755.154 8.432 4.934 8.432 4.934s2.835 15.17 20.388.442c.49-.412.96-.79 1.407-1.134.477 3.801 1.317 11.067 1.606 16.908z" fill="#42115F"/>
    <path fill-rule="evenodd" clip-rule="evenodd" d="M13.843 33.093l5.192 19.971 17.067-4.043 3.996-3.254-3.99-16.682-4.761-.672-17.504 4.68z" fill="#FDAC2A"/>
    <path opacity=".5" fill-rule="evenodd" clip-rule="evenodd" d="M36.002 28.68l4.094 17.087-3.974 3.24-.022.013-1.685-7.029-3.244-13.532v-.001h.004l.73.034 4.097.188z" fill="#C40"/>
    <path opacity=".5" fill-rule="evenodd" clip-rule="evenodd" d="M22.53 43.03c-2.625-.719-5.309-2.064-7.042-3.642l3.548 13.677 17.066-4.043-1.685-7.03c-3.586 1.388-8.368 2.002-11.886 1.039z" fill="#C40"/>
    <path fill-rule="evenodd" clip-rule="evenodd" d="M20.42 31.26l1.174 4.586c.71-.238 1.421-.491 2.12-.801l-1.12-4.418-2.174.633zM31.647 44.77c-.714.322-1.418.648-2.125.95l1.27 4.761 2.201-.662-1.346-5.049z" fill="#000"/>
    <path fill-rule="evenodd" clip-rule="evenodd" d="M31.32 33.257l-4.766 1.079-.799-2.855 4.773-1.119.792 2.895z" fill="#EAECED"/>
    <path fill-rule="evenodd" clip-rule="evenodd" d="M27.043 33.88l-.299.07-.6-2.109.298-.072.6 2.112z" fill="#000"/>
    <path fill-rule="evenodd" clip-rule="evenodd" d="M27.1 33.866l-.117.028-.601-2.111.118-.028.6 2.11zM27.35 33.808l-.119.027-.6-2.112.118-.028.6 2.113zM28.1 33.633l-.12.028-.599-2.116.119-.028.6 2.116zM28.645 33.504l-.208.048-.599-2.118.208-.05.599 2.12zM28.852 33.456l-.12.028-.598-2.12.12-.028.598 2.12zM29.102 33.398l-.119.027-.598-2.12.12-.029.597 2.122zM29.65 33.268l-.208.05-.598-2.123.209-.05.597 2.123zM29.858 33.22l-.12.029-.597-2.125.12-.028.597 2.124zM30.363 33.102l-.12.028-.597-2.126.12-.03.597 2.128zM30.87 32.983l-.12.029-.597-2.13.12-.029.596 2.13z" fill="#000"/>
    <path fill-rule="evenodd" clip-rule="evenodd" d="M27.084 42.562a1.373 1.373 0 100-2.746 1.373 1.373 0 000 2.746zM30.146 41.347a.738.738 0 100-1.475.738.738 0 000 1.475z" fill="#EDAD8A" opacity=".32"/>
    <path fill-rule="evenodd" clip-rule="evenodd" d="M52.903 47.744s.25.277.867.31c.617.032 3.469.197 3.74-.233.334-.524.06-1.348-.476-1.26-.536.086-4.131 1.183-4.131 1.183z" fill="#42115F"/>
    <path fill-rule="evenodd" clip-rule="evenodd" d="M52.852 46.634l4.254-.171.044 1.118-4.253.17-.045-1.117z" fill="#fff"/>
    <path fill-rule="evenodd" clip-rule="evenodd" d="M10.757 51.447L17.85 78.73l23.317-5.524 5.46-4.445-5.451-22.792-6.506-.917-23.913 6.394z" fill="#FDAC2A"/>
    <path opacity=".5" fill-rule="evenodd" clip-rule="evenodd" d="M41.175 45.97l5.451 22.793-5.43 4.426-.03.018-2.302-9.603-4.432-18.487v-.002h.005l.998.046 5.74.81z" fill="#D95F16"/>
    <path fill-rule="evenodd" clip-rule="evenodd" d="M22.625 65.022c-3.588-.982-7.254-2.82-9.619-4.977l4.846 18.687 23.317-5.524-2.302-9.604c-4.902 1.894-11.434 2.735-16.242 1.418z" fill="#FF920F"/>
    <path fill-rule="evenodd" clip-rule="evenodd" d="M19.742 48.942l1.604 6.266c.97-.326 1.942-.671 2.897-1.095l-1.531-6.035-2.97.864zM35.081 67.401c-.974.439-1.938.884-2.905 1.297l1.736 6.507 3.007-.905-1.838-6.899z" fill="#000"/>
    <path fill-rule="evenodd" clip-rule="evenodd" d="M34.635 51.668l-6.512 1.474-1.09-3.9 6.52-1.528 1.082 3.954z" fill="#EAECED"/>
    <path fill-rule="evenodd" clip-rule="evenodd" d="M28.79 52.522l-.407.095-.822-2.882.408-.097.82 2.884z" fill="#000"/>
    <path fill-rule="evenodd" clip-rule="evenodd" d="M28.868 52.502l-.161.038-.82-2.884.16-.038.821 2.884zM29.21 52.423l-.162.038-.82-2.885.161-.039.82 2.886zM30.234 52.182l-.162.038-.819-2.89.162-.039.819 2.891zM30.981 52.008l-.284.067-.818-2.894.284-.068.818 2.895zM31.262 51.944l-.163.037-.817-2.895.162-.04.818 2.898zM31.606 51.862l-.163.038-.817-2.897.163-.04.817 2.899zM32.354 51.687l-.285.067-.817-2.9.286-.069.816 2.902zM32.637 51.62l-.163.038-.816-2.903.163-.038.816 2.903zM33.328 51.46l-.164.038-.815-2.906.164-.04.815 2.907zM34.018 51.297l-.164.038-.814-2.91.164-.038.814 2.91z" fill="#000"/>
    <path fill-rule="evenodd" clip-rule="evenodd" d="M28.846 64.384a1.876 1.876 0 100-3.751 1.876 1.876 0 000 3.751zM33.03 62.724a1.008 1.008 0 100-2.015 1.008 1.008 0 000 2.015z" fill="#EDAD8A" opacity=".32"/>
    <path fill-rule="evenodd" clip-rule="evenodd" d="M51.672 20.547s.572-2.696.017-4.85c-.554-2.153.129-4.613.129-4.613s4.388.625 4.065 3.92c-.323 3.295-.935 4.044-.935 4.044s-1.038-.104-2.28 1.303c-1.243 1.408-.996.197-.996.197z" fill="#72120C"/>
    <path fill-rule="evenodd" clip-rule="evenodd" d="M57.609 19.43c-1.629 4.295-4.15 5.032-4.15 5.032s.832-.939.554-3.599c-.077-.732-.46-1.921-.972-3.26-1.348-3.515-3.6-8.055-3.6-8.055l-1.074-.905s2.762-1.112 5.41.15c1.924.918 5.46 6.343 3.832 10.638z" fill="#6D378F"/>
    <path fill-rule="evenodd" clip-rule="evenodd" d="M55.616 14.317c-1.035 2.423-2.575 3.286-2.575 3.286-1.348-3.515-3.6-8.056-3.6-8.056l-1.074-.905s2.887-1.342 5.41.15l.047.028a4.39 4.39 0 011.792 5.497z" fill="#fff"/>
    <path fill-rule="evenodd" clip-rule="evenodd" d="M53.539 18.983c-.877-2.122-1.687-3.81-2.73-4.959-1.009-1.11-2.234-1.72-3.95-1.74-2.265-.028-3.898 1.532-4.765 2.629a7.88 7.88 0 00-.714 1.053s-.905-1.828-1.772-3.709a1.47 1.47 0 00.174-.401.513.513 0 00.012-.19c-.117-.818.886-2.017-.033-1.869-.242.04-.568.329-.918.734a.047.047 0 01-.006.008 38.119 38.119 0 01-.34-.81l-.006-.014v-.003a16.226 16.226 0 01-.135-.34c-.153-.397-.26-.717-.3-.92a10.878 10.878 0 01-.164-2.146c.023-1.326.281-2.81 1.06-3.652 1.28-1.381 5.77-1.229 8.92 3.13 3.124 4.324 5.628 13.063 5.667 13.2z" fill="#6D378F"/>
    <path fill-rule="evenodd" clip-rule="evenodd" d="M50.808 14.024c-1.008-1.11-2.234-1.72-3.95-1.74-2.265-.028-3.897 1.532-4.764 2.629a1.125 1.125 0 01-.272-.247 134.585 134.585 0 00-2.04-2.81 409.77 409.77 0 00-.878-1.184l-.06-.139-.346-.8-.006-.014v-.003c-.03-.125-.672-3.008 2.028-4.207 2.759-1.227 7.241 2.095 10.103 8.095.07.145.131.285.185.42z" fill="#582279"/>
    <path fill-rule="evenodd" clip-rule="evenodd" d="M51.592 15.048c-.059-.09-2.804-3.194-5.017-1.454-2.16 1.699-6.01 2.565-7.5-.619a5.353 5.353 0 01-.274-.717 2.966 2.966 0 01-.061-.238c-.205-.976.223-1.728 1.022-2.219 1.298-.797 4.295-.286 6.997 1.02 2.102 1.01 4.025 2.502 4.833 4.227z" fill="#72120C"/>
    <path fill-rule="evenodd" clip-rule="evenodd" d="M45.21 27.954s1.2.104 2.631-.42c0 0 .826-.485.087.858-.738 1.342-2.812 1.634-2.812 1.634l.093-2.072z" fill="#F59D4E"/>
    <path fill-rule="evenodd" clip-rule="evenodd" d="M42.586 19.61c.063-.335-.033-.635-.213-.668-.18-.034-.378.211-.44.547-.063.336.033.636.213.67.18.033.378-.212.44-.548zM46.94 20.207c.063-.337-.033-.636-.213-.67-.18-.034-.378.212-.44.548-.063.336.032.636.213.67.18.033.377-.212.44-.548zM46.403 17.531c-.017-.073.088-.126.173-.142.271-.054.95-.131 1.143.38.16.421-.068.322-.1.256-.047-.103-.176-.32-.322-.403-.335-.194-.855.078-.894-.09zM41.428 17.64c-.063-.076.006-.196.079-.263.23-.213.845-.68 1.358-.19.423.401.136.412.064.352-.111-.093-.375-.274-.569-.29-.449-.038-.788.565-.932.39z" fill="#72120C"/>
    <path fill-rule="evenodd" clip-rule="evenodd" d="M43.946 19.681a8.159 8.159 0 01-.174 1.081c-.035.179-.084.354-.129.53-.044.177-.1.35-.158.525a4.68 4.68 0 01-.101.265.82.82 0 01-.037.076l-.01.02-.006.01c0 .003-.005.01-.003.006l.006-.017a.061.061 0 000-.02v-.007-.004.004l.005.007c.02.024.041.045.066.063a.975.975 0 00.098.064c.07.04.147.078.226.114.329.137.67.241 1.019.312v.019a3.526 3.526 0 01-1.069-.19 2.038 2.038 0 01-.252-.107.756.756 0 01-.225-.16.207.207 0 01-.039-.062.123.123 0 01.008-.113l.015-.03c.01-.019.019-.04.027-.06.034-.083.063-.169.092-.254.116-.342.22-.69.324-1.036.102-.348.201-.696.299-1.044l.018.008zM43.243 24.514c.8.116 2.21.166 3.456-.578a.039.039 0 01.052.011.039.039 0 01-.007.053c-.7.555-2.064 1.354-3.557.711a.104.104 0 01.056-.197zM47.534 21.578a.15.15 0 100-.299.15.15 0 000 .3zM42.157 21.109a.15.15 0 100-.3.15.15 0 000 .3zM48.094 21.827a.106.106 0 100-.212.106.106 0 000 .212zM41.34 20.532a.106.106 0 100-.212.106.106 0 000 .212zM41.39 21.872a.106.106 0 100-.212.106.106 0 000 .212zM48.188 21.323a.106.106 0 100-.212.106.106 0 000 .212zM46.889 22.08a.15.15 0 100-.3.15.15 0 000 .3zM47.658 22.5a.191.191 0 100-.382.191.191 0 000 .382zM41.519 21.271a.19.19 0 100-.381.19.19 0 000 .381zM48.44 22.322a.19.19 0 100-.381.19.19 0 000 .381z" fill="#F59D4E"/>
    <path opacity=".67" fill-rule="evenodd" clip-rule="evenodd" d="M51.593 15.048c-.059-.09-2.805-3.193-5.017-1.453-2.16 1.699-6.01 2.564-7.5-.619a5.36 5.36 0 01-.274-.717 2.988 2.988 0 01-.061-.238c1.11 1.54 3.684 1.68 4.997 1.422 2.312-.455 3.007-2.575 3.022-2.622 2.101 1.011 4.025 2.503 4.833 4.227z" fill="#540200"/>
    <path fill-rule="evenodd" clip-rule="evenodd" d="M44.33 31.084s2.18 2.556 2.674 3.799l.375.698.476-.869s3.679-3.952 4.411-4.36c0 0 .17-.153.426.273.255.426 2.861 2.328 2.861 2.328s-2.112.277-3.491 2.628c-1.38 2.35-1.295 2.367-1.295 2.367s-.714-2.111-2.912-3.237l-.476.868-.45-.839s-1.816.667-3.161 3.462c0 0-.205.103-.41-.817-.204-.92-1.89-4.395-2.52-4.548-.63-.153 1.77-.96 2.708-1.482.75-.415.784-.27.784-.27z" fill="#fff"/>
    <path fill-rule="evenodd" clip-rule="evenodd" d="M48.163 72.57c-.823.795-3.33 1.631-5.048 2.09-.773.207-1.385.337-1.613.352-.732.052-4.109.537-4.892.588-.784.051-1.715-.247-1.58-.826.134-.579 1.363-.425 2.47-.714 1.107-.289 2.623-1.226 3.117-1.737.494-.51 1.652-2.18 1.584-2.571-.07-.39.294-.596-1.035-1.124-1.329-.528-1.708-1.6-1.503-2.385.205-.784.374-.05 1.6.46 1.227.511 3.083.58 3.56 1.397.478.818 1.517 1.19 1.517 1.19s.139.1.346.265c.756.606 2.412 2.11 1.477 3.015z" fill="#FED194"/>
    <path fill-rule="evenodd" clip-rule="evenodd" d="M48.163 72.569c-.823.794-3.33 1.63-5.048 2.09 0 0 1.453-.62 2.552-1.667 1.099-1.047.714-3.398.714-3.398.1-.021.203-.036.306-.042.755.607 2.411 2.112 1.476 3.017z" fill="#F59D4E"/>
    <path fill-rule="evenodd" clip-rule="evenodd" d="M72.57 62.545c-.819 2.454-16.354 8.74-17.834 9.401-1.48.663-2.249 0-2.249 0l-5.16 1.429c.46-1.329-1.29-4.445-1.29-4.445 1-.477 4.368-1.687 4.368-1.687 0-.881.69-2.031 2.99-3.18 1.266-.633 3.878-2.776 5.972-4.574 1.709-1.469 3.072-2.708 3.072-2.708s-.23-1.878-1.533-6.362.345-11.497.345-13.566c0-2.069 1.19-1.762 1.19-1.762s1.648-.447 4.663 5.532c3.015 5.978 6.283 19.471 5.465 21.922z" fill="#fff"/>
    <path opacity=".54" fill-rule="evenodd" clip-rule="evenodd" d="M59.368 59.49c1.709-1.468 3.072-2.707 3.072-2.707s-.23-1.878-1.532-6.362c-1.303-4.484.344-11.497.344-13.566 0-2.069 1.19-1.762 1.19-1.762s-.904 1.086-.702 3.896c.203 2.81 1.042 14.518 5.339 16.454 4.296 1.936-7.711 4.048-7.711 4.048z" fill="#D2D7DB"/>
    <path fill-rule="evenodd" clip-rule="evenodd" d="M62.439 56.783s1.358-.754 2.534-.422c1.175.332 1.873.422 1.873.422s1.073.038-1.43-1.29c-2.504-1.33-3.252-.199-3.252-.199l.275 1.489z" fill="#949A9B"/>
    <path opacity=".54" fill-rule="evenodd" clip-rule="evenodd" d="M50.407 67.245s1.095.988 1.622 2.674c.527 1.687.46 2.027.46 2.027l-5.16 1.428s.315-.731-.248-2.114c0 0 3.023.803 3.466-1.07.443-1.874-.14-2.945-.14-2.945z" fill="#D2D7DB"/>
    <path fill-rule="evenodd" clip-rule="evenodd" d="M50.407 67.245s1.095 1.429.839 2.762-1.007 2.565-1.007 2.565l2.25-.624s.025-2.54-2.082-4.703z" fill="#949A9B"/>
    <path fill-rule="evenodd" clip-rule="evenodd" d="M15.734 70.55s-1.246 2.138.654 5.283c0 0 1.152 1.063 1.428.532.277-.531-.459-.831-.557-1.333-.099-.502-.444-2.184-.715-2.9-.27-.717-.81-1.581-.81-1.581z" fill="#FED194"/>
    <path fill-rule="evenodd" clip-rule="evenodd" d="M50.752 90.086c-.363.605-.861 5.966-1.252 10.909a49.48 49.48 0 01-2.692-.048c.684-3.492 1.53-6.897 2.076-8.407 1.276-3.527 1.867-2.454 1.867-2.454zM69.776 93.783a10.437 10.437 0 01-.137-.448l.138.448z" fill="#59302A"/>
</svg>
