<svg width="20" height="20" viewBox="0 0 20 20" fill="none" xmlns="http://www.w3.org/2000/svg">
    <path fill-rule="evenodd" clip-rule="evenodd" d="M5.248 3.498zm.036.056l1.67 2.632c-.201.19-.422.377-.658.58-.204.173-.42.357-.648.562A1.577 1.577 0 005.34 9.29c1.93 3.363 4.562 4.893 5.74 5.443.709.33 1.48.07 1.909-.471l1.156-1.457.002-.001h.005s.003 0 .005.002c.674.411 1.614.97 2.477 1.444-.155.927-.511 1.467-.904 1.797-.412.347-.946.53-1.54.595-1.188.132-2.393-.225-2.66-.312a23.282 23.282 0 01-3.64-2.359c-1.783-1.408-3.57-3.286-4.253-5.44-.499-1.573-.31-2.68.082-3.444.38-.739.993-1.24 1.565-1.532zM4.68 1.996c.787-.37 1.601.016 1.98.613l1.748 2.754c.353.557.377 1.37-.197 1.928-.246.239-.589.532-.907.806-.175.15-.343.294-.484.419 1.66 2.863 3.881 4.188 4.89 4.673l1.125-1.417a1.683 1.683 0 012.195-.386 63.27 63.27 0 002.42 1.412c.556.305.954.94.841 1.658-.202 1.29-.73 2.229-1.485 2.862-.74.623-1.623.887-2.432.977-1.59.176-3.112-.3-3.39-.393a1.355 1.355 0 01-.19-.08 24.84 24.84 0 01-3.943-2.548c-1.866-1.476-3.97-3.61-4.806-6.242-.613-1.933-.432-3.5.188-4.705.608-1.184 1.593-1.93 2.447-2.33zM12.259 1.743a.836.836 0 00-1.107.41.83.83 0 00.41 1.102c1.94.887 4.158 2.554 5.172 4.854a.836.836 0 001.1.427.83.83 0 00.429-1.097c-1.239-2.81-3.857-4.714-6.004-5.696zm-.618 2.952a.836.836 0 00-1.12.372.83.83 0 00.373 1.116c.784.39 1.327.759 1.766 1.196.438.437.808.978 1.2 1.76a.836.836 0 001.12.372.83.83 0 00.373-1.117c-.442-.882-.908-1.589-1.513-2.192-.605-.603-1.314-1.066-2.2-1.507z" fill="#1C294D" fill-opacity=".5"/>
</svg>
