<svg width="20" height="20" viewBox="0 0 20 20" fill="none" xmlns="http://www.w3.org/2000/svg">
    <path fill-rule="evenodd" clip-rule="evenodd" d="M1.667 10a8.333 8.333 0 1016.666 0 8.333 8.333 0 00-16.666 0zm1.666 0a6.667 6.667 0 1113.334 0 6.667 6.667 0 01-13.334 0zm4.167.834a.833.833 0 10-1.667 0 4.167 4.167 0 008.334 0 .833.833 0 10-1.667 0 2.5 2.5 0 01-5 0zm-.833-2.5c.46 0 .833-.373.833-.834a.833.833 0 001.667 0 1.667 1.667 0 00-3.334 0c0 .46.373.834.834.834zM12.5 7.5a.833.833 0 01-1.667 0 1.667 1.667 0 013.334 0 .833.833 0 01-1.667 0z" fill="#1C294D" fill-opacity=".5"/>
</svg>
