<svg width="40" height="40" viewBox="0 0 40 40" fill="none" xmlns="http://www.w3.org/2000/svg">
    <path d="M39.5 20c0 10.77-8.73 19.5-19.5 19.5S.5 30.77.5 20 9.23.5 20 .5 39.5 9.23 39.5 20z" stroke="#282F36" stroke-opacity=".15"/>
    <path d="M28.98 14.668a.083.083 0 00-.099-.023 6.744 6.744 0 01-1.593.488 3.573 3.573 0 001.243-1.766.084.084 0 00-.123-.1 6.77 6.77 0 01-2.12.828A3.534 3.534 0 0023.737 13c-1.951 0-3.538 1.604-3.538 3.576 0 .239.023.475.068.705a9.72 9.72 0 01-6.946-3.61.084.084 0 00-.139.011 3.604 3.604 0 00-.479 1.797c0 1.097.493 2.122 1.332 2.799a3.358 3.358 0 01-1.234-.404.083.083 0 00-.083 0 .086.086 0 00-.043.073v.046a3.584 3.584 0 002.487 3.416 3.36 3.36 0 01-1.176-.017.085.085 0 00-.097.11 3.545 3.545 0 003.071 2.471 6.75 6.75 0 01-4.053 1.337c-.272 0-.545-.017-.814-.049a.086.086 0 00-.09.056c-.012.038.002.08.035.1A9.792 9.792 0 0017.378 27c6.203 0 9.91-5.094 9.91-10.019 0-.137-.003-.273-.009-.41a7.1 7.1 0 001.707-1.801.086.086 0 00-.006-.102z" fill="#282F36" fill-opacity=".3"/>
</svg>
