<svg width="40" height="40" viewBox="0 0 40 40" fill="none" xmlns="http://www.w3.org/2000/svg">
    <path fill-rule="evenodd" clip-rule="evenodd" d="M20 40c11.046 0 20-8.954 20-20S31.046 0 20 0 0 8.954 0 20s8.954 20 20 20z" fill="#4C75A3"/>
    <path fill-rule="evenodd" clip-rule="evenodd" d="M20 34c7.732 0 14-6.268 14-14S27.732 6 20 6 6 12.268 6 20s6.268 14 14 14z" fill="#fff"/>
    <path d="M20 6C12.268 6 6 12.268 6 20s6.268 14 14 14 14-6.268 14-14S27.732 6 20 6zm7.102 15.514c.652.637 1.342 1.237 1.928 1.94.26.312.504.633.69.995.266.516.026 1.082-.435 1.112h-2.869c-.74.061-1.33-.238-1.827-.744-.397-.404-.765-.835-1.147-1.252a2.678 2.678 0 00-.516-.46c-.391-.254-.731-.176-.955.232-.228.416-.28.877-.302 1.34-.031.675-.235.852-.914.884-1.45.068-2.826-.152-4.104-.883-1.128-.645-2.002-1.555-2.762-2.585-1.482-2.009-2.616-4.213-3.636-6.481-.23-.51-.061-.784.502-.795a79.668 79.668 0 012.808 0c.381.005.633.223.78.583a17.428 17.428 0 001.903 3.527c.207.292.418.584.72.79.332.229.585.153.742-.218.1-.235.143-.487.165-.74.074-.866.083-1.73-.046-2.593-.08-.539-.383-.887-.92-.99-.275-.051-.235-.152-.101-.309.23-.27.447-.438.88-.438h3.24c.511.1.626.33.695.844l.003 3.601c-.006.2.1.79.458.92.286.094.475-.136.646-.317.777-.825 1.331-1.798 1.827-2.805.219-.445.408-.905.591-1.365.136-.34.348-.508.733-.502l3.12.003c.092 0 .186.001.277.017.526.09.67.316.507.83-.256.805-.754 1.476-1.24 2.15-.521.72-1.077 1.416-1.594 2.14-.474.661-.436.994.152 1.57z" fill="#4C75A3"/>
</svg>
