<svg width="10" height="8" viewBox="0 0 10 8" fill="none" xmlns="http://www.w3.org/2000/svg">
<path d="M0.603846 4.34614C0.534615 4.27691 0.5 4.17307 0.5 4.10384C0.5 4.03461 0.534615 3.93076 0.603846 3.86153L1.08846 3.37691C1.22692 3.23845 1.43462 3.23845 1.57308 3.37691L1.60769 3.41153L3.51154 5.45384C3.58077 5.52307 3.68462 5.52307 3.75385 5.45384L8.39231 0.642298H8.42692C8.56538 0.503837 8.77308 0.503837 8.91154 0.642298L9.39615 1.12691C9.53462 1.26538 9.53462 1.47307 9.39615 1.61153L3.85769 7.35768C3.78846 7.42691 3.71923 7.46153 3.61538 7.46153C3.51154 7.46153 3.44231 7.42691 3.37308 7.35768L0.673077 4.44999L0.603846 4.34614Z" fill="#191C21"/>
</svg>
