<svg xmlns="http://www.w3.org/2000/svg" width="300" height="49" viewBox="0 0 300 49">
    <g fill="none">
        <path fill="#6B3E94" d="M23.8.3V31c0 2.2 0 4.8.2 6.5h-4.1l-.2-4.4h-.1c-1.4 2.8-4.4 5-8.6 5-6.2 0-11-5.2-11-12.9 0-8.5 5.2-13.6 11.4-13.6 3.9 0 6.6 1.8 7.7 3.8h.1V.3h4.6zm-4.7 22.2c0-.6-.1-1.4-.2-2-.7-2.9-3.2-5.3-6.7-5.3-4.8 0-7.6 4.2-7.6 9.8 0 5.2 2.6 9.4 7.5 9.4 3.1 0 5.9-2.1 6.7-5.5.2-.6.2-1.3.2-2v-4.4h.1zm28.8 9c0 2.2.1 4.4.4 6.1h-4.1l-.4-3.2h-.2c-1.4 2-4.1 3.8-7.8 3.8-5.1 0-7.7-3.6-7.7-7.3 0-6.1 5.4-9.5 15.2-9.4V21c0-2.1-.6-5.9-5.8-5.9-2.4 0-4.9.7-6.7 1.9l-1.1-3.1c2.1-1.3 5.2-2.2 8.4-2.2 7.8 0 9.7 5.3 9.7 10.4v9.4h.1zm-4.5-6.9c-5-.1-10.7.8-10.7 5.7 0 3 2 4.4 4.3 4.4 3.4 0 5.5-2.1 6.2-4.2.2-.5.2-1 .2-1.5v-4.4z"/>
        <path fill="#00A7CE" d="M65.6 12.2l5 14.2c.8 2.4 1.5 4.5 2 6.6h.2c.6-2.1 1.3-4.2 2.1-6.6l4.9-14.2h4.8l-10 25.4h-4.4l-9.6-25.4h5zm24.3-5.9c-1.7 0-2.9-1.4-2.9-3S88.2.4 90 .4s2.9 1.3 2.9 2.9c.1 1.6-1.1 3-3 3zm-2.2 5.9h4.6v25.4h-4.6V12.2zm11 6.8c0-2.7 0-4.8-.2-6.9h4.1l.3 4.1h.1c1.3-2.4 4.2-4.7 8.4-4.7 3.5 0 9 2.1 9 10.8v15.2h-4.6V22.9c0-4.1-1.5-7.6-5.9-7.6-3 0-5.4 2.1-6.2 4.7-.2.6-.3 1.4-.3 2.2v15.3h-4.6V19h-.1zm45.9 17.7c-1.2.6-3.9 1.5-7.3 1.5-7.6 0-12.6-5.2-12.6-13s5.3-13.5 13.6-13.5c2.7 0 5.1.7 6.4 1.4l-1.1 3.5c-1.1-.6-2.8-1.2-5.4-1.2-5.8 0-9 4.3-9 9.6 0 5.9 3.8 9.5 8.8 9.5 2.6 0 4.4-.6 5.7-1.2l.9 3.4z"/>
        <path fill="#00AFDB" d="M150.9 6.3c-1.7 0-2.9-1.4-2.9-3s1.2-2.9 3-2.9 2.9 1.3 2.9 2.9c0 1.6-1.2 3-3 3zm-2.2 5.9h4.6v25.4h-4.6V12.2z"/>
        <path fill="#646569" d="M186.2 36.9c-1.2.6-3.9 1.5-7.4 1.5-7.8 0-12.8-5.2-12.8-13.2 0-7.9 5.4-13.7 13.8-13.7 2.8 0 5.2.7 6.5 1.4l-1.1 3.6c-1.1-.6-2.9-1.2-5.4-1.2-5.9 0-9.1 4.4-9.1 9.8 0 6 3.8 9.6 8.9 9.6 2.7 0 4.4-.6 5.7-1.2l.9 3.4zm22.3-5.3c0 2.2.1 4.4.4 6.2h-4.2l-.4-3.2h-.1c-1.4 2-4.2 3.8-7.9 3.8-5.2 0-7.9-3.6-7.9-7.4 0-6.2 5.5-9.6 15.5-9.6v-.5c0-2.1-.6-6-5.8-6-2.4 0-5 .7-6.8 1.9l-1.1-3.1c2.1-1.3 5.3-2.2 8.5-2.2 7.9 0 9.8 5.4 9.8 10.5v9.6zm-4.5-7c-5.1-.1-10.9.8-10.9 5.8 0 3.1 2 4.5 4.4 4.5 3.4 0 5.6-2.1 6.3-4.3.2-.5.2-1 .2-1.5v-4.5zm10.7-4.2c0-3.3 0-6-.2-8.4h4.2l.3 4.4h.1c1.9-3.2 4.9-5 9.1-5 6.3 0 11 5.3 11 13.1 0 9.3-5.7 13.8-11.7 13.8-3.5 0-6.4-1.5-7.9-4h-.1v14h-4.7V20.4h-.1zm4.7 6.9c0 .6.1 1.3.2 1.9.8 3.2 3.7 5.5 7 5.5 4.9 0 7.8-4 7.8-10 0-5.2-2.7-9.6-7.6-9.6-3.2 0-6.2 2.2-7.1 5.7-.1.6-.3 1.3-.3 1.9v4.6zm26.5-20c-1.7 0-2.9-1.4-2.9-3s1.2-3 3-3 3 1.3 3 3c-.1 1.6-1.2 3-3.1 3zm-2.3 4.7h4.7v25.7h-4.7V12zm16.8-6.2V12h6.7v3.6h-6.7v13.9c0 3.2.9 5 3.5 5 1.3 0 2-.1 2.7-.3l.2 3.6c-.9.3-2.3.6-4.1.6-2.2 0-3.9-.7-5.1-2-1.3-1.4-1.8-3.7-1.8-6.7v-14h-4V12h4V7.3l4.6-1.5zm28.7 25.8c0 2.2.1 4.4.4 6.2h-4.2l-.4-3.2h-.2c-1.4 2-4.2 3.8-7.9 3.8-5.2 0-7.9-3.6-7.9-7.4 0-6.2 5.5-9.6 15.5-9.6v-.5c0-2.1-.6-6-5.8-6-2.4 0-4.9.7-6.8 1.9l-1.1-3.1c2.1-1.3 5.3-2.2 8.5-2.2 7.9 0 9.8 5.4 9.8 10.5v9.6h.1zm-4.5-7c-5.1-.1-10.9.8-10.9 5.8 0 3.1 2 4.5 4.4 4.5 3.4 0 5.6-2.1 6.3-4.3.2-.5.2-1 .2-1.5v-4.5zM295.3 0h4.7v37.8h-4.7z"/>
    </g>
</svg>
