<svg xmlns="http://www.w3.org/2000/svg" xmlns:xlink="http://www.w3.org/1999/xlink" width="45" height="46" viewBox="0 0 45 46">
    <defs>
        <circle id="${prefix}-6210a" cx="22.5" cy="22.5" r="22.5"/>
    <mask id="${prefix}-6210b" fill="#fff">
            <use xlink:href="#${prefix}-6210a"/>
        </mask></defs>
    <g fill="none" fill-rule="evenodd" transform="translate(0 .5)">
        
        <use fill="#19519B" xlink:href="#${prefix}-6210a"/>
        <path fill="#F8E71C" d="M13.66 45l-2.833 1.49.541-3.156L9.075 41.1l3.169-.46 1.417-2.871 1.417 2.871 3.168.46-2.293 2.235.542 3.156zM5.625 29.732l-2.834 1.49.541-3.156-2.292-2.234 3.168-.46L5.625 22.5l1.417 2.871 3.168.46-2.292 2.235.541 3.156zm8.035-17.678l-2.833 1.49.541-3.156-2.293-2.235 3.169-.46L13.66 4.82l1.417 2.872 3.168.46-2.293 2.235.542 3.155zm16.876-7.233l-2.834 1.49.541-3.155L25.95.92l3.17-.46 1.417-2.872L31.953.46l3.168.46-2.293 2.236.542 3.155z" mask="url(#${prefix}-6210b)"/>
        <circle cx="22.5" cy="22.5" r="22.5"/>
    </g>
</svg>
