<svg xmlns="http://www.w3.org/2000/svg" width="85" height="74" viewBox="0 0 85 74">
    <g fill="none" fill-rule="evenodd">
        <path fill="#DDD" d="M68.106 17.218C68.738 15.932 70 15.932 70 14c-2.526 0-4.422 1.932-5.684 2.574L22 43.61 30.21 70c1.264-1.288 1.264-2.574 1.264-5.149 0-1.29.631-3.862.631-5.15v-4.506c.632-.643.632-1.287.632-2.573v-1.934c.63-1.286 1.263-.642 1.895-1.93 9.473-10.298 22.736-21.885 33.474-31.54"/>
        <path fill="#FEFEFE" d="M1.48 36.03l20.938 7.706L66.83 15.481c1.27-.643 2.539-1.284 3.807-1.284 0 1.926-2.536 3.852-3.807 5.137-9.516 8.349-25.38 20.55-33.627 30.183l7.613 5.78c1.27 0 4.442 3.212 5.077 3.853 1.268.642 6.344 4.494 6.98 5.78 1.267 0 1.267.642 1.902 1.284l6.345 4.496c2.539 1.926 5.075 5.136 9.517 1.926l13.959-64.22c1.903-10.917-3.172-8.99-10.15-6.422l-71.064 28.9c-2.537 1.283-5.075 4.494-1.902 5.137"/>
        <path fill="#DDD" d="M32 70.333l.625.667c1.25 0 2.5-.667 3.75-2L47 59c-.624-.667-3.749-4-5-4l-7.5-6L32 70.333z"/>
    </g>
</svg>
