<svg xmlns="http://www.w3.org/2000/svg" width="16" height="16" viewBox="0 0 16 16">
    <g fill="none" fill-rule="evenodd" transform="translate(1 1)">
        <path fill="#EC231A" d="M7.655 2.902v3.204c0 .34-.017.673-.05 1-.034.326-.077.672-.129 1.038h-.94a26.636 26.636 0 0 1-.13-1.039 9.765 9.765 0 0 1-.05-1V2.903h1.3zm-1.517 7.336c0-.115.021-.225.064-.33a.79.79 0 0 1 .18-.269.882.882 0 0 1 .607-.246.882.882 0 0 1 .602.246.83.83 0 0 1 .25.6.824.824 0 0 1-.522.775.861.861 0 0 1-.33.064.876.876 0 0 1-.608-.24.796.796 0 0 1-.179-.266.855.855 0 0 1-.064-.334z"/>
        <circle cx="7" cy="7" r="7" stroke="#EC231A" stroke-width=".7"/>
    </g>
</svg>
