<svg width="185" height="85" viewBox="0 0 185 85" xmlns="http://www.w3.org/2000/svg">
    <g fill="none">
        <path d="M27.973 56.488l5.565-26.55h9.192c4.198 0 6.297 1.811 6.298 5.435 0 2.81-.696 5.19-2.087 7.137-1.734 2.417-4.273 3.624-7.616 3.624h-2.856l-2.17 10.354h-6.326zm9.49-15.094l1.142.007a3.448 3.448 0 0 0 2.91-1.421 5.191 5.191 0 0 0 .958-3.216c0-1.395-.857-2.093-2.572-2.094l-1.029-.003-1.41 6.727z" fill="#A30C33"/>
        <path d="M50.24 36.593h5.675a100.125 100.125 0 0 1-1.447 15.487c-.005.02.006.04.026.045a.036.036 0 0 0 .044-.025 205.01 205.01 0 0 1 3.354-10.219c.244-.69.89-2.452 1.94-5.288h5.383L56.318 57.93c-1.416 3.402-3.833 5.103-7.25 5.103a12.02 12.02 0 0 1-2.38-.18l.896-3.962h1.122c.419.034.834-.099 1.157-.37.314-.25.494-.634.486-1.037V46.002l-.11-9.409zm22.295 11.5H78.1l-.696 2.848a7.502 7.502 0 0 1-3.02 4.511 9.17 9.17 0 0 1-5.365 1.59c-3.98 0-5.969-1.676-5.969-5.028.08-1.422.289-2.833.623-4.216.317-1.405.634-2.798.952-4.179 1.074-5.053 4.015-7.58 8.825-7.58 3.93 0 5.894 1.688 5.895 5.066a15.977 15.977 0 0 1-.44 3.106H73.34c.209-.84.368-1.692.476-2.551 0-.814-.428-1.22-1.282-1.22-1.123 0-1.806.579-2.05 1.737l-1.355 6.545c-.342 1.603-.513 2.478-.513 2.626 0 .937.427 1.405 1.282 1.405 1.122 0 1.83-.727 2.124-2.182l.512-2.478zm16.697 0h5.565l-.695 2.848a7.5 7.5 0 0 1-3.021 4.511 9.168 9.168 0 0 1-5.365 1.59c-3.979 0-5.968-1.676-5.968-5.028.08-1.422.289-2.833.623-4.216.317-1.405.634-2.798.951-4.179 1.074-5.053 4.016-7.58 8.825-7.58 3.93 0 5.895 1.688 5.895 5.066a15.943 15.943 0 0 1-.44 3.106h-5.565c.21-.84.368-1.692.476-2.551 0-.814-.427-1.22-1.281-1.22-1.123 0-1.807.579-2.051 1.737l-1.354 6.545c-.343 1.603-.514 2.478-.513 2.626 0 .937.427 1.405 1.281 1.405 1.123 0 1.831-.727 2.124-2.182l.513-2.478z" fill="#231F20"/>
        <path fill="#004879" d="M102.828 51.925l-2.35 11.205h-6.325l5.566-26.551h6.324l-2.1 10.02h4.157l2.1-10.02h6.326l-5.565 26.55h-6.326l2.35-11.204z"/>
        <path d="M121.494 53.885l-.659 2.995c-.092.4-.141.81-.146 1.22 0 .962.464 1.443 1.391 1.443 1.342 0 2.209-1.258 2.6-3.772h5.273l-.293 1.442a7.519 7.519 0 0 1-2.948 4.77 9.017 9.017 0 0 1-5.474 1.7c-1.709 0-3.076-.381-4.101-1.146a4.36 4.36 0 0 1-1.794-3.771c0-.74.269-2.367.805-4.881l1.1-4.807a7.772 7.772 0 0 1 3.001-4.77 8.893 8.893 0 0 1 5.383-1.628c1.708 0 3.075.37 4.1 1.11 1.197.838 1.795 2.083 1.796 3.735-.035.71-.133 1.415-.293 2.107-.196.961-.49 2.379-.88 4.253h-8.86zm.77-3.624h3.588c.157-.72.267-1.448.33-2.182 0-.936-.465-1.405-1.392-1.405-1.294 0-2.136 1.196-2.527 3.587zM137.97 69.86l1.765-8.357c-1.49 1.454-2.968 2.181-4.432 2.181a3.158 3.158 0 0 1-2.674-1.331 4.76 4.76 0 0 1-.88-2.921c0-.764.294-2.502.88-5.215.391-1.725.782-3.438 1.172-5.14a10.954 10.954 0 0 1 1.795-4.215c1.075-1.454 2.333-2.181 3.774-2.182 1.68-.1 3.226.922 3.81 2.516l1.819-8.617h5.28l-1.821 8.618c1.292-1.678 2.876-2.517 4.754-2.517 2.17 0 3.254 1.38 3.255 4.142-.04.734-.138 1.464-.293 2.182a1346.38 1346.38 0 0 1-1.868 9.06 7.623 7.623 0 0 1-1.982 3.771c-1.15 1.233-2.397 1.85-3.743 1.85-1.468 0-2.654-.742-3.559-2.224l-1.773 8.398h-5.28zm3.011-22.595a1.75 1.75 0 0 0-1.43.925 4.722 4.722 0 0 0-.66 1.664l-.879 4.437c-.44 2.121-.66 3.255-.66 3.403 0 1.01.381 1.516 1.142 1.516a1.904 1.904 0 0 0 1.51-.85 3.569 3.569 0 0 0 .775-1.623c.048-.271.41-1.986 1.087-5.143.21-.85.355-1.717.434-2.59 0-1.159-.44-1.738-1.319-1.739zm8.788 0a1.83 1.83 0 0 0-1.46.778 3.899 3.899 0 0 0-.804 1.665l-1.052 4.802a24.362 24.362 0 0 0-.477 3.15c-.002.389.127.766.366 1.07.22.308.575.488.951.48 1.025 0 1.708-.825 2.05-2.474.58-2.713 1.062-5.118 1.45-7.215.048-.231.084-.466.108-.702 0-1.035-.378-1.553-1.132-1.554zm17.121.445l-3.222 15.42h-5.576l3.222-15.42h-3.845l.953-4.475h13.254l-.95 4.475zm6.353-4.438h5.577l-1.46 6.952h2.375c3.41 0 5.116 1.504 5.116 4.511 0 2.49-.696 4.513-2.087 6.065-1.391 1.553-3.308 2.33-5.75 2.33h-7.945l4.174-19.858zm3.209 11.09l-.935 4.626h.914c1.952 0 2.928-.999 2.928-2.996 0-1.084-.626-1.626-1.877-1.627l-1.03-.003zM133.72 31.79c-.94-5.625-2.578-15.449-2.578-15.449s-5.116 7.115-9.104 12.686c-3.669 5.124.452 9.942 3.68 10.706 3.224.761 9.042-1.707 8.001-7.943m-5.363.473a2.032 2.032 0 0 1-1.407-1.31 2.06 2.06 0 0 1 .302-1.908c1.198-1.678 2.734-3.815 2.734-3.815l.775 4.644a2.057 2.057 0 0 1-.567 1.846 2.01 2.01 0 0 1-1.837.543" fill="#231F20"/>
        <path d="M0 44.123c0 17.862 23.284 33.25 57.664 40.868l.297-1.388C27.121 75.425 6.823 60.789 6.823 43.99 6.823 24.538 35.9 7.66 75.077.714L75.213 0C32.477 5.96 0 23.647 0 44.123" fill="#004879"/>
    </g>
</svg>
