<svg width="208" height="40" viewBox="0 0 208 40" xmlns="http://www.w3.org/2000/svg">
    <g fill="none">
        <path d="M10.036 21.766c-2.983 0-5.329-.653-7.038-1.958C-.412 17.204 0 11.536 1.42 7.95 3.43 2.819 8.25.453 13.522.453c3.77 0 9.23.928 9.23 5.822 0 6.37-6.746 7.17-11.618 7.17a33.574 33.574 0 0 1-3.766-.196c-.495 3.094 1.476 3.494 4.096 3.532a19.58 19.58 0 0 0 5.681-.943c.51-.14.829-.223 1.125.271l1.461 3.068c.221.378.05.68-.517.932-2.78 1.242-6.217 1.668-9.182 1.668l.004-.011zM35.891 4.777c-1.911 0-3.373.83-3.721 2.797l-1.743 9.471c1.184.189 2.38.292 3.58.31 1.925 0 5.13-.532 5.13-3.106 0-2.075-2.957-1.94-4.378-1.94-.595 0-1.068-.06-.94-.777l.33-1.864c.146-.819.794-.872 1.499-.932 1.199-.098 3.2-.551 3.2-2.136.008-1.468-1.874-1.838-2.957-1.838v.015zM25.398 7.532C26.323 2.057 31.439.366 36.31.366c3.133 0 8.938.792 9.088 5.045.071 2.05-1.42 3.74-3.25 4.427v.192c2.11.604 3.86 1.887 3.86 4.268 0 5.94-7.626 7.453-12.149 7.453-3.2 0-6.81-.26-9.793-1.51-.577-.241-.75-.55-.66-1.162l1.99-11.547zm27.028 21.064c-.109.642-.514.66-1.083.66h-4.749c-.52 0-.955-.018-.846-.66l4.332-25.31a1.57 1.57 0 0 1 1.124-1.203C54.341.894 57.901.528 61.233.528c5.775 0 10.272 2.17 10.118 8.62-.187 7.822-4.995 12.539-12.607 12.539a25.65 25.65 0 0 1-5.036-.464l-1.282 7.373zm7.446-23.211a14.52 14.52 0 0 0-3.53.426l-1.791 10.597c1.202.292 2.436.435 3.672.426 4.273 0 6.311-3.343 6.311-7.336 0-3.004-1.88-4.113-4.662-4.113zm25.994-.155c-2.882 0-4.714 2.027-5.415 4.698-.84 3.204-.682 7.064 3.485 7.064s5.745-4.294 5.745-7.879c0-2.505-1.312-3.883-3.815-3.883zm.61-4.773c5.532 0 10.12 2.358 10.12 8.501 0 8.385-5.622 12.891-13.42 12.808-5.307-.057-10.078-1.985-10.078-8.034a15.23 15.23 0 0 1 .99-5.66C76.181 2.819 81.17.452 86.48.452l-.004.005zm23.176 4.656a18.727 18.727 0 0 0-3.061.193l-2.624 15.332c-.112.66-.476.698-1.083.698h-4.673c-.521 0-1.008-.053-.896-.698l2.875-16.653c.33-1.913 1.48-2.838 3.342-3.143a41.905 41.905 0 0 1 6.593-.378c4.062 0 9.743.513 10.83 5.378a12.515 12.515 0 0 1-.048 4.679l-1.694 10.132c-.113.664-.476.698-1.083.698h-4.711c-.525 0-1.005-.053-.896-.698l1.791-10.476c.207-1.196.349-2.773-.468-3.773-.948-1.2-2.83-1.29-4.194-1.29zm51.887.117c-2.804 0-4.764 1.785-5.674 4.366-1.466 4.151-.791 7.517 4.216 7.434a14.008 14.008 0 0 0 3.249-.464c.558-3.68 1.147-7.385 1.93-11.023a20.68 20.68 0 0 0-2.92-.29 13.21 13.21 0 0 0-.801-.023zm.318-4.736c3.199.01 6.387.361 9.512 1.05.79.173 1.038.456.895 1.24-1.034 5.616-2.005 11.265-2.777 16.925a.865.865 0 0 1-.704.755 36.002 36.002 0 0 1-9.984 1.32c-5.621 0-10.403-1.765-10.403-7.924-.027-1.893.27-3.777.876-5.57 1.95-5.54 7.072-7.796 12.585-7.796zm-17.24 19.551l-.093.559v.03c-.12.641-.464.706-1.075.706h-4.659c-.69 0-.937-.253-.847-.778l2.552-15.022h-5.565c-.633 2.713-1.218 5.449-2.023 8.113-1.5 4.932-4.381 7.272-9.276 8.46-.487.117-1.124.14-1.364-.464l-1.087-2.792c-.277-.717.056-1 .705-1.242 2.863-1.068 4.148-2.29 5.201-5.453.859-2.573 1.338-5.871 2.095-8.91.446-1.784 1.5-2.29 3.25-2.29h12.742c1.735 0 2.623.517 2.308 2.359v.045l-2.863 16.68zm34.618.517c-.12.721-.454.778-1.124.778h-4.606c-.69 0-.982-.257-.896-.778l3.25-18.868c.085-.494.453-.754 1.082-.754h4.614c.633 0 1.012 0 .895.754l-1.083 6.638h8.478l1.124-6.638c.082-.494.472-.754 1.124-.754h4.617c.626 0 1.02 0 .896.754l-3.25 18.868c-.123.717-.393.778-1.082.778h-4.606c-.69 0-.982-.257-.896-.778l1.32-7.8h-8.523l-1.334 7.8zM13.143 5.151c-2.623 0-4.59 1.562-5.134 4.15a26.74 26.74 0 0 0 5.037-.056c1.371-.158 3.106-.517 3.106-2.23.004-1.604-1.795-1.864-3.009-1.864z" fill="#005B95"/>
        <path d="M196.766 28.196c-46.755-8.98-91.15-3.773-138.546 10.966-1.33.415-1.5.932.217.563 43.716-9.48 91.184-12.627 138.16-10.567.949.042 2.32.072 2.317-.166-.004-.237-.431-.475-2.148-.803" fill="#F56920"/>
        <g fill="#005B95">
            <path d="M204.644 1.652a2.918 2.918 0 1 1 0 5.836 2.918 2.918 0 0 1 0-5.836zm0-.368a3.286 3.286 0 1 0 3.286 3.286 3.286 3.286 0 0 0-3.286-3.283v-.003z"/>
            <path d="M205.204 4.673c.122.034.23.106.31.206.067.1.118.212.15.328l.302 1.106a.07.07 0 0 1 0 .051s-.025.026-.055.026h-.331s-.029-.022-.036-.048l-.277-.998a.873.873 0 0 0-.118-.262.571.571 0 0 0-.368-.24 1.179 1.179 0 0 0-.243-.021h-.807v1.51a.07.07 0 0 1 0 .055.088.088 0 0 1-.055 0h-.262a.092.092 0 0 1-.055 0 .07.07 0 0 1 0-.055V3.015a.273.273 0 0 1 .051-.18c.05-.048.12-.07.188-.063h1.168c.15-.002.3.023.442.074a.923.923 0 0 1 .549.527c.05.126.075.261.074.398a.998.998 0 0 1-.155.548.84.84 0 0 1-.446.343l-.025.011zm.195-.888a.792.792 0 0 0-.037-.243.56.56 0 0 0-.121-.21.619.619 0 0 0-.229-.133.847.847 0 0 0-.324-.055h-.95v1.312h.92a.737.737 0 0 0 .557-.184.663.663 0 0 0 .184-.487z"/>
        </g>
    </g>
</svg>
