<svg width="152" height="84" viewBox="0 0 152 84" xmlns="http://www.w3.org/2000/svg" xmlns:xlink="http://www.w3.org/1999/xlink">
    <defs>
        <path id="${prefix}-6910a" d="M0 84h152V.221H0z"/>
    <mask id="${prefix}-6910b" fill="#fff">
            <use xlink:href="#${prefix}-6910a"/>
        </mask></defs>
    <g fill="none" fill-rule="evenodd">
        <path fill="#007CC3" d="M10 23h70v-7H10zm0 43h58v-6H10zm0-11h64V27H10zm71-21l3.255 7H152v-7zm14 50h56v-6H95zm-9-39l16.16 28H152V45z"/>
        <path d="M115.105 83.192l-63.532-.163c-4.893-.011-7.933-5.32-5.464-9.54l33.398-57.1c1.68-2.872 5.837-2.867 7.51.01l33.581 57.246c2.484 4.234-.58 9.56-5.493 9.547" fill="#FFF"/>
        <path d="M115.105 83.192l-63.532-.163c-4.893-.011-7.933-5.32-5.464-9.54l33.398-57.1c1.68-2.872 5.837-2.867 7.51.01l33.581 57.246c2.484 4.234-.58 9.56-5.493 9.547z" stroke="#3E3D40"/>
        <path stroke="#000" stroke-width=".75" d="M83.816 51.913v3.635l-1.247 1.211 2.73 1.515-1.617 2.826v5.553"/>
        <path d="M74.72 41.144h18.124M78.56 37.106v3.904m9.703-3.904v3.904" stroke="#000"/>
        <path fill="#000" d="M81.446 75.551H62.598v-2.234l1.65-1.925h15.783l1.415 1.42z"/>
        <path fill="#AAA8A7" d="M80.025 71.392h-15.81v-2.316l1.005-1.144h14.805z"/>
        
        <path fill="#000" mask="url(#${prefix}-6910b)" d="M65.22 67.954h14.818v-1.486H65.219zm21.077 7.597h18.848v-2.234l-1.651-1.925H87.712l-1.415 1.42z"/>
        <path fill="#AAA8A7" mask="url(#${prefix}-6910b)" d="M87.717 71.392h15.81v-2.316l-1.004-1.144H87.717z"/>
        <path fill="#000" mask="url(#${prefix}-6910b)" d="M87.704 67.954h14.818v-1.486H87.704z"/>
        <path d="M50.532.625l-9.298 19.384 3.032-.404s-5.457 5.048-4.851 4.846c.606-.201 12.734 11.712 12.734 11.712l-14.553-9.288.808 8.884-3.436-5.856-3.032 3.03-.404-3.232-9.096 9.087 6.468-13.933L0 28.086l24.862-9.288L7.479.22l23.85 17.163L33.352 6.48l3.234 9.289L50.532.625z" fill="#DB231B" mask="url(#${prefix}-6910b)"/>
        <path d="M78.358 48.985h11.387" stroke="#000" stroke-width=".75" mask="url(#${prefix}-6910b)"/>
        <path fill="#000" mask="url(#${prefix}-6910b)" d="M82.132 74.529H85.5v-5.788h-3.368z"/>
        <path d="M92.322 65.442h-4.649m-7.63-.051h-4.65" stroke="#AAA8A7" mask="url(#${prefix}-6910b)"/>
        <path d="M87.723 51.576H79.84" stroke="#000" stroke-width=".75" mask="url(#${prefix}-6910b)"/>
        <path d="M88.263 63.76V51.711M79.571 63.76V51.711" stroke="#AAA8A7" stroke-width=".75" mask="url(#${prefix}-6910b)"/>
        <path d="M87.656 51.51c1.347.133 2.156-1.212 2.022-2.356l.808-1.01.472-6.663m-14.149-.405l.674 7 .875 1.145c0 1.75 1.348 2.287 1.752 2.287" stroke="#000" stroke-width=".75" mask="url(#${prefix}-6910b)"/>
    </g>
</svg>
