<svg width="185" height="36" viewBox="0 0 185 36" xmlns="http://www.w3.org/2000/svg">
    <g fill="none">
        <path d="M0 27.602l9.472-.835c.389 1.097.936 1.88 1.639 2.352.7.472 1.638.708 2.81.708 1.278 0 2.27-.269 2.97-.805.548-.4.822-.897.822-1.494 0-.675-.365-1.196-1.09-1.564-.522-.261-1.89-.582-4.107-.965-3.308-.569-5.61-1.092-6.897-1.574-1.287-.48-2.37-1.296-3.253-2.443-.883-1.148-1.323-2.457-1.323-3.925 0-1.606.475-2.99 1.428-4.153.951-1.164 2.262-2.031 3.931-2.605 1.671-.575 3.911-.86 6.719-.86 2.967 0 5.155.22 6.567.663 1.413.441 2.592 1.127 3.534 2.054.945.93 1.73 2.185 2.355 3.77l-9.094.926c-.232-.795-.62-1.38-1.16-1.754-.744-.496-1.641-.748-2.693-.748-1.066 0-1.844.189-2.33.563-.488.376-.73.833-.73 1.369 0 .598.312 1.05.937 1.356.622.307 1.983.584 4.073.829 3.17.353 5.527.843 7.071 1.47 1.545.627 2.728 1.522 3.547 2.685.822 1.162 1.23 2.44 1.23 3.832 0 1.408-.434 2.778-1.3 4.109-.866 1.331-2.232 2.39-4.096 3.18-1.863.786-4.405 1.18-7.618 1.18-4.541 0-7.774-.634-9.702-1.904-1.926-1.27-3.164-3.076-3.71-5.417M38.191 17.33c.899-1.06 2.041-1.59 3.422-1.59 1.302 0 2.396.524 3.282 1.568.881 1.046 1.324 2.635 1.324 4.77 0 2.29-.439 3.954-1.317 4.99-.874 1.036-1.995 1.555-3.359 1.555-1.351 0-2.472-.526-3.363-1.578-.892-1.05-1.336-2.675-1.336-4.874 0-2.166.45-3.78 1.348-4.84zm-6.317 14.61c2.447 1.988 5.648 2.983 9.61 2.983 4.44 0 7.919-1.196 10.433-3.592 2.514-2.395 3.772-5.47 3.772-9.22 0-3.336-1.016-6.143-3.04-8.425-2.523-2.832-6.252-4.247-11.188-4.247-4.319 0-7.745 1.206-10.282 3.616-2.538 2.41-3.807 5.476-3.807 9.195 0 3.995 1.501 7.224 4.502 9.69zm36.998-21.909h4.552v7.004h-4.552v17.888h-9.58V17.035H55.69v-7.004h3.604V8.91c0-1.012.11-2.128.328-3.342.22-1.218.63-2.21 1.235-2.981.605-.773 1.453-1.395 2.543-1.872C64.489.238 66.087 0 68.189 0c1.68 0 4.12.196 7.321.584l-1.078 5.754c-1.147-.186-2.074-.28-2.78-.28-.865 0-1.487.145-1.862.432-.38.289-.646.745-.802 1.369-.079.343-.116 1.067-.116 2.173" fill="#C60D42"/>
        <path d="M85.903 17.413v8.83c0 1.064.102 1.765.306 2.107.315.534.866.798 1.657.798.709 0 1.701-.202 2.98-.61l.71 6.558c-2.387.515-4.613.771-6.682.771-2.402 0-4.172-.303-5.31-.912-1.137-.609-1.977-1.531-2.521-2.772-.546-1.239-.818-3.247-.818-6.023v-8.748H72.68v-7.004h3.546V5.841L85.903.944v16.468" fill="#C60D42"/>
        <path fill="#A7A5A6" d="M93.444 34.923h9.439V.943h-9.44zm14.158 0h9.439v-24.54h-9.439zm0-27.372h9.439V.944h-9.439zm13.214 2.456h8.943v4.056c1.329-1.657 2.677-2.843 4.041-3.557 1.364-.71 3.025-1.067 4.984-1.067 2.647 0 4.72.785 6.217 2.357 1.496 1.572 2.244 4.002 2.244 7.287v15.84h-9.599V21.217c0-1.564-.292-2.671-.871-3.32-.582-.65-1.397-.976-2.45-.976-1.16 0-2.101.438-2.824 1.315-.722.877-1.08 2.449-1.08 4.716v11.97h-9.605V10.004m38.256 10.092c.156-1.467.529-2.571 1.112-3.313.917-1.19 2.14-1.783 3.677-1.783 1.323 0 2.396.393 3.21 1.181.815.789 1.316 2.094 1.506 3.915h-9.505zm19.32 3.388c0-3.223-.544-5.84-1.64-7.85-1.095-2.011-2.689-3.546-4.782-4.605-2.095-1.06-4.948-1.59-8.565-1.59-4.456 0-7.949 1.178-10.48 3.535-2.528 2.357-3.792 5.442-3.792 9.253 0 2.678.629 5.008 1.888 6.991 1.26 1.983 2.846 3.428 4.764 4.34 1.916.909 4.547 1.365 7.89 1.365 3.85 0 6.803-.531 8.864-1.593 2.06-1.063 3.818-2.817 5.275-5.264l-9.53-.835c-.596.735-1.155 1.248-1.673 1.537a5.542 5.542 0 0 1-2.686.689c-1.495 0-2.702-.526-3.63-1.577-.66-.73-1.078-1.842-1.249-3.335h19.346v-1.061zM43.974 4.37c10.95 1.177 15.328 2.114 25.533 4.872 8.512 2.3 22.05 1.301 22.05 1.301V17.6c-5.301.736-16.81.471-26.387-3.026-17.128-6.252-24.88-7.526-34.041-8.183C18.709 5.5 3.923 7.394 3.923 7.394l-.147-1.249s21.41-3.8 40.198-1.776"/>
        <path d="M180.753 1.888A4.244 4.244 0 0 1 185 6.135c0 2.35-1.9 4.248-4.247 4.248a4.243 4.243 0 0 1-4.248-4.248 4.243 4.243 0 0 1 4.248-4.247zm0 7.522a3.282 3.282 0 0 0 3.274-3.275 3.281 3.281 0 0 0-3.274-3.274 3.282 3.282 0 0 0-3.276 3.274 3.282 3.282 0 0 0 3.276 3.275zm.285-5.421c.96 0 1.458.51 1.458 1.174 0 .606-.439.926-.841 1.008v.013c.26.072.427.38.45.451l.7 1.685h-1.15l-.558-1.376a.588.588 0 0 0-.558-.345h-.332v1.72h-1.056V3.992h1.887V3.99zm-.831 1.79h.463c.676 0 .734-.343.734-.52 0-.463-.64-.451-.734-.451h-.463v.973-.002z" fill="#999"/>
    </g>
</svg>
