<svg width="210" height="54" viewBox="0 0 210 54" xmlns="http://www.w3.org/2000/svg" xmlns:xlink="http://www.w3.org/1999/xlink">
    <defs>
        <path id="${prefix}-3110a" d="M0 .416h54.832v52.298H0z"/>
        <path id="${prefix}-3110c" d="M.482.464h8.09v12.93H.482z"/>
        <path id="${prefix}-3110e" d="M0 53.357h209.581V1.06H0z"/>
    <mask id="${prefix}-3110b" fill="#fff">
                <use xlink:href="#${prefix}-3110a"/>
            </mask><mask id="${prefix}-3110d" fill="#fff">
                <use xlink:href="#${prefix}-3110c"/>
            </mask><mask id="${prefix}-3110f" fill="#fff">
            <use xlink:href="#${prefix}-3110e"/>
        </mask></defs>
    <g fill="none" fill-rule="evenodd">
        <g transform="translate(0 .416)">
            
            <path d="M28.346 1.092l5.802 17.874a.978.978 0 0 0 .93.676h18.775c.947 0 1.341 1.214.574 1.772L39.24 32.46a.98.98 0 0 0-.356 1.095l5.801 17.873c.293.903-.737 1.653-1.504 1.095L27.99 41.476a.977.977 0 0 0-1.15 0L11.653 52.523c-.766.558-1.797-.193-1.505-1.095l5.802-17.873a.98.98 0 0 0-.355-1.095L.405 21.414c-.766-.558-.372-1.772.575-1.772h18.774c.424 0 .8-.273.93-.676l5.802-17.874c.293-.902 1.567-.902 1.86 0" fill="#DC3925" mask="url(#${prefix}-3110b)"/>
        </g>
        <path d="M23.12 27.395v-1.896c.876-.04 1.49-.098 1.84-.177.559-.123 1.013-.371 1.364-.742.24-.254.566-.73.652-1.021H29.3v14.174h-2.85V27.395h-3.33z" fill="#FFF"/>
        <path d="M75.51 2.987H67.7a.91.91 0 0 0-.91.911v12.02h2.434V5.192h4.763v10.726h2.435V3.898a.91.91 0 0 0-.91-.91m10.926-.001h-7.18a.91.91 0 0 0-.91.911v11.11c0 .502.408.91.91.91h7.18v-2.055h-5.655v-3.536h5.138V8.344h-5.138V5.192h5.655V2.987zm35.322 18h-7.18a.91.91 0 0 0-.91.911v11.109c0 .503.407.91.91.91h7.18v-2.055h-5.656v-3.536h5.138v-1.982h-5.138v-3.152h5.656v-2.205zm10.275-18h-7.18a.91.91 0 0 0-.91.911v11.11c0 .502.407.91.91.91h7.18v-2.055h-5.656v-3.536h5.138V8.344h-5.138V5.192h5.656V2.987z" fill="#DC3925"/>
        <g transform="translate(201.01 20.345)">
            
            <path d="M8.572.464h-7.18a.91.91 0 0 0-.91.911v11.109c0 .502.408.91.91.91h7.18V11.34H2.917V7.803h5.138V5.821H2.917V2.67h5.655V.463z" fill="#DC3925" mask="url(#${prefix}-3110d)"/>
        </g>
        <path d="M176.672 31.782h-4.56a1.792 1.792 0 0 1-1.791-1.792v-4.892c0-1.09.884-1.975 1.973-1.975h4.378v-2.136h-4.378a4.039 4.039 0 0 0-4.037 4.041v5.76c0 1.729 1.4 3.13 3.127 3.13h5.288v-2.136zm-77.403 13.54h-2.43V40.91h2.43s2.094-.27 2.094 2.262c0 1.446-.722 2.15-2.094 2.15m.237-6.417h-2.668V38.9h-1.524c-.016 0-.03.004-.045.005h-.147v.016a.91.91 0 0 0-.718.89v12.02h2.434v-4.505h2.668c2.42 0 4.145-1.363 4.145-4.013 0-4.199-2.288-4.408-4.145-4.408M93.49 9.41h-2.432V4.997h2.431s2.094-.27 2.094 2.262c0 1.446-.722 2.15-2.094 2.15m.237-6.418h-2.668v-.005h-1.524c-.016 0-.03.004-.045.006h-.147v.016a.911.911 0 0 0-.718.89v12.02h2.434v-4.505h2.668c2.42 0 4.145-1.363 4.145-4.013 0-4.199-2.288-4.408-4.145-4.408m68.479 24.417h-2.431v-4.411h2.43s2.095-.27 2.095 2.261c0 1.447-.722 2.15-2.094 2.15m.237-6.417h-2.668v-.005h-1.525c-.015 0-.03.004-.045.005h-.147v.016a.91.91 0 0 0-.718.89v12.02h2.435v-4.505h2.668c2.419 0 4.145-1.363 4.145-4.013 0-4.199-2.288-4.408-4.145-4.408m-90.788 29.18h-2.431v-3.625h2.431c1.512 0 1.994.473 2.007 1.656.025 2.165-2.007 1.969-2.007 1.969m.88-5.773h-3.311v-3.137h5.355v-2.275h-7.02a.77.77 0 0 0-.769.77v.734c0 .017.008.03.009.047h-.009v10.734a.91.91 0 0 0 .718.89v.016h.146c.016 0 .03.005.046.005h1.524v-.005h3.31s3.228.012 3.228-3.887c0-3.584-2.434-3.892-3.228-3.892m30.084-30.536v-3.536h3.14s1.272.067 1.272 1.754c0 1.708-1.271 1.782-1.271 1.782h-3.14zm0-8.67h3.361s1.111-.002 1.111 1.605c0 1.226-1.11 1.547-1.11 1.547h-3.362V5.192zm6.399 1.063c0-1.688-1.265-3.269-3.151-3.269h-4.772a.91.91 0 0 0-.91.912v11.109c0 .502.408.91.91.91h4.772s3.512 0 3.495-3.555c0-2.43-1.67-3.094-1.67-3.094s1.326-.583 1.326-3.013z" fill="#DC3925"/>
        
        <path fill="#DC3925" mask="url(#${prefix}-3110f)" d="M66.789 33.92h2.44V20.987h-2.44zm6.371-12.933h2.399s-3.08 4.594-3.647 5.377c-.097.16-.545.703-.078 1.326.136.18 4.427 6.23 4.427 6.23H73.59s-3.67-5.233-3.987-5.954c-.141-.323-.244-.66-.244-.959 0-.241.067-.497.167-.746.302-.745 3.635-5.274 3.635-5.274m50.142 12.697h2.44V20.987h-2.44zm7.014-12.697h2.399s-3.081 4.58-3.647 5.364c-.098.161-.546.704-.078 1.326.135.18 4.426 6.007 4.426 6.007h-2.671s-3.67-5.01-3.987-5.73c-.142-.324-.245-.66-.245-.96 0-.24.067-.497.168-.745.302-.747 3.635-5.262 3.635-5.262m48.215 12.933h2.44V20.987h-2.44zm7.014-12.933h2.399s-3.08 4.594-3.647 5.377c-.097.16-.546.703-.077 1.326.135.18 4.426 6.23 4.426 6.23h-2.672s-3.67-5.233-3.987-5.954c-.141-.323-.245-.66-.245-.959 0-.241.068-.497.168-.746.302-.745 3.635-5.274 3.635-5.274m-42.616 0h-9.994v1.97h3.917v10.832h2.463V22.956h3.614zm-36.545.001c.81-.026 1.301.67 1.55 1.29 1.25 3.108 4.116 11.4 4.116 11.4h-2.409l-3.058-9.789s-.083-.325-.266-.325c-.18 0-.25.34-.25.34l-2.86 9.773h-2.382s2.664-8.174 3.873-11.423c.264-.712.776-1.237 1.686-1.266m-12.202 0c.81-.026 1.301.67 1.55 1.29 1.25 3.108 4.116 11.4 4.116 11.4H97.44l-3.06-9.789s-.082-.325-.264-.325c-.181 0-.25.34-.25.34l-2.861 9.773h-2.382s2.664-8.174 3.873-11.423c.265-.712.776-1.237 1.686-1.266m19.702 26.909c0 1.09-.884 1.975-1.973 1.975h-1.995a1.974 1.974 0 0 1-1.973-1.975v-4.799c0-1.09.884-1.974 1.973-1.974h1.995c1.089 0 1.973.883 1.973 1.974v4.799zm-1.973-8.91H110a4.04 4.04 0 0 0-4.038 4.042v4.937A4.04 4.04 0 0 0 110 52.008h1.91a4.04 4.04 0 0 0 4.037-4.042V43.03a4.04 4.04 0 0 0-4.037-4.042zm40.505-9.09c0 1.09-.884 1.975-1.973 1.975h-1.995a1.974 1.974 0 0 1-1.973-1.975v-4.799c0-1.09.884-1.974 1.973-1.974h1.995c1.089 0 1.973.884 1.973 1.974v4.799zm-1.973-8.91h-1.91a4.04 4.04 0 0 0-4.038 4.042v4.937a4.04 4.04 0 0 0 4.038 4.042h1.91a4.04 4.04 0 0 0 4.037-4.042V25.03a4.04 4.04 0 0 0-4.037-4.042zm-64.817 8.91c0 1.09-.883 1.975-1.973 1.975H81.66a1.975 1.975 0 0 1-1.973-1.975v-4.799c0-1.09.883-1.974 1.973-1.974h1.994c1.09 0 1.973.884 1.973 1.974v4.799zm-1.973-8.91h-1.91a4.039 4.039 0 0 0-4.037 4.042v4.937a4.04 4.04 0 0 0 4.038 4.042h1.91a4.04 4.04 0 0 0 4.037-4.042V25.03a4.04 4.04 0 0 0-4.038-4.042zm35.367-9.733c0 1.09-.882 1.975-1.972 1.975h-1.994a1.974 1.974 0 0 1-1.973-1.975V6.455c0-1.09.883-1.974 1.973-1.974h1.994c1.09 0 1.973.884 1.973 1.975v4.798zm-1.972-8.91h-1.91a4.039 4.039 0 0 0-4.037 4.042v4.937a4.04 4.04 0 0 0 4.037 4.043h1.91a4.04 4.04 0 0 0 4.038-4.043V6.386a4.04 4.04 0 0 0-4.038-4.042zm80.322 27.553c0 1.09-.884 1.975-1.974 1.975h-1.994a1.974 1.974 0 0 1-1.973-1.975v-4.799c0-1.09.883-1.975 1.973-1.975h1.994c1.09 0 1.973.884 1.973 1.975v4.799zm-1.973-8.91h-1.91a4.039 4.039 0 0 0-4.037 4.042v4.937a4.04 4.04 0 0 0 4.036 4.042h1.911a4.04 4.04 0 0 0 4.037-4.042V25.03a4.04 4.04 0 0 0-4.037-4.042zM89.622 45.699v2.399a1.974 1.974 0 0 1-1.972 1.975h-1.994a1.974 1.974 0 0 1-1.974-1.975V43.3c0-1.091.884-1.976 1.974-1.976h1.994c1.09 0 1.972.885 1.972 1.976v2.4zm-1.972-6.51h-1.91a4.04 4.04 0 0 0-4.038 4.041v1.299h-1.561v-5.542h-2.435v12.93h2.435v-5.46h1.561v1.711a4.04 4.04 0 0 0 4.038 4.042h1.91a4.04 4.04 0 0 0 4.037-4.042V43.23a4.04 4.04 0 0 0-4.037-4.041z"/>
    </g>
</svg>
