<svg xmlns="http://www.w3.org/2000/svg" width="27" height="31" fill="none" viewBox="0 0 27 31">
    <path fill="#EC231A" fill-rule="evenodd" d="M2.087 13.196c0-6.121 4.958-11.1 11.053-11.1 6.095 0 11.053 4.979 11.053 11.1 0 6.122-4.958 11.102-11.053 11.102-6.095 0-11.053-4.98-11.053-11.102zm22.718 10.265l-1.569-1.583a13.296 13.296 0 0 0 3.115-8.575c0-7.335-5.895-13.281-13.164-13.281-3.24 0-6.206 1.183-8.5 3.142L1.552 0 0 1.564 3.136 4.73a13.298 13.298 0 0 0-3.114 8.575c0 7.335 5.894 13.281 13.165 13.281 3.24 0 6.205-1.184 8.498-3.142l1.57 1.583c1.012 1.022 1.437 1.988 1.165 2.65-.268.654-1.208 1.111-2.283 1.111H3.165V31h18.972c2 0 3.691-.972 4.31-2.478.369-.898.646-2.752-1.642-5.061z" clip-rule="evenodd"/>
</svg>
