<svg width="48" height="48" viewBox="0 0 48 48" xmlns="http://www.w3.org/2000/svg" xmlns:xlink="http://www.w3.org/1999/xlink">
    <defs>
        <path id="${prefix}-6310a" d="M.36 3.326l4.09 3.75 2.993-2.744L3.353.583z"/>
        <linearGradient x1="21.466%" y1="21.462%" x2="78.654%" y2="78.65%" id="${prefix}-6310b">
            <stop stop-color="#FFFFFE" offset="0%"/>
            <stop stop-color="#D02837" offset="100%"/>
        </linearGradient>
        <path id="${prefix}-6310d" d="M.45 3.792l4.09 4.091L7.534 4.89 3.443.798z"/>
        <linearGradient x1="78.553%" y1="78.53%" x2="21.368%" y2="21.358%" id="${prefix}-6310e">
            <stop stop-color="#FFFFFE" offset="0%"/>
            <stop stop-color="#D02837" offset="100%"/>
        </linearGradient>
    <mask id="${prefix}-6310c" fill="#fff">
                <use xlink:href="#${prefix}-6310a"/>
            </mask><mask id="${prefix}-6310f" fill="#fff">
                <use xlink:href="#${prefix}-6310d"/>
            </mask></defs>
    <g fill="none" fill-rule="evenodd">
        <path fill="#D12937" fill-rule="nonzero" d="M0 47.2h48V0H0z"/>
        <path d="M15.747 29.013V18.795l5.191 5.104-5.19 5.114zm10.947-5.114l5.188-5.113v10.229l-5.188-5.116zM11.678 15.35v16.754l4.07 2.583v-.007l8.065-7.945 8.069 7.95v.002l4.068-2.583V15.351l-4.068-2.234v.001l-8.069 7.95-8.066-7.942v-.01l-4.069 2.235z" fill="#FFFFFE" fill-rule="nonzero"/>
        <g transform="translate(18.4 18.4)">
            
            <path fill="url(#${prefix}-6310b)" fill-rule="nonzero" mask="url(#${prefix}-6310c)" d="M.36 3.326l4.09 3.75 2.993-2.744L3.353.583z"/>
        </g>
        <g transform="translate(22.4 21.6)">
            
            <path fill="url(#${prefix}-6310e)" fill-rule="nonzero" mask="url(#${prefix}-6310f)" d="M.45 3.792l4.09 4.091L7.534 4.89 3.443.798z"/>
        </g>
        <path fill="#FFFFFE" fill-rule="nonzero" d="M25.969 19.2l2.831 2.848-6.76 6.752-2.84-2.84z"/>
    </g>
</svg>
