<svg xmlns="http://www.w3.org/2000/svg" xmlns:xlink="http://www.w3.org/1999/xlink" width="150" height="44" viewBox="0 0 150 44">
    <defs>
        <path id="${prefix}-1610a" d="M.315.503h7.38v10.655H.314z"/>
        <path id="${prefix}-1610c" d="M.612.414h7.26v10.744H.613z"/>
        <path id="${prefix}-1610e" d="M0 43.936h149.885V.536H0z"/>
    <mask id="${prefix}-1610b" fill="#fff">
                <use xlink:href="#${prefix}-1610a"/>
            </mask><mask id="${prefix}-1610d" fill="#fff">
                <use xlink:href="#${prefix}-1610c"/>
            </mask><mask id="${prefix}-1610f" fill="#fff">
            <use xlink:href="#${prefix}-1610e"/>
        </mask></defs>
    <g fill="none" fill-rule="evenodd">
        <path fill="#BCBCBB" d="M10.833 21.963h5.417V5.858h-5.417v16.105zm75.841 0h5.417V11.23h-5.417v10.734zM21.666 32.688h5.42v-21.46h-5.42v21.46zm43.339.02h5.417v-21.47h-5.417v21.47zm10.84 5.37h5.416V16.606h-5.416v21.472zM0 32.698h5.417V21.963H0v10.735z"/>
        <path fill="#58B6BE" d="M53.883 43.936h5.878V16.598h-5.878zM32.33 10.74h5.878V0H32.33zm0 33.196h5.878V16.598H32.33zm10.776-.976h5.879V0h-5.879zm10.777-32.22h5.878V0h-5.878zm50.944 22.456v10.74h1.178v-4.737h4.837v-1.026h-4.837v-3.95h5.68v-1.027z"/>
        <g transform="translate(112.494 32.778)">
            
            <path fill="#58B6BE" d="M7.694 7.583c0 1.045-.348 1.904-1.046 2.573-.695.668-1.581 1.003-2.65 1.003-1.07 0-1.952-.335-2.644-1.003C.66 9.487.314 8.628.314 7.583V.503h1.132v6.991c0 .8.23 1.442.695 1.927.466.486 1.086.728 1.857.728.77 0 1.394-.242 1.863-.728.472-.485.705-1.127.705-1.927V.503h1.128v7.08z" mask="url(#${prefix}-1610b)"/>
        </g>
        <path fill="#58B6BE" d="M130.761 43.846h-1.069l-5.612-8.473v8.473h-1.128V33.28h1.066l5.615 8.446V33.28h1.128zm9.087-3.844c.02-.338.03-.816.03-1.436 0-.626-.01-1.104-.03-1.442a5.64 5.64 0 0 0-.187-1.114c-.101-.407-.265-.718-.479-.95-.469-.512-1.16-.771-2.082-.771h-2.3v8.548h2.3c.921 0 1.613-.259 2.082-.77.214-.226.378-.544.48-.95.107-.407.167-.777.186-1.115m1.128-3.071c.023.377.033.92.033 1.635 0 .708-.01 1.252-.033 1.633-.02.373-.104.813-.249 1.31-.15.499-.37.905-.656 1.223-.685.744-1.61 1.115-2.775 1.115h-3.624V33.279h3.624c1.165 0 2.09.374 2.775 1.115.286.318.505.724.656 1.222.145.499.23.938.25 1.315"/>
        <g transform="translate(142.013 32.778)">
            
            <path fill="#58B6BE" d="M7.874 8.159c0 .92-.332 1.652-.994 2.19-.663.54-1.548.809-2.657.809-.79 0-1.473-.108-2.033-.328-.565-.216-1.09-.57-1.578-1.068l.76-.754c.424.426.857.72 1.296.888.443.167.971.252 1.585.252.78 0 1.394-.17 1.84-.51.446-.342.669-.827.669-1.446 0-.577-.174-1.016-.522-1.325-.265-.245-.728-.416-1.38-.517l-1.234-.177c-.83-.132-1.472-.4-1.928-.804C1.153 4.884.88 4.222.88 3.38c0-.897.305-1.618.912-2.156.61-.537 1.433-.81 2.473-.81.666 0 1.24.092 1.732.276.488.18.96.475 1.416.882l-.724.727c-.647-.616-1.47-.918-2.467-.918-.705 0-1.253.174-1.65.535-.393.354-.593.836-.593 1.435 0 .544.157.957.475 1.233.305.265.768.452 1.381.55l1.233.194c.496.079.876.17 1.148.275.272.102.528.262.768.479.593.514.889 1.206.889 2.078" mask="url(#${prefix}-1610d)"/>
        </g>
        
        <path fill="#58B6BE" d="M105.475 27.134h1.52V16.288h-1.52zm11.467-10.844v1.314h-3.415v9.531h-1.518v-9.531h-3.414v-1.315zm1.588 10.844h1.518V16.288h-1.519z" mask="url(#${prefix}-1610f)"/>
    </g>
</svg>
