<svg width="63" height="48" viewBox="0 0 63 48" xmlns="http://www.w3.org/2000/svg">
    <g fill="none">
        <g fill="#9C9E9F">
            <path d="M38.316 42.232v1.03h1.238v.43h-1.238v1.335h1.699v.456h-2.211v-3.706h2.239v.455z"/>
            <path d="M42.306 45.483l-.93-1.488-.86 1.488h-.517l1.105-1.923-1.016-1.786.504.003.801 1.401.883-1.4h.514l-1.164 1.792 1.223 1.913zm3.09-3.569l-.171.432c-.164-.118-.421-.177-.773-.177a.927.927 0 0 0-.792.42c-.198.28-.298.641-.298 1.083 0 .421.102.763.306 1.025a.956.956 0 0 0 .79.394c.35 0 .621-.123.81-.37l.282.388c-.297.291-.679.437-1.146.437-.49 0-.876-.175-1.157-.523-.281-.35-.422-.81-.422-1.382 0-.553.15-1.012.45-1.378.3-.366.689-.549 1.165-.549.407 0 .726.067.956.2zm2.63 3.569v-1.791h-1.638v1.79h-.512v-3.705h.512v1.485h1.638v-1.485h.511v3.706zm3.146 0l-.259-.782H49.52l-.277.782h-.573l1.523-3.757h.135l1.412 3.757h-.567zm-.937-2.785l-.58 1.631h1.112l-.532-1.631zm4.06 2.835l-1.937-2.709v2.659h-.486v-3.706h.205l1.885 2.562v-2.562h.487v3.756h-.154zm3.256-3.498l-.212.417c-.258-.188-.51-.283-.757-.283-.393 0-.702.137-.93.41-.226.273-.34.635-.34 1.085 0 .428.112.773.334 1.034.223.262.526.392.91.392.273 0 .494-.08.663-.243v-.867h-.52v-.43h1.031v1.614a1.547 1.547 0 0 1-.57.277 2.57 2.57 0 0 1-.712.105c-.516 0-.925-.174-1.224-.52-.3-.347-.449-.807-.449-1.383 0-.573.164-1.038.493-1.394.328-.357.771-.536 1.329-.536.39 0 .709.108.954.322zm1.197.197v1.03h1.238v.43h-1.238v1.335h1.699v.456h-2.21v-3.706h2.238v.455z"/>
        </g>
        <path d="M48.914 8.05c-2.206.625-4.506-.634-5.138-2.812-.633-2.179.641-4.453 2.847-5.078 2.204-.625 4.505.635 5.137 2.813.633 2.178-.641 4.452-2.846 5.077z" fill="#004494"/>
        <path d="M47.651 3.475c1.08 5.948-5.058 17.444-15.5 28.131C19.778 44.272 6.048 51.008 1.483 46.651c-2.051-1.96-1.902-5.825.009-10.639-1.26 3.832-1.122 6.856.709 8.443 4.607 3.995 18.184-2.621 30.327-14.779 9.92-9.933 15.813-20.491 15.124-26.2z" fill="#9C9E9F"/>
        <path d="M22.893 31.776c0 1.458-.275 2.738-.824 3.839a7.975 7.975 0 0 1-2.235 2.755c-.94.737-2.04 1.29-3.298 1.662-1.258.372-2.603.558-4.035.558-.969 0-1.869-.079-2.7-.236a15.463 15.463 0 0 1-2.202-.568 9.632 9.632 0 0 1-1.595-.698c-.426-.242-.734-.457-.922-.643-.188-.185-.322-.453-.401-.804-.08-.35-.12-.854-.12-1.512 0-.443.014-.815.044-1.115.029-.3.076-.544.14-.73.066-.185.153-.317.261-.396a.632.632 0 0 1 .38-.118c.202 0 .488.118.857.354s.842.497 1.42.783c.579.286 1.27.546 2.073.782.802.236 1.732.354 2.787.354.695 0 1.316-.082 1.866-.246a4.18 4.18 0 0 0 1.4-.697c.382-.3.675-.672.878-1.115.203-.443.304-.937.304-1.48 0-.63-.174-1.169-.52-1.62a5.16 5.16 0 0 0-1.357-1.2c-.556-.35-1.19-.679-1.898-.987-.709-.307-1.44-.632-2.19-.975a19.981 19.981 0 0 1-2.192-1.169 8.843 8.843 0 0 1-1.898-1.565 7.363 7.363 0 0 1-1.356-2.156c-.347-.829-.52-1.823-.52-2.98 0-1.33.249-2.499.748-3.507a7.202 7.202 0 0 1 2.017-2.509c.846-.665 1.844-1.16 2.994-1.49a13.23 13.23 0 0 1 3.656-.493c.665 0 1.33.05 1.996.15.665.1 1.287.236 1.865.407.579.172 1.092.365 1.54.58.449.214.745.393.89.536.144.142.242.264.293.364.05.1.094.233.13.397.036.164.062.372.076.622.014.25.022.561.022.933 0 .415-.01.764-.033 1.05a3.868 3.868 0 0 1-.108.708c-.051.186-.123.322-.217.408-.094.085-.104.128-.263.128-.16 0-.529-.1-.876-.3-.347-.2-.773-.418-1.28-.654a12.324 12.324 0 0 0-1.757-.644 7.849 7.849 0 0 0-2.191-.29c-.622 0-1.164.076-1.627.226-.464.15-.85.358-1.161.622a2.452 2.452 0 0 0-.694.955 3.087 3.087 0 0 0-.228 1.179c0 .615.17 1.147.51 1.597.34.45.795.851 1.366 1.201.572.351 1.219.68 1.942.987.723.308 1.46.632 2.213.975.752.344 1.49.733 2.213 1.17a8.879 8.879 0 0 1 1.93 1.565 7.292 7.292 0 0 1 1.367 2.144c.346.823.52 1.79.52 2.906zm19.805-11.001c0 1.558-.246 2.938-.738 4.139a7.988 7.988 0 0 1-2.147 3.034c-.94.823-2.094 1.448-3.46 1.876-1.367.43-2.976.644-4.827.644h-2.344v8.857a.594.594 0 0 1-.14.386c-.095.115-.25.207-.467.279a4.578 4.578 0 0 1-.868.171 12.18 12.18 0 0 1-1.388.064 12.3 12.3 0 0 1-1.378-.064 4.569 4.569 0 0 1-.878-.171c-.217-.072-.37-.164-.456-.28a.623.623 0 0 1-.13-.385V14.363c0-.672.177-1.176.531-1.512.355-.336.821-.504 1.4-.504h6.616c.665 0 1.298.025 1.899.075.6.05 1.32.158 2.158.322a9.622 9.622 0 0 1 2.55.911 7.586 7.586 0 0 1 2.201 1.684 7.002 7.002 0 0 1 1.389 2.38c.317.908.477 1.927.477 3.056zm-5.966.407c0-.972-.174-1.772-.52-2.402-.348-.629-.775-1.093-1.281-1.393a4.275 4.275 0 0 0-1.594-.569 12.369 12.369 0 0 0-1.725-.118h-2.43v9.414h2.56c.912 0 1.674-.12 2.289-.364.615-.243 1.117-.582 1.508-1.019.39-.436.686-.957.89-1.565a6.243 6.243 0 0 0 .303-1.984z" fill="#E2001A"/>
        <path d="M62.752 31.776c0 .987-.138 1.88-.413 2.68a7.133 7.133 0 0 1-1.138 2.124 7.318 7.318 0 0 1-1.736 1.586 10.16 10.16 0 0 1-2.224 1.094c-.81.286-1.674.497-2.592.633-.919.136-1.942.203-3.07.203h-7.462c-.477 0-.879-.139-1.204-.418-.326-.279-.489-.732-.489-1.361v-24.19c0-.629.163-1.083.489-1.362.325-.279.727-.418 1.204-.418h7.05c1.721 0 3.179.143 4.372.429 1.193.286 2.198.718 3.015 1.297a5.763 5.763 0 0 1 1.876 2.198c.434.887.651 1.93.651 3.131 0 .673-.086 1.305-.26 1.898a5.651 5.651 0 0 1-.76 1.62 5.616 5.616 0 0 1-1.225 1.286 6.252 6.252 0 0 1-1.66.9c.796.143 1.53.394 2.203.751a6.218 6.218 0 0 1 1.757 1.383 6.433 6.433 0 0 1 1.182 1.984c.289.758.434 1.608.434 2.552zm-7.376-11.688c0-.557-.087-1.058-.26-1.5a2.713 2.713 0 0 0-.782-1.105c-.347-.293-.784-.518-1.312-.676-.529-.157-1.234-.236-2.115-.236H48.02v7.206h3.19c.824 0 1.482-.097 1.974-.29.49-.192.9-.457 1.225-.793.325-.335.567-.729.727-1.18.16-.45.239-.925.239-1.426zm1.453 11.88c0-.643-.108-1.218-.325-1.725a3.298 3.298 0 0 0-.955-1.276c-.42-.343-.954-.608-1.605-.794-.651-.185-1.497-.279-2.538-.279h-3.384v7.892h4.121c.796 0 1.465-.082 2.007-.246a4.107 4.107 0 0 0 1.41-.73 3.34 3.34 0 0 0 .933-1.2c.224-.48.336-1.026.336-1.641z" fill="#E2001A"/>
    </g>
</svg>
