<svg width="200" height="98" viewBox="0 0 200 98" xmlns="http://www.w3.org/2000/svg" xmlns:xlink="http://www.w3.org/1999/xlink">
    <svg width="44" height="44" viewBox="0 0 44 44" y="54" xmlns="http://www.w3.org/2000/svg">
        <path fill="#7DB7B7" d="M16.133 27.867a.735.735 0 0 0 0-1.467.735.735 0 0 0 0 1.467m11-.734a.734.734 0 1 0 1.468-.001.734.734 0 0 0-1.468.001m-11 2.2c-1.213 0-2.2-.987-2.2-2.2s.987-2.2 2.2-2.2c.955 0 1.761.615 2.065 1.467h7.604a2.195 2.195 0 0 1 2.065-1.467c1.213 0 2.2.987 2.2 2.2s-.987 2.2-2.2 2.2a2.196 2.196 0 0 1-2.065-1.466h-7.604a2.197 2.197 0 0 1-2.065 1.466M27.867 5.867a.734.734 0 1 0 .001 1.468.734.734 0 0 0-.001-1.468m-11 .733a.735.735 0 0 0-1.467 0 .735.735 0 0 0 1.467 0m11-2.2c1.213 0 2.2.987 2.2 2.2s-.987 2.2-2.2 2.2a2.197 2.197 0 0 1-2.065-1.467h-7.604A2.197 2.197 0 0 1 16.133 8.8c-1.213 0-2.2-.987-2.2-2.2s.987-2.2 2.2-2.2c.955 0 1.761.615 2.065 1.467h7.604A2.195 2.195 0 0 1 27.867 4.4m14.666 13.933V3.667c0-1.213-.987-2.2-2.2-2.2H3.667c-1.213 0-2.2.987-2.2 2.2v37.4h41.066V22H3.667a.734.734 0 0 1 0-1.467h39.6c.405 0 .733.329.733.734V41.8a.733.733 0 0 1-.733.733h-2.2v.734a.733.733 0 1 1-1.467 0v-.734H4.4v.734a.734.734 0 0 1-1.467 0v-.734h-2.2A.734.734 0 0 1 0 41.8V3.667A3.67 3.67 0 0 1 3.667 0h36.666A3.67 3.67 0 0 1 44 3.667v14.666a.733.733 0 1 1-1.467 0"/>
    </svg>
    <svg width="44" height="44" viewBox="0 0 44 44" x="44" y="54" xmlns="http://www.w3.org/2000/svg">
        <path fill="#7DB7B7" d="M6.815 36.452a.731.731 0 0 0 1.037 0L11 33.304l3.148 3.148a.731.731 0 0 0 1.037 0 .733.733 0 0 0 0-1.037l-3.148-3.148 3.148-3.149a.733.733 0 1 0-1.037-1.036L11 31.23l-3.148-3.148a.733.733 0 1 0-1.037 1.036l3.148 3.149-3.148 3.148a.733.733 0 0 0 0 1.037zM28.6 35.2h8.8a.734.734 0 0 0 0-1.467h-8.8a.734.734 0 0 0 0 1.467zm0-4.4h8.8a.734.734 0 0 0 0-1.467h-8.8a.734.734 0 0 0 0 1.467zm0-20.533a.734.734 0 0 0 0 1.466h8.8a.734.734 0 0 0 0-1.466h-8.8zM11 16.133a.734.734 0 0 0 .733-.733v-3.667H15.4a.734.734 0 0 0 0-1.466h-3.667V6.6a.734.734 0 0 0-1.466 0v3.667H6.6a.734.734 0 0 0 0 1.466h3.667V15.4c0 .405.328.733.733.733zM44 3.667v36.666C44 42.218 42.218 44 40.333 44H3.667C1.782 44 0 42.218 0 40.333V3.667C0 1.782 1.782 0 3.667 0h14.666a.734.734 0 0 1 0 1.467H3.667c-1.07 0-2.2 1.13-2.2 2.2v36.666c0 1.07 1.13 2.2 2.2 2.2h36.666c1.07 0 2.2-1.13 2.2-2.2V3.667c0-1.07-1.13-2.2-2.2-2.2h-17.6v19.066h17.6a.734.734 0 0 1 0 1.467h-17.6v18.333a.734.734 0 0 1-1.466 0V22h-17.6a.734.734 0 0 1 0-1.467h17.6V.733C21.267.33 21.595 0 22 0h18.333C42.218 0 44 1.782 44 3.667z"/>
    </svg>
    <svg width="10" height="12" viewBox="0 0 10 12" x="100" y="54" xmlns="http://www.w3.org/2000/svg">
        <defs>
            <path id="${prefix}-5710b" d="M285.45 11.45h7v7h-7z"/>
            <filter id="${prefix}-5710a" width="128.6%" height="128.6%" x="-7.1%" y="-7.1%" filterUnits="objectBoundingBox">
                <feOffset dx="1" dy="1" in="SourceAlpha" result="shadowOffsetOuter1"/>
                <feColorMatrix in="shadowOffsetOuter1" values="0 0 0 0 0.2 0 0 0 0 0.2 0 0 0 0 0.2 0 0 0 0.87 0"/>
            </filter>
        <mask id="${prefix}-5710d" fill="#fff">
                    <use xlink:href="#${prefix}-5710c"/>
                </mask></defs>
        <g fill="none" fill-rule="evenodd" transform="scale(1 -1) rotate(45 173.385 -338.818)">
            <use fill="#000" filter="url(#${prefix}-5710a)" xlink:href="#${prefix}-5710b"/>
            <use fill="#F9F9F9" xlink:href="#${prefix}-5710b"/>
        </g>
    </svg>
    <svg width="200" height="54" viewBox="0 0 200 54" xmlns="http://www.w3.org/2000/svg">
        <defs>
            <path id="${prefix}-5710c" d="M.03 33.994h73.232V.434H.03z"/>
        <mask id="${prefix}-5710d" fill="#fff">
                    <use xlink:href="#${prefix}-5710c"/>
                </mask></defs>
        <g fill="none" fill-rule="evenodd">
            <path fill="#A8A8A8" d="M13.309 27.095h6.653V7.133H13.31v19.962zm13.307 13.296h6.654V13.787h-6.654V40.39zm79.85-13.296h6.655V13.787h-6.654v13.308zM79.85 40.416h6.654V13.799H79.85v26.617zm13.309 6.654h6.654V20.454h-6.654V47.07zM0 40.404h6.654V27.095H0v13.309z"/>
            <path fill="#EC231A" d="M66.542 53.713h6.654V20.442h-6.654zM39.925 13.787h6.654V.478h-6.654zm0 39.926h6.654V20.442h-6.654zm13.309 0h6.653V.479h-6.653zm13.308-39.926h6.653V.478h-6.653z"/>
            <g transform="translate(126.399 20.006)">
                
                <path fill="#EC231A" d="M67 32.572V20.397h-1.305v13.308h7.567v-1.133h-6.261zm-7.692-7.317c.465 1.14.944 2.369 1.436 3.688h-5.682c.49-1.318.961-2.545 1.418-3.683.456-1.138.926-2.26 1.407-3.365.482 1.1.955 2.22 1.42 3.36zm4.6 8.45a315.476 315.476 0 0 1-1.47-3.873 124.14 124.14 0 0 0-1.318-3.397 185.034 185.034 0 0 0-1.283-3.08 80.47 80.47 0 0 0-1.336-2.958h-1.152c-.47.99-.918 1.977-1.344 2.962a139.521 139.521 0 0 0-2.61 6.473c-.45 1.197-.927 2.488-1.433 3.873h1.364c.237-.65.462-1.277.675-1.88.213-.604.43-1.194.652-1.768h6.502c.194.57.398 1.159.611 1.763.214.603.448 1.232.701 1.885h1.441zM41.937 20.397v1.133H46.2v12.175h1.305V21.53h4.264v-1.133h-9.833zM37.73 33.705h1.305V20.397H37.73v13.308zM30.578 21.55c.499.09.944.247 1.334.47.39.225.705.529.941.913.237.384.355.87.355 1.46 0 .614-.108 1.12-.326 1.517a2.324 2.324 0 0 1-.931.93c-.403.225-.89.378-1.46.462-.57.083-1.207.124-1.911.124h-1.652V21.55c.244-.025.535-.054.874-.086.34-.033.752-.048 1.24-.048.524 0 1.036.045 1.536.134zm-3.333-1.18a9.296 9.296 0 0 0-1.622.278v13.058h1.305V28.56h1.806c.909 0 1.725-.074 2.448-.221.724-.147 1.336-.385 1.835-.71a3.284 3.284 0 0 0 1.152-1.288c.269-.53.403-1.174.403-1.93 0-1.318-.46-2.336-1.382-3.053-.922-.717-2.325-1.075-4.206-1.075-.538 0-1.118.029-1.739.087zm-8.561 4.886c.466 1.14.944 2.369 1.436 3.688h-5.681c.488-1.318.961-2.545 1.417-3.683.457-1.138.926-2.26 1.407-3.365.482 1.1.955 2.22 1.421 3.36zm4.6 8.45a331.884 331.884 0 0 1-1.47-3.873 117.89 117.89 0 0 0-1.319-3.397c-.433-1.068-.86-2.094-1.282-3.08a78.892 78.892 0 0 0-1.337-2.958h-1.151c-.47.99-.917 1.977-1.344 2.962a143.314 143.314 0 0 0-2.61 6.474 439.93 439.93 0 0 0-1.432 3.872h1.363c.238-.65.463-1.277.675-1.88.213-.604.43-1.194.652-1.768h6.502c.195.57.398 1.159.612 1.763.213.603.447 1.232.7 1.885h1.441zm-15.69.202a9.015 9.015 0 0 0 1.979-.48c.218-.084.37-.157.46-.221l-.364-1.114c-.294.167-.727.33-1.297.49-.57.16-1.277.24-2.122.24-.768 0-1.45-.135-2.045-.403a4.12 4.12 0 0 1-1.508-1.153c-.41-.5-.72-1.103-.931-1.815-.211-.71-.317-1.507-.317-2.39 0-.858.106-1.64.317-2.343a5.15 5.15 0 0 1 .95-1.824c.422-.513.944-.91 1.565-1.191.622-.282 1.348-.423 2.18-.423.73 0 1.342.093 1.835.279.493.186.899.374 1.22.567l.422-1.134a3.516 3.516 0 0 0-.5-.26 7.574 7.574 0 0 0-1.863-.528 8.921 8.921 0 0 0-1.363-.095 6.13 6.13 0 0 0-2.324.451 5.594 5.594 0 0 0-1.959 1.335c-.564.589-1.015 1.315-1.354 2.18-.34.864-.51 1.853-.51 2.966 0 1.114.158 2.104.472 2.968.313.864.742 1.59 1.286 2.179a5.445 5.445 0 0 0 1.92 1.345 6.163 6.163 0 0 0 2.392.46c.537 0 1.024-.029 1.46-.086zm8.447-20.164h1.863V.434h-1.863v13.309zM3.855.433v1.614H8.04v11.696h1.863V2.047h4.187V.434H3.855zM.03 13.744h1.863V.432H.03v13.31z" mask="url(#${prefix}-5710d)"/>
            </g>
        </g>
    </svg>
    <svg width="12" height="16" viewBox="0 0 12 16" x="88" y="54" xmlns="http://www.w3.org/2000/svg">
        <path fill="#B3B3B3" d="M.504.173C-1.03 6.663 4.038 14.1 10.64 15.047l.934-2.727-3.11-1.65c-.653-.382-1.74.36-1.74.36-1.793-.87-3.74-3.726-3.903-5.727 0 0 1.087-.741.97-1.49L3.395.317.504.173z"/>
    </svg>
</svg>
