<svg width="200" height="70" viewBox="0 0 200 70" xmlns="http://www.w3.org/2000/svg" xmlns:xlink="http://www.w3.org/1999/xlink">
    <svg width="200" height="54" viewBox="0 0 200 54" xmlns="http://www.w3.org/2000/svg">
        <defs>
            <path id="${prefix}-4410a" d="M.03 33.994h73.232V.434H.03z"/>
        <mask id="${prefix}-4410b" fill="#fff">
                    <use xlink:href="#${prefix}-4410a"/>
                </mask></defs>
        <g fill="none" fill-rule="evenodd">
            <path fill="#A8A8A8" d="M13.309 27.095h6.653V7.133H13.31v19.962zm13.307 13.296h6.654V13.787h-6.654V40.39zm79.85-13.296h6.655V13.787h-6.654v13.308zM79.85 40.416h6.654V13.799H79.85v26.617zm13.309 6.654h6.654V20.454h-6.654V47.07zM0 40.404h6.654V27.095H0v13.309z"/>
            <path fill="#EC231A" d="M66.542 53.713h6.654V20.442h-6.654zM39.925 13.787h6.654V.478h-6.654zm0 39.926h6.654V20.442h-6.654zm13.309 0h6.653V.479h-6.653zm13.308-39.926h6.653V.478h-6.653z"/>
            <g transform="translate(126.399 20.006)">
                
                <path fill="#EC231A" d="M67 32.572V20.397h-1.305v13.308h7.567v-1.133h-6.261zm-7.692-7.317c.465 1.14.944 2.369 1.436 3.688h-5.682c.49-1.318.961-2.545 1.418-3.683.456-1.138.926-2.26 1.407-3.365.482 1.1.955 2.22 1.42 3.36zm4.6 8.45a315.476 315.476 0 0 1-1.47-3.873 124.14 124.14 0 0 0-1.318-3.397 185.034 185.034 0 0 0-1.283-3.08 80.47 80.47 0 0 0-1.336-2.958h-1.152c-.47.99-.918 1.977-1.344 2.962a139.521 139.521 0 0 0-2.61 6.473c-.45 1.197-.927 2.488-1.433 3.873h1.364c.237-.65.462-1.277.675-1.88.213-.604.43-1.194.652-1.768h6.502c.194.57.398 1.159.611 1.763.214.603.448 1.232.701 1.885h1.441zM41.937 20.397v1.133H46.2v12.175h1.305V21.53h4.264v-1.133h-9.833zM37.73 33.705h1.305V20.397H37.73v13.308zM30.578 21.55c.499.09.944.247 1.334.47.39.225.705.529.941.913.237.384.355.87.355 1.46 0 .614-.108 1.12-.326 1.517a2.324 2.324 0 0 1-.931.93c-.403.225-.89.378-1.46.462-.57.083-1.207.124-1.911.124h-1.652V21.55c.244-.025.535-.054.874-.086.34-.033.752-.048 1.24-.048.524 0 1.036.045 1.536.134zm-3.333-1.18a9.296 9.296 0 0 0-1.622.278v13.058h1.305V28.56h1.806c.909 0 1.725-.074 2.448-.221.724-.147 1.336-.385 1.835-.71a3.284 3.284 0 0 0 1.152-1.288c.269-.53.403-1.174.403-1.93 0-1.318-.46-2.336-1.382-3.053-.922-.717-2.325-1.075-4.206-1.075-.538 0-1.118.029-1.739.087zm-8.561 4.886c.466 1.14.944 2.369 1.436 3.688h-5.681c.488-1.318.961-2.545 1.417-3.683.457-1.138.926-2.26 1.407-3.365.482 1.1.955 2.22 1.421 3.36zm4.6 8.45a331.884 331.884 0 0 1-1.47-3.873 117.89 117.89 0 0 0-1.319-3.397c-.433-1.068-.86-2.094-1.282-3.08a78.892 78.892 0 0 0-1.337-2.958h-1.151c-.47.99-.917 1.977-1.344 2.962a143.314 143.314 0 0 0-2.61 6.474 439.93 439.93 0 0 0-1.432 3.872h1.363c.238-.65.463-1.277.675-1.88.213-.604.43-1.194.652-1.768h6.502c.195.57.398 1.159.612 1.763.213.603.447 1.232.7 1.885h1.441zm-15.69.202a9.015 9.015 0 0 0 1.979-.48c.218-.084.37-.157.46-.221l-.364-1.114c-.294.167-.727.33-1.297.49-.57.16-1.277.24-2.122.24-.768 0-1.45-.135-2.045-.403a4.12 4.12 0 0 1-1.508-1.153c-.41-.5-.72-1.103-.931-1.815-.211-.71-.317-1.507-.317-2.39 0-.858.106-1.64.317-2.343a5.15 5.15 0 0 1 .95-1.824c.422-.513.944-.91 1.565-1.191.622-.282 1.348-.423 2.18-.423.73 0 1.342.093 1.835.279.493.186.899.374 1.22.567l.422-1.134a3.516 3.516 0 0 0-.5-.26 7.574 7.574 0 0 0-1.863-.528 8.921 8.921 0 0 0-1.363-.095 6.13 6.13 0 0 0-2.324.451 5.594 5.594 0 0 0-1.959 1.335c-.564.589-1.015 1.315-1.354 2.18-.34.864-.51 1.853-.51 2.966 0 1.114.158 2.104.472 2.968.313.864.742 1.59 1.286 2.179a5.445 5.445 0 0 0 1.92 1.345 6.163 6.163 0 0 0 2.392.46c.537 0 1.024-.029 1.46-.086zm8.447-20.164h1.863V.434h-1.863v13.309zM3.855.433v1.614H8.04v11.696h1.863V2.047h4.187V.434H3.855zM.03 13.744h1.863V.432H.03v13.31z" mask="url(#${prefix}-4410b)"/>
            </g>
        </g>
    </svg>
    <svg width="12" height="16" viewBox="0 0 12 16" y="54" xmlns="http://www.w3.org/2000/svg">
        <path fill="#B3B3B3" d="M.504.173C-1.03 6.663 4.038 14.1 10.64 15.047l.934-2.727-3.11-1.65c-.653-.382-1.74.36-1.74.36-1.793-.87-3.74-3.726-3.903-5.727 0 0 1.087-.741.97-1.49L3.395.317.504.173z"/>
    </svg>
</svg>
