<svg width="200" height="139" viewBox="0 0 200 139" xmlns="http://www.w3.org/2000/svg" xmlns:xlink="http://www.w3.org/1999/xlink">
    <svg width="44" height="44" viewBox="0 0 44 44" x="88" y="95" xmlns="http://www.w3.org/2000/svg">
        <path fill="#7DB7B7" d="M16.133 27.867a.735.735 0 0 0 0-1.467.735.735 0 0 0 0 1.467m11-.734a.734.734 0 1 0 1.468-.001.734.734 0 0 0-1.468.001m-11 2.2c-1.213 0-2.2-.987-2.2-2.2s.987-2.2 2.2-2.2c.955 0 1.761.615 2.065 1.467h7.604a2.195 2.195 0 0 1 2.065-1.467c1.213 0 2.2.987 2.2 2.2s-.987 2.2-2.2 2.2a2.196 2.196 0 0 1-2.065-1.466h-7.604a2.197 2.197 0 0 1-2.065 1.466M27.867 5.867a.734.734 0 1 0 .001 1.468.734.734 0 0 0-.001-1.468m-11 .733a.735.735 0 0 0-1.467 0 .735.735 0 0 0 1.467 0m11-2.2c1.213 0 2.2.987 2.2 2.2s-.987 2.2-2.2 2.2a2.197 2.197 0 0 1-2.065-1.467h-7.604A2.197 2.197 0 0 1 16.133 8.8c-1.213 0-2.2-.987-2.2-2.2s.987-2.2 2.2-2.2c.955 0 1.761.615 2.065 1.467h7.604A2.195 2.195 0 0 1 27.867 4.4m14.666 13.933V3.667c0-1.213-.987-2.2-2.2-2.2H3.667c-1.213 0-2.2.987-2.2 2.2v37.4h41.066V22H3.667a.734.734 0 0 1 0-1.467h39.6c.405 0 .733.329.733.734V41.8a.733.733 0 0 1-.733.733h-2.2v.734a.733.733 0 1 1-1.467 0v-.734H4.4v.734a.734.734 0 0 1-1.467 0v-.734h-2.2A.734.734 0 0 1 0 41.8V3.667A3.67 3.67 0 0 1 3.667 0h36.666A3.67 3.67 0 0 1 44 3.667v14.666a.733.733 0 1 1-1.467 0"/>
    </svg>
    <svg width="44" height="44" viewBox="0 0 44 44" y="95" xmlns="http://www.w3.org/2000/svg">
        <path fill="#7DB7B7" d="M6.815 36.452a.731.731 0 0 0 1.037 0L11 33.304l3.148 3.148a.731.731 0 0 0 1.037 0 .733.733 0 0 0 0-1.037l-3.148-3.148 3.148-3.149a.733.733 0 1 0-1.037-1.036L11 31.23l-3.148-3.148a.733.733 0 1 0-1.037 1.036l3.148 3.149-3.148 3.148a.733.733 0 0 0 0 1.037zM28.6 35.2h8.8a.734.734 0 0 0 0-1.467h-8.8a.734.734 0 0 0 0 1.467zm0-4.4h8.8a.734.734 0 0 0 0-1.467h-8.8a.734.734 0 0 0 0 1.467zm0-20.533a.734.734 0 0 0 0 1.466h8.8a.734.734 0 0 0 0-1.466h-8.8zM11 16.133a.734.734 0 0 0 .733-.733v-3.667H15.4a.734.734 0 0 0 0-1.466h-3.667V6.6a.734.734 0 0 0-1.466 0v3.667H6.6a.734.734 0 0 0 0 1.466h3.667V15.4c0 .405.328.733.733.733zM44 3.667v36.666C44 42.218 42.218 44 40.333 44H3.667C1.782 44 0 42.218 0 40.333V3.667C0 1.782 1.782 0 3.667 0h14.666a.734.734 0 0 1 0 1.467H3.667c-1.07 0-2.2 1.13-2.2 2.2v36.666c0 1.07 1.13 2.2 2.2 2.2h36.666c1.07 0 2.2-1.13 2.2-2.2V3.667c0-1.07-1.13-2.2-2.2-2.2h-17.6v19.066h17.6a.734.734 0 0 1 0 1.467h-17.6v18.333a.734.734 0 0 1-1.466 0V22h-17.6a.734.734 0 0 1 0-1.467h17.6V.733C21.267.33 21.595 0 22 0h18.333C42.218 0 44 1.782 44 3.667z"/>
    </svg>
    <svg width="10" height="12" viewBox="0 0 10 12" x="176" y="95" xmlns="http://www.w3.org/2000/svg">
        <defs>
            <path id="${prefix}-5510b" d="M285.45 11.45h7v7h-7z"/>
            <filter id="${prefix}-5510a" width="128.6%" height="128.6%" x="-7.1%" y="-7.1%" filterUnits="objectBoundingBox">
                <feOffset dx="1" dy="1" in="SourceAlpha" result="shadowOffsetOuter1"/>
                <feColorMatrix in="shadowOffsetOuter1" values="0 0 0 0 0.2 0 0 0 0 0.2 0 0 0 0 0.2 0 0 0 0.87 0"/>
            </filter>
        <mask id="${prefix}-5510d" fill="#fff">
                    <use xlink:href="#${prefix}-5510c"/>
                </mask><mask id="${prefix}-5510f" fill="#fff">
                    <use xlink:href="#${prefix}-5510e"/>
                </mask></defs>
        <g fill="none" fill-rule="evenodd" transform="scale(1 -1) rotate(45 173.385 -338.818)">
            <use fill="#000" filter="url(#${prefix}-5510a)" xlink:href="#${prefix}-5510b"/>
            <use fill="#F9F9F9" xlink:href="#${prefix}-5510b"/>
        </g>
    </svg>
    <svg width="44" height="44" viewBox="0 0 44 44" x="44" y="95" xmlns="http://www.w3.org/2000/svg">
        <g fill="none" fill-rule="evenodd">
            <rect width="43" height="43" x=".5" y=".5" stroke="#D6D6D6" rx="21.5"/>
            <path fill="#B3B3B3" fill-rule="nonzero" d="M29.142 16.414L27.728 15 15 27.728l1.414 1.414 12.728-12.728zM16.414 15L15 16.414l12.728 12.728 1.414-1.414L16.414 15z"/>
        </g>
    </svg>
    <svg width="8" height="18" viewBox="0 0 8 18" x="132" y="95" xmlns="http://www.w3.org/2000/svg">
        <path fill-opacity=".3" d="M7.678 8.661H5.305v8.693H1.71V8.661H0V5.605h1.71V3.628C1.71 2.215 2.38 0 5.338 0L8 .012v2.965H6.068c-.317 0-.763.159-.763.833v1.799h2.688L7.678 8.66z"/>
    </svg>
    <svg width="25" height="16" viewBox="0 0 25 16" x="152" y="54" xmlns="http://www.w3.org/2000/svg">
        <path fill-opacity=".3" d="M.005 7.818C-.148 3.792 3.379.072 7.408.024c2.054-.175 4.051.623 5.607 1.923-.638.7-1.287 1.395-1.98 2.043-1.369-.831-3.015-1.466-4.616-.902C3.84 3.82 2.278 6.867 3.234 9.39c.789 2.637 3.995 4.083 6.508 2.975 1.3-.465 2.157-1.665 2.535-2.955-1.492-.03-2.983-.012-4.473-.053A285.03 285.03 0 0 1 7.799 6.7c2.487-.005 4.977-.011 7.468.01.151 2.174-.169 4.5-1.583 6.245-1.933 2.49-5.508 3.221-8.417 2.243-3.085-1.013-5.33-4.122-5.262-7.38zm20.107-3.356h2.218c.004.744.01 1.489.015 2.23.742.007 1.487.012 2.229.015V8.93c-.742.003-1.487.006-2.229.011-.008.745-.011 1.487-.015 2.232-.741-.003-1.484 0-2.221 0-.008-.745-.008-1.487-.015-2.228-.742-.009-1.488-.012-2.23-.015V6.707c.742-.005 1.483-.008 2.23-.015.003-.741.01-1.486.018-2.23z"/>
    </svg>
    <svg width="200" height="54" viewBox="0 0 200 54" xmlns="http://www.w3.org/2000/svg">
        <defs>
            <path id="${prefix}-5510c" d="M.03 33.994h73.232V.434H.03z"/>
        <mask id="${prefix}-5510d" fill="#fff">
                    <use xlink:href="#${prefix}-5510c"/>
                </mask><mask id="${prefix}-5510f" fill="#fff">
                    <use xlink:href="#${prefix}-5510e"/>
                </mask></defs>
        <g fill="none" fill-rule="evenodd">
            <path fill="#A8A8A8" d="M13.309 27.095h6.653V7.133H13.31v19.962zm13.307 13.296h6.654V13.787h-6.654V40.39zm79.85-13.296h6.655V13.787h-6.654v13.308zM79.85 40.416h6.654V13.799H79.85v26.617zm13.309 6.654h6.654V20.454h-6.654V47.07zM0 40.404h6.654V27.095H0v13.309z"/>
            <path fill="#EC231A" d="M66.542 53.713h6.654V20.442h-6.654zM39.925 13.787h6.654V.478h-6.654zm0 39.926h6.654V20.442h-6.654zm13.309 0h6.653V.479h-6.653zm13.308-39.926h6.653V.478h-6.653z"/>
            <g transform="translate(126.399 20.006)">
                
                <path fill="#EC231A" d="M67 32.572V20.397h-1.305v13.308h7.567v-1.133h-6.261zm-7.692-7.317c.465 1.14.944 2.369 1.436 3.688h-5.682c.49-1.318.961-2.545 1.418-3.683.456-1.138.926-2.26 1.407-3.365.482 1.1.955 2.22 1.42 3.36zm4.6 8.45a315.476 315.476 0 0 1-1.47-3.873 124.14 124.14 0 0 0-1.318-3.397 185.034 185.034 0 0 0-1.283-3.08 80.47 80.47 0 0 0-1.336-2.958h-1.152c-.47.99-.918 1.977-1.344 2.962a139.521 139.521 0 0 0-2.61 6.473c-.45 1.197-.927 2.488-1.433 3.873h1.364c.237-.65.462-1.277.675-1.88.213-.604.43-1.194.652-1.768h6.502c.194.57.398 1.159.611 1.763.214.603.448 1.232.701 1.885h1.441zM41.937 20.397v1.133H46.2v12.175h1.305V21.53h4.264v-1.133h-9.833zM37.73 33.705h1.305V20.397H37.73v13.308zM30.578 21.55c.499.09.944.247 1.334.47.39.225.705.529.941.913.237.384.355.87.355 1.46 0 .614-.108 1.12-.326 1.517a2.324 2.324 0 0 1-.931.93c-.403.225-.89.378-1.46.462-.57.083-1.207.124-1.911.124h-1.652V21.55c.244-.025.535-.054.874-.086.34-.033.752-.048 1.24-.048.524 0 1.036.045 1.536.134zm-3.333-1.18a9.296 9.296 0 0 0-1.622.278v13.058h1.305V28.56h1.806c.909 0 1.725-.074 2.448-.221.724-.147 1.336-.385 1.835-.71a3.284 3.284 0 0 0 1.152-1.288c.269-.53.403-1.174.403-1.93 0-1.318-.46-2.336-1.382-3.053-.922-.717-2.325-1.075-4.206-1.075-.538 0-1.118.029-1.739.087zm-8.561 4.886c.466 1.14.944 2.369 1.436 3.688h-5.681c.488-1.318.961-2.545 1.417-3.683.457-1.138.926-2.26 1.407-3.365.482 1.1.955 2.22 1.421 3.36zm4.6 8.45a331.884 331.884 0 0 1-1.47-3.873 117.89 117.89 0 0 0-1.319-3.397c-.433-1.068-.86-2.094-1.282-3.08a78.892 78.892 0 0 0-1.337-2.958h-1.151c-.47.99-.917 1.977-1.344 2.962a143.314 143.314 0 0 0-2.61 6.474 439.93 439.93 0 0 0-1.432 3.872h1.363c.238-.65.463-1.277.675-1.88.213-.604.43-1.194.652-1.768h6.502c.195.57.398 1.159.612 1.763.213.603.447 1.232.7 1.885h1.441zm-15.69.202a9.015 9.015 0 0 0 1.979-.48c.218-.084.37-.157.46-.221l-.364-1.114c-.294.167-.727.33-1.297.49-.57.16-1.277.24-2.122.24-.768 0-1.45-.135-2.045-.403a4.12 4.12 0 0 1-1.508-1.153c-.41-.5-.72-1.103-.931-1.815-.211-.71-.317-1.507-.317-2.39 0-.858.106-1.64.317-2.343a5.15 5.15 0 0 1 .95-1.824c.422-.513.944-.91 1.565-1.191.622-.282 1.348-.423 2.18-.423.73 0 1.342.093 1.835.279.493.186.899.374 1.22.567l.422-1.134a3.516 3.516 0 0 0-.5-.26 7.574 7.574 0 0 0-1.863-.528 8.921 8.921 0 0 0-1.363-.095 6.13 6.13 0 0 0-2.324.451 5.594 5.594 0 0 0-1.959 1.335c-.564.589-1.015 1.315-1.354 2.18-.34.864-.51 1.853-.51 2.966 0 1.114.158 2.104.472 2.968.313.864.742 1.59 1.286 2.179a5.445 5.445 0 0 0 1.92 1.345 6.163 6.163 0 0 0 2.392.46c.537 0 1.024-.029 1.46-.086zm8.447-20.164h1.863V.434h-1.863v13.309zM3.855.433v1.614H8.04v11.696h1.863V2.047h4.187V.434H3.855zM.03 13.744h1.863V.432H.03v13.31z" mask="url(#${prefix}-5510d)"/>
            </g>
        </g>
    </svg>
    <svg width="152" height="41" viewBox="0 0 152 41" y="54" xmlns="http://www.w3.org/2000/svg">
        <defs>
            <path id="${prefix}-5510e" d="M.023 25.995h55.419V.332H.022z"/>
        <mask id="${prefix}-5510d" fill="#fff">
                    <use xlink:href="#${prefix}-5510c"/>
                </mask><mask id="${prefix}-5510f" fill="#fff">
                    <use xlink:href="#${prefix}-5510e"/>
                </mask></defs>
        <g fill="none" fill-rule="evenodd">
            <path fill="#A8A8A8" d="M10.118 19.995h5.058V5h-5.058v14.995zm10.117 9.988h5.059V9.998h-5.06v19.985zm60.706-9.988H86V9.998h-5.06v9.997zM60.705 30.002h5.06V10.007h-5.06v19.995zM70.824 35h5.058V15.006h-5.058V35zM0 29.992h5.059v-9.997H0v9.997z"/>
            <path fill="#EC231A" d="M51 41h5V16h-5zM30 10h5V0h-5zm0 31h5V16h-5zm11 0h5V0h-5zm10-31h5V0h-5z"/>
            <g transform="translate(96 15)">
                
                <path fill="#EC231A" d="M50.703 24.908v-9.31h-.988v10.176h5.727v-.866h-4.739zm-5.821-5.595c.352.871.714 1.811 1.086 2.82h-4.3c.37-1.008.728-1.946 1.073-2.816a96.77 96.77 0 0 1 1.066-2.574c.364.842.722 1.698 1.075 2.57zm3.481 6.461a242.828 242.828 0 0 1-1.113-2.961 94.042 94.042 0 0 0-.997-2.598c-.328-.817-.652-1.601-.971-2.356a61.855 61.855 0 0 0-1.011-2.261h-.872a71.449 71.449 0 0 0-1.017 2.264 107.316 107.316 0 0 0-1.975 4.95c-.34.916-.702 1.903-1.084 2.962h1.032c.18-.496.35-.976.51-1.438.162-.461.326-.912.494-1.351h4.92c.148.436.302.886.463 1.348.162.461.339.942.53 1.441h1.091zM31.736 15.598v.866h3.227v9.31h.988v-9.31h3.226v-.866h-7.441zm-3.183 10.176h.988V15.598h-.988v10.176zM23.14 16.48c.378.068.714.188 1.01.36.295.171.533.404.712.697.18.294.269.666.269 1.116 0 .47-.083.857-.247 1.16-.165.304-.4.542-.705.713a3.203 3.203 0 0 1-1.105.352 9.9 9.9 0 0 1-1.446.095h-1.25V16.48c.185-.02.405-.042.662-.066a9.94 9.94 0 0 1 .937-.037c.397 0 .785.034 1.163.103zm-2.522-.903c-.47.044-.88.115-1.228.213v9.985h.988V21.84h1.366c.688 0 1.306-.056 1.853-.169.548-.112 1.01-.294 1.389-.543.377-.25.668-.578.872-.984.203-.406.305-.898.305-1.476 0-1.009-.349-1.787-1.046-2.335-.698-.548-1.76-.822-3.183-.822-.407 0-.846.022-1.316.066zm-6.479 3.737c.353.871.715 1.811 1.087 2.82h-4.3c.37-1.008.728-1.946 1.073-2.816.346-.87.7-1.728 1.065-2.574.365.842.723 1.698 1.075 2.57zm3.481 6.461a255.458 255.458 0 0 1-1.112-2.961 92.897 92.897 0 0 0-.998-2.598c-.328-.817-.652-1.601-.97-2.356a60.643 60.643 0 0 0-1.012-2.261h-.871a73.115 73.115 0 0 0-1.017 2.264 105.563 105.563 0 0 0-1.975 4.95c-.34.916-.702 1.903-1.084 2.962h1.031c.18-.496.35-.976.511-1.438.161-.461.325-.912.493-1.351h4.92c.148.436.302.886.464 1.348.161.461.338.942.53 1.441h1.09zm-11.873.155a6.759 6.759 0 0 0 1.497-.368c.165-.063.281-.119.35-.168l-.277-.852c-.223.127-.55.253-.981.375-.431.122-.967.183-1.606.183-.581 0-1.097-.103-1.548-.308-.45-.206-.83-.5-1.141-.882a3.921 3.921 0 0 1-.705-1.388 6.47 6.47 0 0 1-.24-1.828c0-.655.08-1.253.24-1.791.16-.538.4-1.004.72-1.395a3.243 3.243 0 0 1 1.184-.91c.47-.216 1.02-.324 1.65-.324.552 0 1.015.071 1.388.213.373.142.68.286.923.434l.32-.867a2.65 2.65 0 0 0-.379-.199 5.694 5.694 0 0 0-1.41-.404 6.682 6.682 0 0 0-1.031-.072c-.61 0-1.197.114-1.759.344-.562.23-1.056.57-1.482 1.021-.427.45-.768 1.006-1.025 1.667-.257.661-.385 1.417-.385 2.269 0 .852.118 1.608.356 2.269.237.66.562 1.216.974 1.666.412.45.896.793 1.453 1.029.557.234 1.16.352 1.81.352a8.47 8.47 0 0 0 1.104-.066zm6.392-15.42h1.41V.332h-1.41V10.51zM2.917.332v1.234h3.168v8.943h1.41V1.566h3.169V.332H2.917zM.023 10.509h1.41V.332H.023v10.177z" mask="url(#${prefix}-5510f)"/>
            </g>
        </g>
    </svg>
    <svg width="12" height="16" viewBox="0 0 12 16" x="132" y="113" xmlns="http://www.w3.org/2000/svg">
        <path fill="#B3B3B3" d="M.504.173C-1.03 6.663 4.038 14.1 10.64 15.047l.934-2.727-3.11-1.65c-.653-.382-1.74.36-1.74.36-1.793-.87-3.74-3.726-3.903-5.727 0 0 1.087-.741.97-1.49L3.395.317.504.173z"/>
    </svg>
    <svg width="18" height="18" viewBox="0 0 18 18" x="140" y="95" xmlns="http://www.w3.org/2000/svg">
        <g fill="none" fill-rule="evenodd">
            <path d="M-10-10h38v38h-38z"/>
            <path fill="#B3B3B3" d="M12.502 11h-.794l-.276-.274A6.47 6.47 0 0 0 13 6.5 6.5 6.5 0 1 0 6.5 13a6.47 6.47 0 0 0 4.225-1.566l.276.274v.792l4.998 4.991L17.49 16l-4.988-5zM6.5 11a4.5 4.5 0 1 1 0-9 4.5 4.5 0 0 1 0 9z"/>
        </g>
    </svg>
    <svg width="21" height="17" viewBox="0 0 21 17" x="152" y="70" xmlns="http://www.w3.org/2000/svg">
        <path fill-opacity=".3" fill-rule="evenodd" d="M10.795 13.322c-.777.757-1.547 1.501-2.31 2.252-.267.262-.567.408-.95.387-.262-.013-.408-.128-.488-.376-.585-1.815-1.178-3.625-1.76-5.441-.056-.176-.14-.262-.318-.317A378.31 378.31 0 0 1 .845 8.54a2.345 2.345 0 0 1-.607-.28c-.282-.19-.323-.502-.07-.727.233-.206.512-.387.802-.501 1.683-.667 3.376-1.313 5.066-1.965L18.902.101c.816-.315 1.443.129 1.358 1.01-.054.565-.2 1.12-.318 1.677-.932 4.397-1.864 8.795-2.8 13.19-.222 1.045-.956 1.317-1.815.684-1.438-1.06-2.876-2.125-4.314-3.187-.068-.05-.14-.098-.218-.153zm-3.23 1.336a.443.443 0 0 1 .049-.013c.009-.042.022-.082.025-.123.093-.997.19-1.993.27-2.991a.732.732 0 0 1 .262-.53c1.326-1.186 2.644-2.38 3.965-3.57 1.462-1.32 2.925-2.637 4.382-3.96.09-.082.128-.221.19-.334-.138-.015-.285-.07-.41-.038-.17.044-.33.143-.482.238-3.227 2.033-6.451 4.069-9.68 6.097-.183.115-.217.212-.147.413.238.683.454 1.373.679 2.062l.897 2.749z"/>
    </svg>
    <svg width="18" height="14" viewBox="0 0 18 14" x="173" y="70" xmlns="http://www.w3.org/2000/svg">
        <path fill-opacity=".3" d="M17.226 1.658a7.064 7.064 0 0 1-2.03.556A3.554 3.554 0 0 0 16.753.259a7.105 7.105 0 0 1-2.245.857A3.534 3.534 0 0 0 8.484 4.34 10.034 10.034 0 0 1 1.199.646a3.534 3.534 0 0 0 1.093 4.72 3.52 3.52 0 0 1-1.6-.443v.045a3.536 3.536 0 0 0 2.834 3.464 3.522 3.522 0 0 1-1.595.062 3.539 3.539 0 0 0 3.302 2.455 7.088 7.088 0 0 1-4.39 1.512c-.286 0-.568-.016-.843-.05A10.002 10.002 0 0 0 5.417 14c6.5 0 10.057-5.386 10.057-10.056 0-.154-.004-.306-.01-.457a7.174 7.174 0 0 0 1.762-1.83z"/>
    </svg>
    <svg width="20" height="11" viewBox="0 0 20 11" x="177" y="54" xmlns="http://www.w3.org/2000/svg">
        <path fill-opacity=".3" fill-rule="evenodd" d="M10.587 10.954s.347-.038.525-.23c.163-.176.159-.506.159-.506s-.023-1.547.695-1.774c.708-.225 1.615 1.494 2.58 2.155.728.5 1.281.39 1.281.39l2.574-.035s1.348-.083.708-1.142c-.052-.088-.371-.784-1.914-2.216-1.614-1.498-1.399-1.256.547-3.848 1.185-1.579 1.658-2.542 1.51-2.955-.141-.394-1.012-.29-1.012-.29l-2.9.019s-.215-.03-.374.065c-.156.093-.256.312-.256.312s-.459 1.222-1.071 2.26c-1.291 2.193-1.807 2.308-2.018 2.172-.491-.318-.368-1.275-.368-1.955 0-2.125.322-3.01-.628-3.239C10.311.06 10.078.01 9.273.003 8.237-.01 7.362.005 6.866.248c-.33.161-.584.522-.43.542.192.026.627.118.857.431.296.404.286 1.311.286 1.311s.171 2.502-.399 2.812c-.39.214-.926-.222-2.078-2.211C4.512 2.114 4.068.988 4.068.988S3.982.778 3.83.666c-.187-.137-.446-.18-.446-.18L.628.504S.214.515.062.695c-.134.16-.01.491-.01.491s2.156 5.047 4.599 7.589c2.24 2.332 4.783 2.179 4.783 2.179h1.153z"/>
    </svg>
    <svg width="18" height="13" viewBox="0 0 18 13" x="158" y="95" xmlns="http://www.w3.org/2000/svg">
        <path fill-opacity=".3" d="M17.578 10.464c-.22.952-.997 1.653-1.934 1.758-2.218.248-4.464.249-6.7.248-2.235.001-4.48 0-6.699-.248-.937-.105-1.715-.806-1.933-1.758C0 9.11 0 7.63 0 6.235s.004-2.874.315-4.23c.219-.95.997-1.653 1.933-1.757C4.467 0 6.712-.002 8.948 0c2.236-.001 4.481 0 6.7.248.936.104 1.715.806 1.933 1.758.312 1.355.31 2.834.31 4.23 0 1.394-.002 2.873-.313 4.228zM7.112 3.301v5.717l4.951-2.859-4.951-2.858z"/>
    </svg>
</svg>
