<svg xmlns="http://www.w3.org/2000/svg" width="29" height="24" fill="none" viewBox="0 0 29 24">
    <path fill="#BAD5EC" fill-rule="evenodd" d="M10.967 22.385c-.862 0-.715-.324-1.013-1.14L7.42 12.949 26.935 1.438" clip-rule="evenodd"/>
    <path fill="#90BBD5" fill-rule="evenodd" d="M10.968 22.385c.665 0 .96-.303 1.33-.662l3.549-3.43-4.426-2.654" clip-rule="evenodd"/>
    
    <g mask="url(#${prefix}-7210a)">
        <path fill="url(#b)" fill-rule="evenodd" d="M27.042.159L1.354 9.932c-1.753.694-1.743 1.66-.32 2.09l6.593 2.03 15.261-9.5c.72-.432 1.382-.2.84.275L11.36 15.838l10.747 7.835c.392.214.75.324 1.064.327h.031c.653-.008 1.118-.482 1.322-1.45L28.9 2.208C29.257.797 28.61 0 27.74 0c-.223 0-.46.052-.698.159z" clip-rule="evenodd"/>
    </g>
    <defs>
        <linearGradient id="b" x1="12.373" x2="16.453" y1="13.416" y2="22.827" gradientUnits="userSpaceOnUse">
            <stop stop-color="#EBEBEB"/>
            <stop offset="1" stop-color="#E3E3E3"/>
        </linearGradient>
    <mask id="${prefix}-7210a" width="29" height="24" x="0" y="0" maskUnits="userSpaceOnUse">
        <path fill="#fff" fill-rule="evenodd" d="M27.042.159L1.354 9.932c-1.753.694-1.743 1.66-.32 2.09l6.593 2.03 15.261-9.5c.72-.432 1.382-.2.84.275L11.36 15.838l10.747 7.835c.392.214.75.324 1.064.327h.031c.653-.008 1.118-.482 1.322-1.45L28.9 2.208C29.257.797 28.61 0 27.74 0c-.223 0-.46.052-.698.159z" clip-rule="evenodd"/>
    </mask></defs>
</svg>
