<svg xmlns="http://www.w3.org/2000/svg" width="49" height="48" viewBox="0 0 49 48">
    <g fill="none" fill-rule="evenodd">
        <circle cx="24.806" cy="24" r="24" fill="#CA1820"/>
        <path fill="#282A7E" d="M.806 24c0-13.255 10.745-24 24-24s24 10.745 24 24h-48z"/>
        <path fill="#FFF" d="M.777 28.813h48.057v4.954H.777zm2.943 9.57h42.173v4.954H3.72zm8.116-22.161l-2.699 1.419.516-3.005-2.184-2.129 3.017-.438 1.35-2.734 1.35 2.734 3.017.438-2.184 2.129.516 3.005zm13.26 0l-2.699 1.419.516-3.005-2.184-2.129 3.018-.438 1.349-2.734 1.35 2.734 3.017.438-2.184 2.129.516 3.005zm14.107 0l-2.7 1.419.516-3.005-2.183-2.129 3.017-.438 1.35-2.734 1.349 2.734 3.017.438-2.183 2.129.515 3.005z"/>
    </g>
</svg>
