<svg xmlns="http://www.w3.org/2000/svg" xmlns:xlink="http://www.w3.org/1999/xlink" width="97" height="97" viewBox="0 0 97 97">
    <defs>
        <path id="${prefix}-2010a" d="M.001 1.036h96.74v96.742H.001z"/>
    <mask id="${prefix}-2010b" fill="#fff">
                <use xlink:href="#${prefix}-2010a"/>
            </mask></defs>
    <g fill="none" fill-rule="evenodd">
        <g transform="translate(.111 -.814)">
            
            <path fill="#E2231A" d="M96.741 49.406c0 26.714-21.655 48.374-48.37 48.374C21.656 97.78 0 76.12 0 49.406c0-26.713 21.656-48.37 48.37-48.37 26.715 0 48.37 21.657 48.37 48.37" mask="url(#${prefix}-2010b)"/>
        </g>
        <path fill="#FFF" d="M48.482 4.821c-24.175 0-43.77 19.598-43.77 43.771 0 24.176 19.595 43.772 43.77 43.772 24.174 0 43.771-19.596 43.771-43.772 0-24.173-19.597-43.77-43.77-43.77m0 1.11c23.521 0 42.66 19.138 42.66 42.66 0 23.525-19.139 42.66-42.66 42.66-23.525 0-42.66-19.135-42.66-42.66 0-23.522 19.135-42.66 42.66-42.66"/>
        <path fill="#FFF" d="M39.476 33.828v29.53l23.566-14.765z"/>
    </g>
</svg>
