<svg width="20" height="20" viewBox="0 0 20 20" fill="none" xmlns="http://www.w3.org/2000/svg">
<path fill-rule="evenodd" clip-rule="evenodd" d="M2.49996 1.66699C2.03972 1.66699 1.66663 2.04009 1.66663 2.50033V17.5003C1.66663 17.9606 2.03972 18.3337 2.49996 18.3337H4.99996C5.4602 18.3337 5.83329 17.9606 5.83329 17.5003V5.83366H9.16663V7.50033H8.33329C7.41282 7.50033 6.66663 8.24652 6.66663 9.16699V14.167C6.66663 15.0875 7.41282 15.8337 8.33329 15.8337H16.6666C17.5871 15.8337 18.3333 15.0875 18.3333 14.167V9.16699C18.3333 8.24652 17.5871 7.50033 16.6666 7.50033H15.8333V5.83366H17.5C17.9602 5.83366 18.3333 5.46056 18.3333 5.00033V2.50033C18.3333 2.04009 17.9602 1.66699 17.5 1.66699H2.49996ZM15 4.16699H16.6666V3.33366H3.33329V16.667H4.16663V5.00033C4.16663 4.54009 4.53972 4.16699 4.99996 4.16699H9.99996H15ZM14.1666 5.83366V7.50033H10.8333V5.83366H14.1666ZM9.99996 14.167H15H16.6666V12.5003V10.8337V9.16699H15H9.99996H8.33329V10.8337V12.5003V14.167H9.99996Z" fill="#1C294D" fill-opacity="0.5"/>
</svg>
