<svg width="40" height="40" viewBox="0 0 40 40" fill="none" xmlns="http://www.w3.org/2000/svg">
<path fill-rule="evenodd" clip-rule="evenodd" d="M0 5C0 2.23858 2.23858 0 5 0H35C37.7614 0 40 2.23858 40 5V35C40 37.7614 37.7614 40 35 40H5C2.23858 40 0 37.7614 0 35V5Z" fill="white" fill-opacity="0.85"/>
<path fill-rule="evenodd" clip-rule="evenodd" d="M16.9107 14.4111C17.2361 14.0856 17.7638 14.0856 18.0892 14.4111L23.0892 19.4111C23.4147 19.7365 23.4147 20.2641 23.0892 20.5896L18.0892 25.5896C17.7638 25.915 17.2361 25.915 16.9107 25.5896C16.5853 25.2641 16.5853 24.7365 16.9107 24.4111L21.3214 20.0003L16.9107 15.5896C16.5853 15.2641 16.5853 14.7365 16.9107 14.4111Z" fill="#1C294D"/>
</svg>
