<svg width="40" height="40" viewBox="0 0 40 40" fill="none" xmlns="http://www.w3.org/2000/svg">
<path fill-rule="evenodd" clip-rule="evenodd" d="M40 5C40 2.23858 37.7614 0 35 0H5C2.23858 0 0 2.23858 0 5V35C0 37.7614 2.23858 40 5 40H35C37.7614 40 40 37.7614 40 35V5Z" fill="white" fill-opacity="0.85"/>
<path fill-rule="evenodd" clip-rule="evenodd" d="M23.0893 14.4111C22.7639 14.0856 22.2362 14.0856 21.9108 14.4111L16.9108 19.4111C16.5853 19.7365 16.5853 20.2641 16.9108 20.5896L21.9108 25.5896C22.2362 25.915 22.7639 25.915 23.0893 25.5896C23.4147 25.2641 23.4147 24.7365 23.0893 24.4111L18.6786 20.0003L23.0893 15.5896C23.4147 15.2641 23.4147 14.7365 23.0893 14.4111Z" fill="#2A3D48" fill-opacity="0.5"/>
</svg>
