<svg width="20" height="20" viewBox="0 0 20 20" fill="none" xmlns="http://www.w3.org/2000/svg">
<path fill-rule="evenodd" clip-rule="evenodd" d="M3.33331 5.83333C3.33331 5.3731 3.70641 5 4.16665 5H15.8333C16.2935 5 16.6666 5.3731 16.6666 5.83333C16.6666 6.29357 16.2935 6.66667 15.8333 6.66667H4.16665C3.70641 6.66667 3.33331 6.29357 3.33331 5.83333ZM3.33331 10C3.33331 9.53976 3.70641 9.16667 4.16665 9.16667H11.6666C12.1269 9.16667 12.5 9.53976 12.5 10C12.5 10.4602 12.1269 10.8333 11.6666 10.8333H4.16665C3.70641 10.8333 3.33331 10.4602 3.33331 10ZM4.16665 13.3333C3.70641 13.3333 3.33331 13.7064 3.33331 14.1667C3.33331 14.6269 3.70641 15 4.16665 15H15.8333C16.2935 15 16.6666 14.6269 16.6666 14.1667C16.6666 13.7064 16.2935 13.3333 15.8333 13.3333H4.16665Z" fill="#1C294D"/>
<path fill-rule="evenodd" clip-rule="evenodd" d="M3.33398 10.0003C3.33398 9.54009 3.70708 9.16699 4.16732 9.16699H11.6673C12.1276 9.16699 12.5007 9.54009 12.5007 10.0003C12.5007 10.4606 12.1276 10.8337 11.6673 10.8337H4.16732C3.70708 10.8337 3.33398 10.4606 3.33398 10.0003Z" fill="#FC6E1D"/>
</svg>
