<svg width="20" height="20" viewBox="0 0 20 20" fill="none" xmlns="http://www.w3.org/2000/svg">
<path fill-rule="evenodd" clip-rule="evenodd" d="M2.49996 2.5C2.03972 2.5 1.66663 2.8731 1.66663 3.33333C1.66663 3.79357 2.03972 4.16667 2.49996 4.16667V3.33333L2.49997 4.16667H2.5H2.50014H2.50024H2.50036H2.5005H2.50067H2.50155H2.50277H2.50351H2.50391H2.50434H2.50624H2.50848H2.50909H2.50972H2.51105H2.54309H2.66272H3.07288H3.50144L5.43735 12.6847C5.53716 13.1239 5.96689 13.4025 6.40583 13.3186C6.45656 13.3283 6.50892 13.3333 6.56246 13.3333H15C15.3473 13.3333 15.6583 13.1179 15.7802 12.7926L18.2802 6.12594C18.3762 5.87002 18.3406 5.58332 18.1849 5.35867C18.0292 5.13403 17.7733 5 17.5 5H5.4L4.97924 3.14865C4.89301 2.76924 4.55571 2.5 4.16663 2.5H3.07288H2.66272H2.54309H2.538H2.53322H2.53207H2.53094H2.52874H2.52456H2.51717H2.51633H2.51551H2.51472H2.51394H2.51319H2.51246H2.51105H2.50624H2.50434H2.50391H2.50351H2.50277H2.50067H2.50036H2.50024H2.50014H2.5H2.49997L2.49996 3.33333V2.5ZM5.77879 6.66667L6.91515 11.6667H14.4225L16.2975 6.66667H5.77879ZM8.33329 14.1667C7.41282 14.1667 6.66663 14.9129 6.66663 15.8333C6.66663 16.7538 7.41282 17.5 8.33329 17.5C9.25377 17.5 9.99996 16.7538 9.99996 15.8333C9.99996 14.9129 9.25377 14.1667 8.33329 14.1667ZM11.6666 15.8333C11.6666 14.9129 12.4128 14.1667 13.3333 14.1667C14.2538 14.1667 15 14.9129 15 15.8333C15 16.7538 14.2538 17.5 13.3333 17.5C12.4128 17.5 11.6666 16.7538 11.6666 15.8333Z" fill="#FF7A00"/>
</svg>
