<svg width="20" height="20" viewBox="0 0 20 20" fill="none" xmlns="http://www.w3.org/2000/svg">
<path fill-rule="evenodd" clip-rule="evenodd" d="M2.50002 2.5C2.03978 2.5 1.66669 2.8731 1.66669 3.33333C1.66669 3.79357 2.03978 4.16667 2.50002 4.16667V3.33333L2.50003 4.16667H2.50006H2.5002H2.5003H2.50042H2.50056H2.50073H2.50161H2.50283H2.50357H2.50397H2.5044H2.5063H2.50854H2.50915H2.50978H2.51111H2.54315H2.66278H3.07294H3.5015L5.43741 12.6847C5.53722 13.1239 5.96695 13.4025 6.40589 13.3186C6.45662 13.3283 6.50898 13.3333 6.56252 13.3333H15C15.3474 13.3333 15.6583 13.1179 15.7803 12.7926L18.2803 6.12594C18.3763 5.87002 18.3406 5.58332 18.185 5.35867C18.0293 5.13403 17.7733 5 17.5 5H5.40006L4.9793 3.14865C4.89307 2.76924 4.55577 2.5 4.16669 2.5H3.07294H2.66278H2.54315H2.53806H2.53328H2.53213H2.531H2.5288H2.52463H2.51723H2.51639H2.51558H2.51478H2.51401H2.51325H2.51252H2.51111H2.5063H2.5044H2.50397H2.50357H2.50283H2.50073H2.50042H2.5003H2.5002H2.50006H2.50003L2.50002 3.33333V2.5ZM5.77885 6.66667L6.91521 11.6667H14.4225L16.2975 6.66667H5.77885ZM8.33335 14.1667C7.41288 14.1667 6.66669 14.9129 6.66669 15.8333C6.66669 16.7538 7.41288 17.5 8.33335 17.5C9.25383 17.5 10 16.7538 10 15.8333C10 14.9129 9.25383 14.1667 8.33335 14.1667ZM11.6667 15.8333C11.6667 14.9129 12.4129 14.1667 13.3334 14.1667C14.2538 14.1667 15 14.9129 15 15.8333C15 16.7538 14.2538 17.5 13.3334 17.5C12.4129 17.5 11.6667 16.7538 11.6667 15.8333Z" fill="#1C294D" fill-opacity="0.5"/>
</svg>
