<svg width="20" height="20" viewBox="0 0 20 20" fill="none" xmlns="http://www.w3.org/2000/svg">
<path fill-rule="evenodd" clip-rule="evenodd" d="M13.8214 1.66699H6.17847C5.51543 1.66699 4.87954 1.93038 4.4107 2.39923L2.39886 4.41107C1.93002 4.87991 1.66663 5.51579 1.66663 6.17884V7.50033V15.8337C1.66663 17.2144 2.78591 18.3337 4.16663 18.3337H15.8333C17.214 18.3337 18.3333 17.2144 18.3333 15.8337V7.50033V6.17884C18.3333 5.5158 18.0699 4.87991 17.6011 4.41107L15.5892 2.39923C15.1204 1.93039 14.4845 1.66699 13.8214 1.66699ZM15.8333 5.00033L14.4107 3.57774C14.2544 3.42146 14.0425 3.33366 13.8214 3.33366H6.17847C5.95746 3.33366 5.7455 3.42146 5.58922 3.57774L4.16663 5.00033H15.8333ZM3.33329 7.50033V15.8337C3.33329 16.2939 3.70639 16.667 4.16663 16.667H15.8333C16.2935 16.667 16.6666 16.2939 16.6666 15.8337V7.50033C16.6666 7.04009 16.2935 6.66699 15.8333 6.66699H4.16663C3.70639 6.66699 3.33329 7.04009 3.33329 7.50033ZM4.99996 14.167C4.99996 13.7068 5.37306 13.3337 5.83329 13.3337H7.49996C7.9602 13.3337 8.33329 13.7068 8.33329 14.167C8.33329 14.6272 7.9602 15.0003 7.49996 15.0003H5.83329C5.37306 15.0003 4.99996 14.6272 4.99996 14.167ZM5.83329 10.8337C5.37306 10.8337 4.99996 11.2068 4.99996 11.667C4.99996 12.1272 5.37306 12.5003 5.83329 12.5003H9.16663C9.62686 12.5003 9.99996 12.1272 9.99996 11.667C9.99996 11.2068 9.62686 10.8337 9.16663 10.8337H5.83329Z" fill="#1C294D" fill-opacity="0.5"/>
</svg>
