<svg width="20" height="20" viewBox="0 0 20 20" fill="none" xmlns="http://www.w3.org/2000/svg">
<path fill-rule="evenodd" clip-rule="evenodd" d="M1.91819 1.91855C2.25361 1.58314 2.79744 1.58314 3.13286 1.91855L6.06389 4.8495C6.30837 4.73771 6.57322 4.66299 6.85107 4.63217L9.70855 4.31517C10.4864 4.22888 11.2613 4.50076 11.8147 5.05414L17.5786 10.8179C18.5849 11.8242 18.5849 13.4556 17.5786 14.4618L14.4614 17.579C13.4551 18.5852 11.8236 18.5852 10.8174 17.579L4.82788 11.5896C4.22584 10.9876 3.96006 10.1271 4.11777 9.29042L4.60307 6.71583C4.64788 6.47813 4.72471 6.25263 4.82881 6.04374L1.91819 3.13319C1.58277 2.79778 1.58277 2.25397 1.91819 1.91855ZM7.03955 8.25442L6.21628 7.43117L5.80585 9.6086C5.75328 9.88748 5.84187 10.1743 6.04255 10.375L12.032 16.3643C12.3675 16.6998 12.9113 16.6998 13.2467 16.3643L16.3639 13.2472C16.6993 12.9118 16.6993 12.368 16.3639 12.0326L10.6 6.26878C10.4155 6.08432 10.1572 5.99369 9.89796 6.02245L7.50261 6.28819L8.2744 7.05996C8.88948 6.88505 9.57852 7.03973 10.0628 7.52398C10.7743 8.2355 10.7743 9.3891 10.0628 10.1006C9.35125 10.8121 8.19762 10.8121 7.48608 10.1006C6.98657 9.60112 6.83773 8.88376 7.03955 8.25442Z" fill="#FF283D"/>
</svg>
