<svg width="20" height="20" viewBox="0 0 20 20" fill="none" xmlns="http://www.w3.org/2000/svg">
<path fill-rule="evenodd" clip-rule="evenodd" d="M6.66667 4.1818C6.66667 3.71884 7.03976 3.34353 7.5 3.34353H12.5C12.9602 3.34353 13.3333 3.71884 13.3333 4.1818V16.2339C13.3333 16.5967 12.9061 16.7882 12.6379 16.5454L10.5575 14.6619C10.2405 14.375 9.75945 14.375 9.44253 14.6619L7.36207 16.5454C7.09393 16.7882 6.66667 16.5967 6.66667 16.2339V4.1818ZM7.5 1.66699H12.5C13.8807 1.66699 15 2.79291 15 4.1818V16.2339C15 18.0482 12.8637 19.0053 11.523 17.7916L10 16.4128L8.47701 17.7916C7.13633 19.0053 5 18.0482 5 16.2339V4.1818C5 2.79291 6.11929 1.66699 7.5 1.66699Z" fill="#1C294D" fill-opacity="0.5"/>
</svg>
