<svg width="40" height="40" viewBox="0 0 40 40" fill="none" xmlns="http://www.w3.org/2000/svg">
<path fill-rule="evenodd" clip-rule="evenodd" d="M20 40C31.0457 40 40 31.0457 40 20C40 8.9543 31.0457 0 20 0C8.9543 0 0 8.9543 0 20C0 31.0457 8.9543 40 20 40Z" fill="#E4405F"/>
<path fill-rule="evenodd" clip-rule="evenodd" d="M19.9969 10.0059C17.2819 10.0059 16.9414 10.0174 15.8752 10.066C14.8111 10.1145 14.0844 10.2836 13.4485 10.5307C12.7912 10.7861 12.2337 11.128 11.6779 11.6837C11.1221 12.2395 10.7803 12.797 10.5248 13.4544C10.2777 14.0903 10.1087 14.817 10.0602 15.881C10.0115 16.9473 10 17.2877 10 20.0027C10 22.7177 10.0115 23.0581 10.0602 24.1244C10.1087 25.1884 10.2777 25.9151 10.5248 26.551C10.7803 27.2084 11.1221 27.7659 11.6779 28.3217C12.2337 28.8774 12.7912 29.2193 13.4485 29.4747C14.0844 29.7219 14.8111 29.8909 15.8752 29.9394C16.9414 29.988 17.2819 29.9995 19.9969 29.9995C22.7118 29.9995 23.0523 29.988 24.1185 29.9394C25.1826 29.8909 25.9093 29.7219 26.5452 29.4747C27.2025 29.2193 27.76 28.8774 28.3158 28.3217C28.8716 27.7659 29.2134 27.2084 29.4689 26.551C29.716 25.9151 29.885 25.1884 29.9335 24.1244C29.9822 23.0581 29.9937 22.7177 29.9937 20.0027C29.9937 17.2877 29.9822 16.9473 29.9335 15.881C29.885 14.817 29.716 14.0903 29.4689 13.4544C29.2134 12.797 28.8716 12.2395 28.3158 11.6837C27.76 11.128 27.2025 10.7861 26.5452 10.5307C25.9093 10.2836 25.1826 10.1145 24.1185 10.066C23.0523 10.0174 22.7118 10.0059 19.9969 10.0059ZM19.9969 11.8071C22.6661 11.8071 22.9823 11.8173 24.0364 11.8654C25.0111 11.9098 25.5404 12.0727 25.8927 12.2096C26.3593 12.3909 26.6923 12.6076 27.0421 12.9574C27.392 13.3072 27.6086 13.6402 27.79 14.1069C27.9269 14.4591 28.0897 14.9884 28.1342 15.9631C28.1823 17.0172 28.1925 17.3334 28.1925 20.0027C28.1925 22.672 28.1823 22.9882 28.1342 24.0423C28.0897 25.017 27.9269 25.5463 27.79 25.8986C27.6086 26.3652 27.392 26.6982 27.0421 27.048C26.6923 27.3978 26.3593 27.6145 25.8927 27.7958C25.5404 27.9327 25.0111 28.0956 24.0364 28.14C22.9825 28.1881 22.6663 28.1983 19.9969 28.1983C17.3274 28.1983 17.0113 28.1881 15.9573 28.14C14.9826 28.0956 14.4533 27.9327 14.101 27.7958C13.6344 27.6145 13.3013 27.3978 12.9515 27.048C12.6017 26.6982 12.3851 26.3652 12.2037 25.8986C12.0668 25.5463 11.904 25.017 11.8595 24.0423C11.8114 22.9882 11.8012 22.672 11.8012 20.0027C11.8012 17.3334 11.8114 17.0172 11.8595 15.9631C11.904 14.9884 12.0668 14.4591 12.2037 14.1069C12.3851 13.6402 12.6017 13.3072 12.9515 12.9574C13.3013 12.6076 13.6344 12.3909 14.101 12.2096C14.4533 12.0727 14.9826 11.9098 15.9573 11.8654C17.0114 11.8173 17.3276 11.8071 19.9969 11.8071Z" fill="white"/>
<path fill-rule="evenodd" clip-rule="evenodd" d="M19.9969 23.3359C18.1565 23.3359 16.6646 21.844 16.6646 20.0036C16.6646 18.1633 18.1565 16.6713 19.9969 16.6713C21.8372 16.6713 23.3291 18.1633 23.3291 20.0036C23.3291 21.844 21.8372 23.3359 19.9969 23.3359ZM19.9969 14.8701C17.1617 14.8701 14.8633 17.1685 14.8633 20.0036C14.8633 22.8388 17.1617 25.1371 19.9969 25.1371C22.832 25.1371 25.1304 22.8388 25.1304 20.0036C25.1304 17.1685 22.832 14.8701 19.9969 14.8701Z" fill="white"/>
<path fill-rule="evenodd" clip-rule="evenodd" d="M26.5328 14.6664C26.5328 15.329 25.9957 15.866 25.3332 15.866C24.6707 15.866 24.1336 15.329 24.1336 14.6664C24.1336 14.0039 24.6707 13.4668 25.3332 13.4668C25.9957 13.4668 26.5328 14.0039 26.5328 14.6664Z" fill="white"/>
</svg>
