<svg width="15" height="15" viewBox="0 0 15 15" fill="none" xmlns="http://www.w3.org/2000/svg">
<path fill-rule="evenodd" clip-rule="evenodd" d="M8.1604 1.875C7.25917 1.875 6.55507 2.597 6.50958 3.4583C6.48986 3.83186 6.45758 4.2307 6.4067 4.54251C6.38804 4.65684 6.32635 4.82741 6.21418 5.04391C6.10592 5.25286 5.96836 5.47111 5.82844 5.67378C5.6894 5.87518 5.5535 6.05331 5.45215 6.18125C5.43557 6.20219 5.41996 6.22172 5.40547 6.23972L4.51043 6.49997C4.30084 6.34301 4.0403 6.25 3.75796 6.25H2.50398C1.81143 6.25 1.25 6.80964 1.25 7.5V11.875C1.25 12.5654 1.81143 13.125 2.50398 13.125H3.75796C4.14075 13.125 4.48348 12.954 4.71349 12.6845L4.71377 12.6847C5.31171 12.9744 5.96789 13.125 6.63275 13.125H11.3966C12.3302 13.125 13.1225 12.4424 13.2577 11.5216L13.7298 8.30731C13.896 7.17572 13.0159 6.16071 11.8687 6.16071H10.4499V4.15722C10.4499 2.89678 9.42485 1.875 8.1604 1.875ZM5.01195 11.4393L5.26205 11.5605C5.68915 11.7674 6.15785 11.875 6.63275 11.875H11.3966C11.7078 11.875 11.9719 11.6475 12.017 11.3405L12.489 8.12625C12.5444 7.74905 12.2511 7.41071 11.8687 7.41071H9.8229C9.47662 7.41071 9.19591 7.13089 9.19591 6.78571V4.15722C9.19591 3.58714 8.7323 3.125 8.1604 3.125C7.96179 3.125 7.77416 3.29049 7.76183 3.52401C7.74136 3.9116 7.70631 4.36389 7.64441 4.7432C7.59479 5.0473 7.46499 5.35379 7.32833 5.61753C7.18777 5.88882 7.01916 6.15398 6.86144 6.38242C6.70285 6.61213 6.54965 6.81281 6.43632 6.95589C6.37946 7.02767 6.33215 7.08556 6.2986 7.12604C6.28181 7.1463 6.26843 7.16223 6.25899 7.17341L6.24783 7.18657L6.24457 7.19039L6.24355 7.19158L6.24319 7.192L6.24305 7.19217C6.24299 7.19224 6.24293 7.1923 5.76675 6.78571L6.24293 7.1923C6.1637 7.28451 6.05924 7.35171 5.94232 7.38571L5.01195 7.65624V11.4393ZM3.75796 7.5H2.50398V8.75V10.625V11.875H3.75796V11.8304V10.625V8.75V7.5Z" fill="#7986CB"/>
</svg>
