<svg width="20" height="20" viewBox="0 0 20 20" fill="none" xmlns="http://www.w3.org/2000/svg">
<path fill-rule="evenodd" clip-rule="evenodd" d="M1.66671 7.91699C1.66671 11.3688 4.46493 14.167 7.91671 14.167C9.35974 14.167 10.6885 13.6779 11.7464 12.8566C11.7863 12.9409 11.8411 13.0199 11.9108 13.0896L16.9108 18.0896C17.2362 18.415 17.7639 18.415 18.0893 18.0896C18.4147 17.7641 18.4147 17.2365 18.0893 16.9111L13.0893 11.9111C13.0196 11.8414 12.9406 11.7866 12.8563 11.7467C13.6777 10.6888 14.1667 9.36002 14.1667 7.91699C14.1667 4.46521 11.3685 1.66699 7.91671 1.66699C4.46493 1.66699 1.66671 4.46521 1.66671 7.91699ZM3.33337 7.91699C3.33337 5.38569 5.3854 3.33366 7.91671 3.33366C10.448 3.33366 12.5 5.38569 12.5 7.91699C12.5 10.4483 10.448 12.5003 7.91671 12.5003C5.3854 12.5003 3.33337 10.4483 3.33337 7.91699Z" fill="white"/>
</svg>
