<svg width="20" height="20" viewBox="0 0 20 20" fill="none" xmlns="http://www.w3.org/2000/svg">
<path fill-rule="evenodd" clip-rule="evenodd" d="M1.66666 7.91699C1.66666 11.3688 4.46488 14.167 7.91666 14.167C9.35969 14.167 10.6885 13.678 11.7464 12.8566C11.7862 12.9409 11.841 13.0199 11.9107 13.0896L16.9107 18.0896C17.2362 18.415 17.7638 18.415 18.0893 18.0896C18.4147 17.7641 18.4147 17.2365 18.0893 16.9111L13.0893 11.9111C13.0195 11.8414 12.9405 11.7866 12.8562 11.7467C13.6776 10.6888 14.1667 9.36002 14.1667 7.91699C14.1667 4.46521 11.3684 1.66699 7.91666 1.66699C4.46488 1.66699 1.66666 4.46521 1.66666 7.91699ZM3.33333 7.91699C3.33333 5.38569 5.38536 3.33366 7.91666 3.33366C10.448 3.33366 12.5 5.38569 12.5 7.91699C12.5 10.4483 10.448 12.5003 7.91666 12.5003C5.38536 12.5003 3.33333 10.4483 3.33333 7.91699Z" fill="#1C294D" fill-opacity="0.5"/>
</svg>
