<svg width="20" height="20" viewBox="0 0 20 20" fill="none" xmlns="http://www.w3.org/2000/svg">
<path fill-rule="evenodd" clip-rule="evenodd" d="M4.27273 3C3.01753 3 2 4.11929 2 5.5V13.8333C2 15.214 3.01753 16.3333 4.27273 16.3333H14.8788C16.134 16.3333 17.1515 15.214 17.1515 13.8333V5.5C17.1515 4.11929 16.134 3 14.8788 3H4.27273ZM3.58433 5.15162C3.70425 4.86536 3.9674 4.66667 4.27273 4.66667H14.8788C15.1841 4.66667 15.4473 4.86536 15.5672 5.15162L10.0409 9.87969C9.7673 10.1137 9.38422 10.1137 9.11065 9.87969L3.58433 5.15162ZM3.51515 7.20387V12.0541L6.25198 9.54537L3.51515 7.20387ZM3.57795 14.1661C3.69473 14.4607 3.96187 14.6667 4.27273 14.6667H14.8788C15.1897 14.6667 15.4568 14.4607 15.5736 14.1661L11.6754 10.5927L10.9711 11.1953C10.1504 11.8974 9.00115 11.8974 8.18044 11.1953L7.47616 10.5927L3.57795 14.1661ZM15.6364 12.0541V7.20387L12.8995 9.54537L15.6364 12.0541Z" fill="#1C294D" fill-opacity="0.5"/>
</svg>
