<svg width="30" height="30" viewBox="0 0 30 30" fill="none" xmlns="http://www.w3.org/2000/svg">
<path fill-rule="evenodd" clip-rule="evenodd" d="M16.7976 0C17.3302 0 17.8407 0.212418 18.2162 0.590173L26.4186 8.84355C26.791 9.21826 27 9.72509 27 10.2534V25.7143C27 28.08 25.0919 30 22.7407 30H8.25926C5.90815 30 4 28.0822 4 25.7143V4.28571C4 1.92 5.90815 0 8.25926 0H16.7976ZM23 28C24.1046 28 25 27.1046 25 26V12.0727C25 10.9401 24.0605 10.0336 22.9286 10.074L19.0714 10.2117C17.9395 10.2522 17 9.34557 17 8.21301V4C17 2.89543 16.1046 2 15 2H8C6.89543 2 6 2.89543 6 4V26C6 27.1046 6.89543 28 8 28H23Z" fill="#282F36" fill-opacity="0.3"/>
</svg>
