<svg width="125" height="100" viewBox="0 0 125 100" fill="none" xmlns="http://www.w3.org/2000/svg">
<path d="M9.83289 20.666H36.8329V55.666H9.83289V20.666Z" fill="url(#paint0_linear_381_269)"/>
<path opacity="0.1" d="M119.888 95.508C119.888 96.0415 93.7218 97.999 61.4439 97.999C29.1659 97.999 2.99951 96.0415 2.99951 95.508C2.99951 94.9745 29.1659 94.542 61.4439 94.542C93.7218 94.542 119.888 94.9745 119.888 95.508Z" fill="#324D8D"/>
<path d="M12.6449 63.9963C12.6449 63.7626 12.8343 63.5732 13.0679 63.5732H28.0144C28.248 63.5732 28.4374 63.7626 28.4374 63.9963V94.5942C28.4374 94.8278 28.248 95.0172 28.0144 95.0172H13.0679C12.8343 95.0172 12.6449 94.8278 12.6449 94.5942V63.9963Z" fill="url(#paint1_linear_381_269)"/>
<path d="M13.3495 64.842C13.3495 64.6083 13.5389 64.4189 13.7725 64.4189H27.1679C27.4015 64.4189 27.5909 64.6083 27.5909 64.842V76.8273C27.5909 77.0609 27.4015 77.2503 27.1679 77.2503H13.7725C13.5389 77.2503 13.3495 77.0609 13.3495 76.8273V64.842Z" fill="url(#paint2_linear_381_269)"/>
<path d="M13.4907 79.3664C13.4907 79.1327 13.6801 78.9434 13.9137 78.9434H27.3091C27.5428 78.9434 27.7322 79.1327 27.7322 79.3664V91.3517C27.7322 91.5854 27.5428 91.7747 27.3091 91.7747H13.9137C13.6801 91.7747 13.4907 91.5854 13.4907 91.3517V79.3664Z" fill="url(#paint3_linear_381_269)"/>
<path d="M7.63977 64.8176C7.63931 64.7504 7.68631 64.6922 7.75209 64.6786L12.8972 63.6094C12.985 63.5912 13.0673 63.6585 13.0669 63.7481L12.9272 94.8236C12.9269 94.8944 12.874 94.9541 12.8037 94.9628L8.00789 95.5623C7.92412 95.5728 7.84998 95.5078 7.8494 95.4234L7.63977 64.8176Z" fill="url(#paint4_linear_381_269)"/>
<path d="M18.5723 69.5779C18.5778 69.3483 18.7655 69.165 18.9951 69.165H20.8641C21.0948 69.165 21.283 69.3499 21.287 69.5806L21.4132 76.7718C21.4173 77.0083 21.2268 77.2023 20.9902 77.2023H18.8224C18.5848 77.2023 18.3938 77.0066 18.3995 76.7691L18.5723 69.5779Z" fill="#FFBBB6"/>
<path d="M16.2489 69.5881C16.2489 69.3544 16.4383 69.165 16.6719 69.165H18.7238C18.9546 69.165 19.1427 69.3499 19.1468 69.5806L19.2729 76.7718C19.2771 77.0083 19.0865 77.2023 18.85 77.2023H16.6719C16.4383 77.2023 16.2489 77.0129 16.2489 76.7793L16.2489 69.5881Z" fill="url(#paint5_linear_381_269)"/>
<path d="M13.4991 69.589C13.4991 69.3554 13.6885 69.166 13.9222 69.166H16.1151C16.3458 69.166 16.534 69.3509 16.538 69.5816L16.6642 76.7728C16.6683 77.0093 16.4778 77.2033 16.2412 77.2033H13.9222C13.6885 77.2033 13.4991 77.0139 13.4991 76.7802V69.589Z" fill="url(#paint6_linear_381_269)"/>
<path d="M102.322 59.273C107.716 73.329 101.691 95.3329 81.9993 95.3329C60.166 95.3329 36.4302 99.0362 31.7498 86.8393C26.3561 72.7834 39.5366 54.9684 58.6739 47.6248C77.8113 40.2812 96.9287 45.2171 102.322 59.273Z" fill="url(#paint7_linear_381_269)"/>
<path opacity="0.5" d="M29.7509 88.8327C44.8064 91.8049 74.1675 94.666 88.0842 84.8327C103.148 74.1889 102.418 54.4993 93.7509 43.916" stroke="white" stroke-width="0.189333" stroke-linecap="round" stroke-dasharray="0.38 0.95"/>
<path d="M70.316 74.9245C68.9059 77.4062 64.6053 77.7446 62.6312 77.6036L71.2325 57.5105L90.9026 51.7998C91.2786 51.9878 91.6358 53.1534 90.0566 56.3119C88.0825 60.2601 79.6222 63.1506 77.3662 64.0672C75.1101 64.9837 72.0785 71.8224 70.316 74.9245Z" fill="#835FD2" fill-opacity="0.5"/>
<path d="M60.8521 47.9377L60.3734 52.9984V54.9725H63.7539C63.836 54.9725 63.9049 54.9103 63.9132 54.8285L64.5868 48.2269C64.596 48.1372 64.5294 48.0577 64.4395 48.0509L61.0237 47.7931C60.9366 47.7865 60.8603 47.8508 60.8521 47.9377Z" fill="url(#paint8_linear_381_269)"/>
<path d="M60.6101 61.7381L62.4901 60.5417L64.2526 62.8683L63.0541 66.8164C61.033 67.2394 56.5679 68.0996 54.8758 68.156C52.7608 68.2265 51.9147 66.8164 52.2672 64.7719C52.6035 62.8215 59.1059 55.2541 59.0354 54.9721C58.9649 54.69 59.1765 52.0815 59.3175 51.588C59.4585 51.0945 62.4901 50.8124 63.0541 51.0945C63.3979 51.2663 62.4401 51.8721 61.6215 52.3379C61.485 52.4156 61.5575 52.6384 61.7138 52.6231C62.2767 52.568 62.9086 52.5364 63.0541 52.6455C63.2569 52.7976 62.6014 53.7206 62.1425 54.2983C62.0767 54.3811 62.1234 54.4874 62.2263 54.4626C62.5687 54.3799 63.0089 54.1172 63.0541 54.4786C63.1074 54.9053 61.7986 58.7499 60.404 61.5514C60.3397 61.6807 60.4882 61.8156 60.6101 61.7381Z" fill="#FEA199"/>
<path d="M60.3183 67.3558C58.8375 67.6327 57.2065 67.9122 56.0024 68.0569C57.6509 67.343 61.8278 64.5189 64.0722 62.6279L64.1437 62.7223L60.3183 67.3558Z" fill="#E18379"/>
<path d="M92.1704 52.645C91.7191 54.6754 84.7676 56.8516 81.5245 57.6506L80.326 52.3629C80.326 52.3629 75.1088 53.0679 73.3463 53.2795C71.5837 53.491 69.5392 53.7166 69.2572 53.491C69.0472 53.323 69.0978 52.9492 69.2343 52.6431C69.2884 52.5217 69.2052 52.3589 69.0745 52.3352C68.763 52.2786 68.4111 52.1139 68.4111 51.6579C68.4111 50.9891 69.3277 51.1644 69.0457 50.8119C68.5254 50.1616 68.7402 50.0364 69.0457 49.6134C72.0303 49.4959 79.6774 48.5276 84.9791 48.1328C91.6063 47.6393 92.7344 50.1069 92.1704 52.645Z" fill="#FEA199"/>
<path d="M69.9961 49.56C71.5451 49.4523 73.763 49.2248 76.1722 48.9746L74.7563 50.8829C74.515 51.4388 74.3868 52.1918 74.2806 52.8162C74.2595 52.9406 74.2392 53.0598 74.219 53.1714C73.8801 53.2145 73.5823 53.2517 73.3463 53.28C72.2893 53.4068 71.1308 53.5387 70.3119 53.5754C70.6718 52.9253 71.0836 52.1307 70.8082 52.2225C70.1152 52.4535 69.5172 51.2164 69.9961 49.56Z" fill="#FC98A6"/>
<path d="M80.3383 52.4225L80.3248 52.3632C80.3248 52.3632 77.0865 52.8008 74.8506 53.0899C76.7155 52.4552 82.9334 51.3057 82.9334 51.3057L80.3383 52.4225Z" fill="#E18379"/>
<path d="M89.2962 54.9902C86.8742 56.1599 83.5064 57.1628 81.5241 57.6512L81.2224 56.3204C81.5254 56.6027 81.8934 56.8757 82.5111 56.8757C83.01 56.8757 84.8226 56.3156 86.4862 55.8016C87.6794 55.4329 88.7959 55.0879 89.2962 54.9902Z" fill="#FC98A6"/>
<path d="M91.7873 53.3326C91.9873 53.1032 92.1198 52.8735 92.1705 52.6456C92.4674 51.3093 92.2953 49.9925 91.0986 49.1172C90.2489 49.4101 89.6384 50.2168 89.6384 51.1661C89.6384 52.3567 90.5989 53.3231 91.7873 53.3326Z" fill="#FC98A6"/>
<path d="M65.1007 70.1063C63.5215 68.8091 60.2126 69.0018 58.7555 69.2603C54.2669 69.1193 44.923 68.9219 43.4565 69.2603C41.6235 69.6833 34.5733 72.2214 33.1632 73.3495C31.7532 74.4775 18.1463 90.6225 17.6528 90.7635C17.1592 90.9045 14.5106 90.5976 14.6212 90.7635C16.3132 93.3016 21.0369 95.9806 22.0944 95.9101C22.9404 95.8537 23.2929 94.7821 23.2929 94.2886C23.7864 93.7951 24.8581 92.3709 28.8626 88.0844C33.8682 82.7262 44.6551 78.1436 45.5716 77.7911C46.4881 77.4386 57.6275 78.2141 62.3511 77.7911C64.205 77.6251 67.4743 74.8065 68.4143 73.702C68.1793 72.9029 66.68 71.4036 65.1007 70.1063Z" fill="url(#paint9_linear_381_269)"/>
<path d="M23.3738 94.2061L17.8737 90.5771C17.7576 90.6914 17.6824 90.7559 17.6531 90.7643C17.4035 90.8356 16.6022 90.7923 15.8857 90.7536C15.1859 90.7157 14.5669 90.6823 14.6215 90.7643C16.3136 93.3023 21.0372 95.9814 22.0948 95.9109C22.9408 95.8545 23.2933 94.7829 23.2933 94.2894C23.3185 94.2641 23.3453 94.2365 23.3738 94.2061Z" fill="#FDFDFD"/>
<path d="M52.341 77.8122C52.071 77.8046 51.8042 77.797 51.5415 77.7896C48.4881 77.7029 45.9869 77.6319 45.5728 77.7911C45.1812 77.9418 42.9872 78.8648 40.2123 80.2907L32.6074 73.8899C32.8621 73.6248 33.052 73.4394 33.1644 73.3495C34.5745 72.2215 41.6247 69.6834 43.4577 69.2604C43.5745 69.2334 43.7411 69.2099 43.9513 69.1895L52.341 77.8122Z" fill="#C84D74" fill-opacity="0.65"/>
<path d="M62.3479 60.0484C62.2915 60.3868 63.2644 62.2575 63.6874 62.798C62.3714 64.3255 59.1048 67.6908 58.8228 69.2137C66.2255 69.7777 67.685 74.0733 68.27 73.8668C69.4686 73.4439 75.8138 60.26 76.3073 59.7665C76.8008 59.273 81.2424 58.286 81.4539 57.863C81.6654 57.44 80.6079 52.7163 80.4669 52.3638C80.3259 52.0113 69.8211 54.9018 68.6226 54.9018C67.424 54.9018 62.4184 59.6254 62.3479 60.0484Z" fill="url(#paint10_linear_381_269)"/>
<path d="M63.6419 62.737L66.5078 58.7793L63.2805 62.168C63.4138 62.3974 63.54 62.5975 63.6419 62.737Z" fill="#ADD1E7"/>
<path d="M70.1751 51.3057C69.7614 50.4783 70.0341 47.4281 71.0211 45.877C72.0081 44.3258 72.5722 44.185 73.5592 44.0439C73.5592 44.0439 74.4266 43.953 75.1102 44.3259C75.8858 44.749 76.1678 45.8671 76.1678 48.1331C76.1678 50.3891 74.8282 50.4596 74.5462 50.6711C74.3206 50.8404 74.1232 52.9037 74.0527 53.9142L69.6287 55.5407C69.5044 55.5864 69.3914 55.4511 69.4585 55.3369L71.2599 52.2746C71.3125 52.185 71.2542 52.0659 71.1536 52.04C70.8782 51.9693 70.4136 51.7828 70.1751 51.3057Z" fill="#FFBBB6"/>
<path d="M75.6639 44.8777C76.0252 45.4909 76.1679 46.5219 76.1679 48.1335C76.1679 49.3796 75.7592 49.9589 75.3458 50.2635C75.308 50.1723 75.3346 49.9856 75.3647 49.7747C75.4093 49.4616 75.4615 49.0952 75.3219 48.909C75.1981 48.744 74.9211 48.7448 74.6815 48.7455C74.4664 48.7461 74.2814 48.7466 74.2643 48.627C74.2377 48.4406 74.2533 48.3145 74.2671 48.2032C74.2898 48.0199 74.3076 47.8766 74.1233 47.5695C73.9118 47.2169 72.5117 46.6999 71.3032 47.1464C71.2486 47.1666 71.1975 47.186 71.1497 47.2042C70.7774 47.3454 70.6003 47.4126 70.4271 47.2225C70.5831 46.7211 70.781 46.2548 71.0212 45.8773C71.8336 44.6007 72.3594 44.2794 73.0704 44.127C73.0943 44.1228 73.1163 44.1188 73.1363 44.1148C73.4869 44.0447 75.0229 44.1141 75.6639 44.8777Z" fill="#E18379"/>
<path d="M70.9789 52.7534L71.2607 52.2743C71.2911 52.2226 71.2846 52.161 71.2542 52.1132C71.2846 52.0925 71.304 52.0809 71.304 52.0809C71.304 52.0809 72.0796 52.0104 72.9256 51.5874C73.2987 51.4008 73.5484 51.2417 73.7835 51.0919C74.0815 50.9019 74.3562 50.7269 74.8291 50.5298C74.8762 50.5102 74.9075 50.5007 74.9247 50.5C74.8714 50.5232 74.821 50.5435 74.7748 50.5621C74.6757 50.6021 74.5957 50.6344 74.5471 50.6708C74.5054 50.7021 74.4647 50.7979 74.4256 50.9397C73.4303 51.6571 71.3147 52.981 71.022 52.7859C71.0061 52.7753 70.9917 52.7644 70.9789 52.7534Z" fill="#FD8F86"/>
<path d="M71.0012 50.9148C71.0012 50.9148 71.2512 51.1484 71.5846 51.0817C72.0012 50.9984 72.2512 50.665 72.2512 50.665" stroke="#EB414E" stroke-width="0.189333" stroke-linecap="round"/>
<path d="M70.245 46.7934C70.1653 46.6338 69.963 45.9474 70.8795 45.0309C71.7961 44.1143 72.7831 44.0439 73.1356 43.9733C73.4881 43.9028 74.8277 43.8323 75.6032 44.6079C76.4147 45.4194 76.6607 47.2869 76.3787 48.4855C76.0967 49.684 75.4622 50.1775 75.4622 50.1775C75.1031 50.2536 75.5327 49.1905 75.3212 48.9085C75.0863 48.5953 74.2998 48.8793 74.2637 48.6265C74.1932 48.133 74.4187 47.7805 74.1226 47.2869C73.9111 46.9344 72.7831 46.1589 71.5746 46.6055C70.9508 46.836 70.527 47.3575 70.245 46.7934Z" fill="url(#paint11_linear_381_269)"/>
<path d="M34.0516 63.585C37.3774 63.3431 51.3952 66.8753 58.9389 69.2959L43.5333 70.0558C43.4113 70.0619 43.3513 70.2066 43.4374 70.2931C47.4637 74.3379 55.4173 82.1949 55.4173 82.5825C55.4173 83.0761 51.6067 91.2926 51.0426 90.8696C50.6019 90.539 50.8902 87.7478 51.2543 86.3702C51.2695 86.3125 51.2495 86.2533 51.2008 86.2188C44.6225 81.575 32.1413 72.8834 30.456 70.9173C28.341 68.4497 30.174 63.8671 34.0516 63.585Z" fill="url(#paint12_linear_381_269)"/>
<path d="M53.6926 80.6279C54.7446 81.7255 55.4164 82.4691 55.4164 82.5817C55.4164 83.0752 51.6058 91.2918 51.0418 90.8688C50.601 90.5382 50.8893 87.747 51.2534 86.3694C51.2665 86.3198 51.2536 86.269 51.2187 86.2338L53.6926 80.6279Z" fill="#FDFDFD"/>
<path d="M107.118 73.765C107.433 76.8407 109.538 85.2098 111.277 88.9934H116.072C116.26 88.9229 117.312 87.5834 120.02 82.7893C123.404 76.7966 121.437 74.6845 119.738 75.6685C118.398 76.4441 115.649 83.3533 115.437 83.2828C115.085 83.1653 115.508 66.2213 115.085 63.4717C114.662 60.7221 112.533 59.7358 111.7 61.2156C110.431 63.4717 111.019 71.9789 111.277 77.1491C110.784 75.4805 109.571 71.8896 108.669 70.8744C107.541 69.6054 106.836 71.0155 107.118 73.765Z" fill="url(#paint13_linear_381_269)"/>
<path d="M112.658 60.5348L112.961 74.1388L110.941 69.7156C110.944 69.8574 110.948 69.9996 110.952 70.1419L112.971 74.5605L113.291 88.9371L110.1 79.1532V73.7039C110.045 73.5628 109.989 73.4229 109.933 73.2851V78.6423L107.373 70.793C107.336 70.8603 107.302 70.936 107.271 71.0196L109.851 78.9274L107.721 77.2255C107.74 77.311 107.759 77.3971 107.778 77.4839L109.945 79.216L111.932 85.3091L109.403 83.744C109.427 83.8245 109.451 83.9048 109.475 83.9849L112.013 85.5546L113.134 88.9934H113.459L113.281 81.0215L115.28 77.6005C115.28 77.4911 115.28 77.3808 115.28 77.2698L113.274 80.7032L113.137 74.552L115.256 67.0089C115.252 66.8116 115.249 66.6193 115.244 66.4328L113.125 73.9809L112.825 60.5304C112.769 60.528 112.713 60.5295 112.658 60.5348Z" fill="#98F2E8"/>
<path d="M118.894 76.6128L118.551 80.3074L113.581 88.9934H113.773L117.307 82.8172L120.673 81.5438C120.708 81.4706 120.743 81.3981 120.777 81.3263L117.437 82.5897L121.34 75.7691C121.299 75.7286 121.256 75.6918 121.212 75.6588L118.751 79.9583L119.087 76.3374C119.024 76.4233 118.96 76.5153 118.894 76.6128Z" fill="#98F2E8"/>
<path d="M119.387 87.667H109.462C109.378 87.667 109.313 87.7363 109.322 87.8196C109.435 88.8676 110.105 94.9636 110.363 95.0697C110.645 95.1858 118.33 95.1872 118.612 95.0697C118.888 94.9546 119.502 90.0612 119.527 87.8062C119.528 87.7283 119.465 87.667 119.387 87.667Z" fill="url(#paint14_linear_381_269)"/>
<g filter="url(#filter0_d_381_269)">
<path d="M24.3468 32.8092C24.3468 31.8888 25.093 31.1426 26.0135 31.1426H45.5228C46.4433 31.1426 47.1895 31.8888 47.1895 32.8092V51.1906C47.1895 52.111 46.4433 52.8572 45.5228 52.8572H26.0135C25.093 52.8572 24.3468 52.111 24.3468 51.1906V32.8092Z" fill="url(#paint15_linear_381_269)"/>
</g>
<path d="M32.1333 37.3607C32.1968 36.8685 32.6159 36.5 33.1122 36.5H38.5622C39.0609 36.5 39.4812 36.872 39.5419 37.3669L40.6394 46.3207C40.7116 46.9091 40.2525 47.4278 39.6597 47.4278H31.9569C31.3616 47.4278 30.9018 46.9049 30.978 46.3145L32.1333 37.3607Z" fill="white" fill-opacity="0.62"/>
<path d="M40.2852 43.4369L40.6388 46.3216C40.7109 46.9099 40.2519 47.4287 39.6591 47.4287H36.7061C36.5729 47.0893 36.4998 46.7197 36.4998 46.333C36.4998 44.6762 37.8429 43.333 39.4998 43.333C39.7715 43.333 40.0349 43.3691 40.2852 43.4369Z" fill="#FFFDFD" fill-opacity="0.81"/>
<path d="M34.1372 38.6865C34.1372 38.6865 34.2077 40.5669 36.1113 40.4491C37.5213 40.3618 37.7328 38.6865 37.7328 38.6865" stroke="#FFA273" stroke-opacity="0.59" stroke-width="0.800904" stroke-linecap="round" stroke-linejoin="round"/>
<g filter="url(#filter1_d_381_269)">
<path d="M52.1259 21.0506C52.1259 20.0049 52.9735 19.1572 54.0192 19.1572H69.8321C70.8778 19.1572 71.7254 20.0049 71.7254 21.0506V35.8765C71.7254 36.9221 70.8778 37.7698 69.8321 37.7698H54.0192C52.9735 37.7698 52.1259 36.9221 52.1259 35.8765V21.0506Z" fill="url(#paint16_linear_381_269)"/>
</g>
<path opacity="0.6" d="M56.498 26.0022C56.3952 25.7258 56.5996 25.4316 56.8945 25.4316H65.1623C65.2427 25.4316 65.3069 25.4988 65.3031 25.5792L65.0592 30.8226C65.0417 31.1988 64.7316 31.4948 64.355 31.4948H59.0317C58.7372 31.4948 58.4736 31.3117 58.3709 31.0357L56.498 26.0022Z" fill="white"/>
<path d="M60.8691 31.9876C60.8691 32.4549 60.4903 32.8337 60.023 32.8337C59.5558 32.8337 59.177 32.4549 59.177 31.9876C59.177 31.5204 59.5558 31.1416 60.023 31.1416C60.4903 31.1416 60.8691 31.5204 60.8691 31.9876Z" fill="white"/>
<path d="M64.2527 31.9876C64.2527 32.4549 63.8739 32.8337 63.4067 32.8337C62.9394 32.8337 62.5607 32.4549 62.5607 31.9876C62.5607 31.5204 62.9394 31.1416 63.4067 31.1416C63.8739 31.1416 64.2527 31.5204 64.2527 31.9876Z" fill="white"/>
<path d="M67.0728 23.6689H64.8872L64.6141 31.1045H58.8127" stroke="white" stroke-width="0.800904" stroke-linecap="round" stroke-linejoin="round"/>
<g filter="url(#filter2_d_381_269)">
<path d="M45.3577 19.158C45.3577 23.5189 41.8224 27.0542 37.4614 27.0542C33.1005 27.0542 29.5652 23.5189 29.5652 19.158C29.5652 14.797 33.1005 11.2617 37.4614 11.2617C41.8224 11.2617 45.3577 14.797 45.3577 19.158Z" fill="url(#paint17_linear_381_269)"/>
</g>
<path d="M36.2626 20.2873L37.0028 19.6176L37.3054 19.335" stroke="#FDFDFD" stroke-width="0.480543"/>
<path d="M41.4088 17.5379C41.4088 18.9007 40.304 20.0055 38.9412 20.0055C37.5784 20.0055 36.4736 18.9007 36.4736 17.5379C36.4736 16.1751 37.5784 15.0703 38.9412 15.0703C40.304 15.0703 41.4088 16.1751 41.4088 17.5379Z" fill="white" fill-opacity="0.63"/>
<path d="M36.7304 20.3194L36.0584 19.7482C35.8662 19.5848 35.5746 19.6249 35.4336 19.8341L33.7333 22.3572C33.6089 22.5417 33.6487 22.791 33.8243 22.9276L33.8742 22.9664C34.0329 23.0898 34.2566 23.0845 34.4092 22.9536L36.7318 20.9629C36.9292 20.7936 36.9286 20.4879 36.7304 20.3194Z" fill="white"/>
<path d="M93.5814 2.16602V29.6619" stroke="url(#paint18_linear_381_269)" stroke-width="0.480543"/>
<path d="M94.9918 33.1872C94.9918 33.927 94.3921 34.5267 93.6523 34.5267C92.9125 34.5267 92.3127 33.927 92.3127 33.1872C92.3127 32.4474 92.9125 31.8477 93.6523 31.8477C94.3921 31.8477 94.9918 32.4474 94.9918 33.1872Z" fill="#8FC0C7"/>
<path d="M89.9685 32.4819L93.247 29.4149C93.399 29.2727 93.6319 29.2622 93.796 29.3902L97.3918 32.1927C97.7029 32.4352 97.5422 32.9339 97.148 32.9491L90.2738 33.2135C89.8824 33.2285 89.6825 32.7494 89.9685 32.4819Z" fill="#B7E4EB"/>
<circle cx="24.5159" cy="59.6913" r="0.758654" fill="url(#paint19_linear_381_269)"/>
<circle cx="106.916" cy="52.0827" r="1.41667" fill="url(#paint20_linear_381_269)"/>
<circle cx="48.9932" cy="15.2519" r="0.962808" fill="url(#paint21_linear_381_269)"/>
<circle cx="87.8081" cy="70.4501" r="0.962808" fill="#FFBBB6"/>
<g filter="url(#filter3_d_381_269)">
<circle cx="109.166" cy="29.9993" r="0.833333" fill="url(#paint22_linear_381_269)"/>
</g>
<defs>
<filter id="filter0_d_381_269" x="15.8268" y="23.5692" width="39.8827" height="38.7548" filterUnits="userSpaceOnUse" color-interpolation-filters="sRGB">
<feFlood flood-opacity="0" result="BackgroundImageFix"/>
<feColorMatrix in="SourceAlpha" type="matrix" values="0 0 0 0 0 0 0 0 0 0 0 0 0 0 0 0 0 0 127 0" result="hardAlpha"/>
<feOffset dy="0.946667"/>
<feGaussianBlur stdDeviation="4.26"/>
<feColorMatrix type="matrix" values="0 0 0 0 0 0 0 0 0 0 0 0 0 0 0 0 0 0 0.1 0"/>
<feBlend mode="normal" in2="BackgroundImageFix" result="effect1_dropShadow_381_269"/>
<feBlend mode="normal" in="SourceGraphic" in2="effect1_dropShadow_381_269" result="shape"/>
</filter>
<filter id="filter1_d_381_269" x="43.6059" y="11.5839" width="36.6396" height="35.6523" filterUnits="userSpaceOnUse" color-interpolation-filters="sRGB">
<feFlood flood-opacity="0" result="BackgroundImageFix"/>
<feColorMatrix in="SourceAlpha" type="matrix" values="0 0 0 0 0 0 0 0 0 0 0 0 0 0 0 0 0 0 127 0" result="hardAlpha"/>
<feOffset dy="0.946667"/>
<feGaussianBlur stdDeviation="4.26"/>
<feColorMatrix type="matrix" values="0 0 0 0 0 0 0 0 0 0 0 0 0 0 0 0 0 0 0.1 0"/>
<feBlend mode="normal" in2="BackgroundImageFix" result="effect1_dropShadow_381_269"/>
<feBlend mode="normal" in="SourceGraphic" in2="effect1_dropShadow_381_269" result="shape"/>
</filter>
<filter id="filter2_d_381_269" x="21.0452" y="3.68838" width="32.8325" height="32.832" filterUnits="userSpaceOnUse" color-interpolation-filters="sRGB">
<feFlood flood-opacity="0" result="BackgroundImageFix"/>
<feColorMatrix in="SourceAlpha" type="matrix" values="0 0 0 0 0 0 0 0 0 0 0 0 0 0 0 0 0 0 127 0" result="hardAlpha"/>
<feOffset dy="0.946667"/>
<feGaussianBlur stdDeviation="4.26"/>
<feColorMatrix type="matrix" values="0 0 0 0 0 0 0 0 0 0 0 0 0 0 0 0 0 0 0.1 0"/>
<feBlend mode="normal" in2="BackgroundImageFix" result="effect1_dropShadow_381_269"/>
<feBlend mode="normal" in="SourceGraphic" in2="effect1_dropShadow_381_269" result="shape"/>
</filter>
<filter id="filter3_d_381_269" x="101.714" y="23.1357" width="14.9039" height="14.9043" filterUnits="userSpaceOnUse" color-interpolation-filters="sRGB">
<feFlood flood-opacity="0" result="BackgroundImageFix"/>
<feColorMatrix in="SourceAlpha" type="matrix" values="0 0 0 0 0 0 0 0 0 0 0 0 0 0 0 0 0 0 127 0" result="hardAlpha"/>
<feOffset dy="0.588324"/>
<feGaussianBlur stdDeviation="3.30932"/>
<feColorMatrix type="matrix" values="0 0 0 0 0.396078 0 0 0 0 0.658824 0 0 0 0 0.988235 0 0 0 0.15 0"/>
<feBlend mode="normal" in2="BackgroundImageFix" result="effect1_dropShadow_381_269"/>
<feBlend mode="normal" in="SourceGraphic" in2="effect1_dropShadow_381_269" result="shape"/>
</filter>
<linearGradient id="paint0_linear_381_269" x1="23.4713" y1="50.9904" x2="30.6273" y2="27.2682" gradientUnits="userSpaceOnUse">
<stop stop-color="#FFD9F0"/>
<stop offset="1" stop-color="#EFF6FF"/>
</linearGradient>
<linearGradient id="paint1_linear_381_269" x1="17.2226" y1="73.1659" x2="27.3892" y2="87.6659" gradientUnits="userSpaceOnUse">
<stop stop-color="#A7D9E0"/>
<stop offset="1" stop-color="#E3DBFB"/>
</linearGradient>
<linearGradient id="paint2_linear_381_269" x1="34.7222" y1="72.6655" x2="30.6388" y2="81.4155" gradientUnits="userSpaceOnUse">
<stop stop-color="#76B0B8"/>
<stop offset="1" stop-color="#C9C2E1"/>
</linearGradient>
<linearGradient id="paint3_linear_381_269" x1="24.3057" y1="81.5832" x2="19.1391" y2="90.1665" gradientUnits="userSpaceOnUse">
<stop stop-color="#76B0B8"/>
<stop offset="1" stop-color="#C9C2E2"/>
</linearGradient>
<linearGradient id="paint4_linear_381_269" x1="10.3533" y1="63.574" x2="10.3533" y2="95.582" gradientUnits="userSpaceOnUse">
<stop stop-color="#A7D9E0"/>
<stop offset="1" stop-color="#E5DBFC"/>
</linearGradient>
<linearGradient id="paint5_linear_381_269" x1="17.6942" y1="69.165" x2="17.6942" y2="77.2023" gradientUnits="userSpaceOnUse">
<stop stop-color="#68D7FA"/>
<stop offset="1" stop-color="#77E9C9"/>
</linearGradient>
<linearGradient id="paint6_linear_381_269" x1="15.0854" y1="69.166" x2="15.0854" y2="77.2033" gradientUnits="userSpaceOnUse">
<stop stop-color="#A58AFF"/>
<stop offset="1" stop-color="#5EB2FF"/>
</linearGradient>
<linearGradient id="paint7_linear_381_269" x1="74.7214" y1="91.9996" x2="66.8048" y2="53.0829" gradientUnits="userSpaceOnUse">
<stop stop-color="#B483FF"/>
<stop offset="1" stop-color="#68ADFF"/>
</linearGradient>
<linearGradient id="paint8_linear_381_269" x1="60.3045" y1="47.833" x2="65.8045" y2="49.1664" gradientUnits="userSpaceOnUse">
<stop stop-color="#FF956F"/>
<stop offset="1" stop-color="#FFC380"/>
</linearGradient>
<linearGradient id="paint9_linear_381_269" x1="45.1381" y1="70.2491" x2="47.1381" y2="86.1657" gradientUnits="userSpaceOnUse">
<stop stop-color="#CE5379"/>
<stop offset="1" stop-color="#F49274"/>
</linearGradient>
<linearGradient id="paint10_linear_381_269" x1="71.8049" y1="61.1663" x2="72.3049" y2="75.6663" gradientUnits="userSpaceOnUse">
<stop stop-color="#F3F6F8"/>
<stop offset="1" stop-color="#AAD7F5"/>
</linearGradient>
<linearGradient id="paint11_linear_381_269" x1="73.33" y1="43.9326" x2="73.4725" y2="46.7489" gradientUnits="userSpaceOnUse">
<stop stop-color="#954040"/>
<stop offset="1" stop-color="#612828"/>
</linearGradient>
<linearGradient id="paint12_linear_381_269" x1="29.6394" y1="62.3325" x2="49.3894" y2="86.7492" gradientUnits="userSpaceOnUse">
<stop stop-color="#C94B79"/>
<stop offset="1" stop-color="#F59474"/>
</linearGradient>
<linearGradient id="paint13_linear_381_269" x1="117.556" y1="68.5831" x2="112.306" y2="92.4165" gradientUnits="userSpaceOnUse">
<stop stop-color="#68D7FA"/>
<stop offset="1" stop-color="#7AEDBE"/>
</linearGradient>
<linearGradient id="paint14_linear_381_269" x1="114.417" y1="87.667" x2="114.468" y2="96.3655" gradientUnits="userSpaceOnUse">
<stop stop-color="#FF8C6B"/>
<stop offset="1" stop-color="#FFCB82"/>
</linearGradient>
<linearGradient id="paint15_linear_381_269" x1="35.7681" y1="31.1426" x2="35.7681" y2="52.8572" gradientUnits="userSpaceOnUse">
<stop stop-color="#FF906D"/>
<stop offset="1" stop-color="#FFCB82"/>
</linearGradient>
<linearGradient id="paint16_linear_381_269" x1="61.9257" y1="19.1572" x2="57.139" y2="37.8329" gradientUnits="userSpaceOnUse">
<stop stop-color="#7AEDC0"/>
<stop offset="1" stop-color="#68D7F9"/>
</linearGradient>
<linearGradient id="paint17_linear_381_269" x1="37.4614" y1="11.2617" x2="37.4614" y2="27.0542" gradientUnits="userSpaceOnUse">
<stop stop-color="#B681FF"/>
<stop offset="1" stop-color="#64AFFF"/>
</linearGradient>
<linearGradient id="paint18_linear_381_269" x1="87.4286" y1="26.4994" x2="87.4425" y2="5.83236" gradientUnits="userSpaceOnUse">
<stop stop-color="#A7D9E0"/>
<stop offset="1" stop-color="#A7D9E0" stop-opacity="0"/>
</linearGradient>
<linearGradient id="paint19_linear_381_269" x1="24.5159" y1="58.9326" x2="24.5159" y2="60.4499" gradientUnits="userSpaceOnUse">
<stop stop-color="#FFB798"/>
<stop offset="1" stop-color="#FFDF6F"/>
</linearGradient>
<linearGradient id="paint20_linear_381_269" x1="106.916" y1="50.666" x2="106.916" y2="53.4993" gradientUnits="userSpaceOnUse">
<stop stop-color="#FFB798"/>
<stop offset="1" stop-color="#FFDF6F"/>
</linearGradient>
<linearGradient id="paint21_linear_381_269" x1="48.9932" y1="14.2891" x2="48.9932" y2="16.2147" gradientUnits="userSpaceOnUse">
<stop stop-color="#FFB798"/>
<stop offset="1" stop-color="#FF6F9A"/>
</linearGradient>
<linearGradient id="paint22_linear_381_269" x1="109.166" y1="29.166" x2="108.619" y2="30.8327" gradientUnits="userSpaceOnUse">
<stop stop-color="#68D7FA"/>
<stop offset="1" stop-color="#7EF1B3"/>
</linearGradient>
</defs>
</svg>
