<svg width="20" height="20" viewBox="0 0 20 20" fill="none" xmlns="http://www.w3.org/2000/svg">
<path fill-rule="evenodd" clip-rule="evenodd" d="M5.24822 3.49769L5.24878 3.49839L5.24822 3.49769ZM5.28406 3.55396L6.9545 6.18607C6.75265 6.37559 6.53247 6.5633 6.29551 6.76533C6.09185 6.93896 5.87579 7.12316 5.64831 7.32816C5.08451 7.83626 4.97561 8.65343 5.3405 9.28938C7.27004 12.6523 9.9018 14.1825 11.0794 14.7319C11.7888 15.0629 12.5596 14.8017 12.9887 14.2608L14.1446 12.8037C14.1446 12.8037 14.1456 12.8029 14.1473 12.8026C14.1491 12.8023 14.1523 12.8026 14.1523 12.8026C14.1523 12.8026 14.1548 12.8031 14.1572 12.8046C14.8308 13.2163 15.7705 13.7758 16.6337 14.2494C16.4787 15.1763 16.1226 15.7163 15.7299 16.0463C15.3176 16.393 14.7844 16.5754 14.1897 16.6412C13.0023 16.7727 11.7968 16.416 11.5295 16.3291C11.2345 16.1797 9.61709 15.3366 7.88912 13.9704C6.10731 12.5616 4.32066 10.684 3.63734 8.53061C3.13796 6.95684 3.32626 5.8494 3.71877 5.0855C4.09821 4.34703 4.71224 3.84581 5.28406 3.55396ZM4.67978 1.99616C5.46698 1.62642 6.28098 2.01193 6.66013 2.60936L8.40765 5.36293C8.76094 5.91961 8.78516 6.73339 8.21082 7.29085C7.96467 7.52977 7.62221 7.82341 7.30354 8.09666C7.12861 8.24666 6.96085 8.39051 6.82012 8.51579C8.48078 11.3794 10.701 12.7043 11.7108 13.1888L12.8349 11.7718C13.3656 11.1028 14.3105 10.9464 15.0301 11.3862C15.6958 11.7931 16.6161 12.3407 17.4501 12.798C18.0063 13.1029 18.4042 13.7387 18.2914 14.4564C18.089 15.7456 17.5601 16.6846 16.8065 17.3181C16.0655 17.9411 15.1827 18.2054 14.3741 18.295C12.7836 18.4711 11.2623 17.9942 10.9845 17.902C10.9142 17.8787 10.8558 17.8541 10.7931 17.8225C10.4948 17.6725 8.73724 16.765 6.85136 15.2738C4.9851 13.7982 2.8804 11.6637 2.04539 9.03229C1.43204 7.09937 1.61348 5.53211 2.23262 4.32714C2.8409 3.1433 3.82598 2.39719 4.67978 1.99616Z" fill="#1C294D" fill-opacity="0.5"/>
<path fill-rule="evenodd" clip-rule="evenodd" d="M12.2587 1.743C11.8397 1.55137 11.3441 1.73456 11.1518 2.15217C10.9595 2.56977 11.1433 3.06365 11.5624 3.25528C13.5011 4.14183 15.72 5.8086 16.7339 8.10862C16.9194 8.52929 17.4119 8.72049 17.834 8.53568C18.2562 8.35087 18.448 7.86003 18.2626 7.43937C17.024 4.62988 14.4061 2.72497 12.2587 1.743ZM11.6407 4.69451C11.2283 4.48903 10.7268 4.65561 10.5206 5.06657C10.3144 5.47754 10.4816 5.97726 10.894 6.18274C11.6784 6.57363 12.2214 6.94198 12.6597 7.37882C13.0981 7.81566 13.4677 8.3567 13.8599 9.13847C14.0661 9.54943 14.5676 9.71601 14.98 9.51053C15.3924 9.30505 15.5595 8.80532 15.3533 8.39435C14.9107 7.51223 14.4455 6.80536 13.8403 6.20227C13.2352 5.59918 12.5258 5.13558 11.6407 4.69451Z" fill="#1C294D" fill-opacity="0.5"/>
</svg>
