<svg width="20" height="20" viewBox="0 0 20 20" fill="none" xmlns="http://www.w3.org/2000/svg">
<path fill-rule="evenodd" clip-rule="evenodd" d="M1.66663 10.0003C1.66663 14.6027 5.39759 18.3337 9.99996 18.3337C14.6023 18.3337 18.3333 14.6027 18.3333 10.0003C18.3333 5.39795 14.6023 1.66699 9.99996 1.66699C5.39759 1.66699 1.66663 5.39795 1.66663 10.0003ZM3.33329 10.0003C3.33329 6.31843 6.31806 3.33366 9.99996 3.33366C13.6819 3.33366 16.6666 6.31843 16.6666 10.0003C16.6666 13.6822 13.6819 16.667 9.99996 16.667C6.31806 16.667 3.33329 13.6822 3.33329 10.0003ZM7.49996 10.8337C7.49996 10.3734 7.12686 10.0003 6.66663 10.0003C6.20639 10.0003 5.83329 10.3734 5.83329 10.8337C5.83329 13.1348 7.69877 15.0003 9.99996 15.0003C12.3011 15.0003 14.1666 13.1348 14.1666 10.8337C14.1666 10.3734 13.7935 10.0003 13.3333 10.0003C12.8731 10.0003 12.5 10.3734 12.5 10.8337C12.5 12.2144 11.3807 13.3337 9.99996 13.3337C8.61925 13.3337 7.49996 12.2144 7.49996 10.8337ZM6.66663 8.33366C7.12686 8.33366 7.49996 7.96056 7.49996 7.50033C7.49996 7.96056 7.87306 8.33366 8.33329 8.33366C8.79353 8.33366 9.16663 7.96056 9.16663 7.50033C9.16663 6.57985 8.42043 5.83366 7.49996 5.83366C6.57948 5.83366 5.83329 6.57985 5.83329 7.50033C5.83329 7.96056 6.20639 8.33366 6.66663 8.33366ZM12.5 7.50033C12.5 7.96056 12.1269 8.33366 11.6666 8.33366C11.2064 8.33366 10.8333 7.96056 10.8333 7.50033C10.8333 6.57985 11.5795 5.83366 12.5 5.83366C13.4204 5.83366 14.1666 6.57985 14.1666 7.50033C14.1666 7.96056 13.7935 8.33366 13.3333 8.33366C12.8731 8.33366 12.5 7.96056 12.5 7.50033Z" fill="#1C294D" fill-opacity="0.5"/>
</svg>
