<svg width="40" height="40" viewBox="0 0 40 40" fill="none" xmlns="http://www.w3.org/2000/svg">
<path d="M39.5 20C39.5 30.7696 30.7696 39.5 20 39.5C9.23045 39.5 0.5 30.7696 0.5 20C0.5 9.23045 9.23045 0.5 20 0.5C30.7696 0.5 39.5 9.23045 39.5 20Z" stroke="#282F36" stroke-opacity="0.15"/>
<path d="M28.9801 14.6676C28.9558 14.6385 28.9156 14.6287 28.8813 14.6445C28.373 14.8725 27.8383 15.0364 27.2876 15.1332C27.8723 14.6885 28.3079 14.0728 28.5313 13.3667C28.5421 13.3329 28.5309 13.2959 28.5036 13.2739C28.4761 13.2519 28.438 13.2491 28.4078 13.2672C27.7493 13.6621 27.0362 13.9404 26.2871 14.0948C25.6234 13.3984 24.6966 13 23.7374 13C21.7866 13 20.1998 14.6044 20.1998 16.5765C20.1998 16.815 20.2226 17.0513 20.2678 17.2806C17.5659 17.112 15.0396 15.8005 13.3218 13.6703C13.3042 13.6485 13.2775 13.6364 13.2497 13.6392C13.222 13.6413 13.1973 13.6571 13.1833 13.6813C12.8699 14.2248 12.7043 14.8468 12.7043 15.4794C12.7043 16.576 13.1971 17.6012 14.0361 18.2777C13.6042 18.2252 13.1823 18.0877 12.8018 17.8742C12.7763 17.8596 12.7444 17.8598 12.7188 17.8747C12.6932 17.8895 12.677 17.917 12.6763 17.9469L12.676 17.9927C12.676 19.5675 13.7024 20.9502 15.1627 21.4093C14.778 21.472 14.379 21.4678 13.9867 21.3921C13.9578 21.3866 13.9275 21.3967 13.9076 21.4192C13.888 21.4417 13.8814 21.4732 13.8904 21.5017C14.3283 22.8836 15.545 23.8527 16.9613 23.9734C15.7799 24.8485 14.3835 25.3095 12.9081 25.3095C12.6363 25.3095 12.3626 25.2932 12.0944 25.2613C12.0561 25.2569 12.0182 25.28 12.0049 25.3171C11.9917 25.3546 12.0058 25.3965 12.0389 25.4178C13.6355 26.4531 15.4816 27 17.3779 27C23.5807 27 27.2872 21.9059 27.2872 16.9812C27.2872 16.8441 27.2846 16.7076 27.2792 16.5716C27.9483 16.0767 28.5228 15.471 28.9859 14.7698C29.0066 14.7385 29.0044 14.6968 28.9801 14.6676Z" fill="#282F36" fill-opacity="0.3"/>
</svg>
