<svg width="40" height="40" viewBox="0 0 40 40" fill="none" xmlns="http://www.w3.org/2000/svg">
<path fill-rule="evenodd" clip-rule="evenodd" d="M20 40C31.0457 40 40 31.0457 40 20C40 8.9543 31.0457 0 20 0C8.9543 0 0 8.9543 0 20C0 31.0457 8.9543 40 20 40Z" fill="#4C75A3"/>
<path fill-rule="evenodd" clip-rule="evenodd" d="M20 34C27.732 34 34 27.732 34 20C34 12.268 27.732 6 20 6C12.268 6 6 12.268 6 20C6 27.732 12.268 34 20 34Z" fill="white"/>
<path d="M20 6C12.2683 6 6 12.268 6 20C6 27.732 12.2683 34 20 34C27.7317 34 34 27.732 34 20C34 12.268 27.7317 6 20 6ZM27.1015 21.5141C27.7541 22.1515 28.4444 22.7513 29.0302 23.4545C29.2897 23.7656 29.5343 24.0873 29.7205 24.4491C29.9863 24.965 29.7463 25.5307 29.2845 25.5613L26.4164 25.5608C25.6756 25.6221 25.0861 25.3233 24.5891 24.8169C24.1924 24.4133 23.8243 23.9822 23.4422 23.5648C23.2861 23.3935 23.1217 23.2322 22.9258 23.1054C22.5348 22.851 22.195 22.9289 21.971 23.3374C21.7427 23.753 21.6906 24.2136 21.6688 24.6762C21.6376 25.3525 21.4337 25.5292 20.7551 25.561C19.3051 25.6289 17.9293 25.4089 16.6506 24.6779C15.5226 24.0331 14.6495 23.1231 13.8887 22.0928C12.4072 20.0842 11.2726 17.8797 10.2531 15.6119C10.0237 15.1012 10.1916 14.8279 10.755 14.8174C11.6911 14.7993 12.6272 14.8016 13.5633 14.8165C13.9443 14.8225 14.1963 15.0405 14.3427 15.4C14.8486 16.6446 15.4687 17.8287 16.2459 18.927C16.453 19.2194 16.6643 19.511 16.9654 19.7176C17.2977 19.9456 17.5509 19.8702 17.7076 19.4993C17.8078 19.2635 17.8511 19.0115 17.8729 18.7588C17.9473 17.8935 17.9562 17.0284 17.8273 16.1665C17.7471 15.6271 17.4438 15.2788 16.9061 15.1768C16.6323 15.125 16.6724 15.0236 16.8056 14.8672C17.0367 14.5968 17.2533 14.4295 17.6861 14.4295L20.9267 14.4289C21.4374 14.5292 21.552 14.7583 21.6213 15.2728L21.6241 18.874C21.6181 19.0731 21.7241 19.6631 22.0816 19.7935C22.368 19.888 22.5571 19.6583 22.7284 19.477C23.5055 18.6523 24.0592 17.6789 24.555 16.6715C24.7739 16.2272 24.9627 15.7675 25.146 15.3069C25.2823 14.9663 25.4943 14.7987 25.8787 14.8045L28.9992 14.8082C29.0912 14.8082 29.1846 14.809 29.2757 14.8248C29.8016 14.9147 29.9457 15.141 29.783 15.6541C29.5269 16.4601 29.0293 17.1315 28.5429 17.8047C28.0216 18.5254 27.4656 19.2209 26.9494 19.9447C26.4751 20.6064 26.5126 20.9395 27.1015 21.5141Z" fill="#4C75A3"/>
</svg>
