<svg width="20" height="20" viewBox="0 0 20 20" fill="none" xmlns="http://www.w3.org/2000/svg">
<path fill-rule="evenodd" clip-rule="evenodd" d="M10.0001 18.3337C5.39768 18.3337 1.66672 14.6027 1.66672 10.0003C1.66672 5.39795 5.39768 1.66699 10.0001 1.66699C14.6024 1.66699 18.3334 5.39795 18.3334 10.0003C18.3334 14.6027 14.6024 18.3337 10.0001 18.3337ZM10.0001 3.33366C6.31815 3.33366 3.33338 6.31843 3.33338 10.0003C3.33338 13.6822 6.31815 16.667 10.0001 16.667C13.6819 16.667 16.6667 13.6822 16.6667 10.0003C16.6667 6.31843 13.6819 3.33366 10.0001 3.33366ZM10.0001 8.95866C10.5753 8.95866 11.0417 9.42503 11.0417 10.0003V13.3337C11.0417 13.909 10.5753 14.3753 10.0001 14.3753C9.42475 14.3753 8.95838 13.909 8.95838 13.3337V10.0003C8.95838 9.42503 9.42475 8.95866 10.0001 8.95866ZM10.0001 5.83366C9.42475 5.83366 8.95838 6.30003 8.95838 6.87533C8.95838 7.45062 9.42475 7.91699 10.0001 7.91699C10.5753 7.91699 11.0417 7.45062 11.0417 6.87533C11.0417 6.30003 10.5753 5.83366 10.0001 5.83366Z" fill="#27AE60"/>
</svg>
