<svg width="16" height="14" viewBox="0 0 16 14" fill="none" xmlns="http://www.w3.org/2000/svg">
    <defs>
        
    <mask id="${prefix}-6310a" fill="#fff">
            <path d="M10.195 11.23L8.53 12.916V7.402a.266.266 0 00-.264-.268.266.266 0 00-.265.268v5.514L6.334 11.23a.262.262 0 00-.374 0 .27.27 0 000 .379l2.117 2.143a.261.261 0 00.289.058.261.261 0 00.086-.058l2.117-2.143a.27.27 0 000-.379.262.262 0 00-.374 0z"/>
        </mask></defs>
    <path d="M13.553 4.507C13.412 2.097 11.448.17 9.08.17c-1.437 0-2.83.713-3.691 1.877l-.061-.028a2.454 2.454 0 00-.25-.105 2.379 2.379 0 00-.165-.051 2.503 2.503 0 00-.273-.057c-.027-.005-.053-.01-.08-.013a2.38 2.38 0 00-.267-.016c-1.314 0-2.382 1.081-2.382 2.41 0 .035.002.069.004.103C.816 4.897.06 6.17.06 7.443c0 1.897 1.525 3.441 3.4 3.441h1.365c.146 0 .264-.12.264-.268a.266.266 0 00-.264-.268H3.459c-1.583 0-2.87-1.303-2.87-2.905 0-1.113.715-2.268 1.702-2.746l.15-.073v-.169c0-.032.002-.064.004-.097l.003-.05-.003-.052c-.002-.023-.004-.045-.004-.068 0-1.034.832-1.875 1.853-1.875a1.83 1.83 0 01.513.075l.028.007c.076.023.15.053.221.086.02.008.038.018.056.027a1.88 1.88 0 011.035 1.68c0 .148.118.267.265.267.146 0 .264-.12.264-.267 0-.738-.33-1.398-.847-1.84C6.59 1.342 7.838.704 9.081.704c2.05 0 3.753 1.644 3.93 3.72a4.977 4.977 0 00-1.08.034.267.267 0 00-.222.305.266.266 0 00.301.224 4.806 4.806 0 011.24 0c1.233.237 2.162 1.386 2.162 2.674 0 1.481-1.191 2.686-2.655 2.686h-1.051a.266.266 0 00-.265.268c0 .148.118.268.265.268h1.051c1.756 0 3.184-1.445 3.184-3.222 0-1.47-1.013-2.789-2.389-3.155z" fill="#677387" stroke="#677387" stroke-width=".1"/>
    <path d="M10.195 11.23L8.53 12.916V7.402a.266.266 0 00-.264-.268.266.266 0 00-.265.268v5.514L6.334 11.23a.262.262 0 00-.374 0 .27.27 0 000 .379l2.117 2.143a.261.261 0 00.289.058.261.261 0 00.086-.058l2.117-2.143a.27.27 0 000-.379.262.262 0 00-.374 0z" fill="#677387"/>
    <path d="M10.195 11.23l-.711-.703.711.703zM8.53 12.916h-1v2.434l1.712-1.731-.712-.703zm-.529 0l-.711.703L9 15.35v-2.434H8zM6.334 11.23l-.711.703.711-.703zm-.374.379l-.711.703.71-.703zm2.117 2.143l.715-.7-.003-.003-.712.703zm.087.058l.39-.921-.004-.001-.386.922zm.202 0l-.387-.922h-.003l.39.922zm.086-.058l-.711-.703-.004.004.715.699zm2.117-2.143l-.71-.703.71.703zm-1.085-1.082l-1.666 1.686 1.423 1.406 1.665-1.686-1.422-1.406zm.045 2.389V7.402h-2v5.514h2zm0-5.514c0-.69-.555-1.268-1.264-1.268v2a.734.734 0 01-.736-.732h2zM8.265 6.134C7.555 6.134 7 6.713 7 7.402h2a.734.734 0 01-.735.732v-2zM7 7.402v5.514h2V7.402H7zm1.711 4.811l-1.666-1.686-1.422 1.406 1.666 1.686 1.422-1.406zm-1.666-1.686c-.494-.5-1.301-.5-1.796 0l1.422 1.406a.738.738 0 01-1.048 0l1.422-1.406zm-1.796 0a1.27 1.27 0 000 1.785l1.422-1.406a.73.73 0 010 1.027L5.25 10.527zm0 1.785l2.117 2.143 1.423-1.406-2.118-2.143-1.422 1.406zm2.113 2.139c.123.125.266.218.415.28l.773-1.843a.738.738 0 01.242.165l-1.43 1.398zm.412.28c.155.065.321.1.49.1v-2c.101 0 .2.02.29.058l-.78 1.842zm.49.1c.17 0 .337-.035.491-.1l-.779-1.842a.74.74 0 01.289-.059v2zm.489-.1a1.26 1.26 0 00.414-.28l-1.43-1.399a.738.738 0 01.242-.164l.774 1.844zm.41-.277l2.118-2.142-1.423-1.406-2.117 2.143 1.422 1.405zm2.118-2.142a1.27 1.27 0 000-1.785l-1.423 1.406a.73.73 0 010-1.027l1.423 1.406zm0-1.785c-.495-.5-1.302-.5-1.797 0l1.422 1.406a.738.738 0 01-1.048 0l1.423-1.406z" fill="#677387" mask="url(#${prefix}-6310a)"/>
</svg>
